<svg width="752" height="116" viewBox="0 0 752 116" fill="none" xmlns="http://www.w3.org/2000/svg">
<mask id="path-1-outside-1_94_137" maskUnits="userSpaceOnUse" x="2" y="20" width="747" height="76" fill="black">
<rect fill="white" x="2" y="20" width="747" height="76"/>
<path d="M4.5 93V23.1818H23.4545V77.7273H51.6818V93H4.5ZM131.941 58.0909C131.941 65.8636 130.43 72.4205 127.407 77.7614C124.385 83.0795 120.305 87.1136 115.169 89.8636C110.032 92.5909 104.305 93.9545 97.9868 93.9545C91.6232 93.9545 85.8732 92.5795 80.7368 89.8295C75.6232 87.0568 71.555 83.0114 68.5323 77.6932C65.5323 72.3523 64.0323 65.8182 64.0323 58.0909C64.0323 50.3182 65.5323 43.7727 68.5323 38.4545C71.555 33.1136 75.6232 29.0795 80.7368 26.3523C85.8732 23.6023 91.6232 22.2273 97.9868 22.2273C104.305 22.2273 110.032 23.6023 115.169 26.3523C120.305 29.0795 124.385 33.1136 127.407 38.4545C130.43 43.7727 131.941 50.3182 131.941 58.0909ZM112.441 58.0909C112.441 53.9091 111.885 50.3864 110.771 47.5227C109.68 44.6364 108.055 42.4545 105.896 40.9773C103.76 39.4773 101.123 38.7273 97.9868 38.7273C94.8505 38.7273 92.2027 39.4773 90.0436 40.9773C87.9073 42.4545 86.2823 44.6364 85.1686 47.5227C84.0777 50.3864 83.5323 53.9091 83.5323 58.0909C83.5323 62.2727 84.0777 65.8068 85.1686 68.6932C86.2823 71.5568 87.9073 73.7386 90.0436 75.2386C92.2027 76.7159 94.8505 77.4545 97.9868 77.4545C101.123 77.4545 103.76 76.7159 105.896 75.2386C108.055 73.7386 109.68 71.5568 110.771 68.6932C111.885 65.8068 112.441 62.2727 112.441 58.0909ZM148.391 93V23.1818H178.528C183.709 23.1818 188.244 24.125 192.13 26.0114C196.016 27.8977 199.039 30.6136 201.198 34.1591C203.357 37.7045 204.437 41.9545 204.437 46.9091C204.437 51.9091 203.323 56.125 201.096 59.5568C198.891 62.9886 195.789 65.5795 191.789 67.3295C187.812 69.0795 183.164 69.9545 177.846 69.9545H159.846V55.2273H174.028C176.255 55.2273 178.153 54.9545 179.721 54.4091C181.312 53.8409 182.528 52.9432 183.369 51.7159C184.232 50.4886 184.664 48.8864 184.664 46.9091C184.664 44.9091 184.232 43.2841 183.369 42.0341C182.528 40.7614 181.312 39.8295 179.721 39.2386C178.153 38.625 176.255 38.3182 174.028 38.3182H167.346V93H148.391ZM189.3 60.9545L206.755 93H186.164L169.119 60.9545H189.3ZM220.196 93V23.1818H270.514V38.4545H239.151V50.4545H267.924V65.7273H239.151V77.7273H270.378V93H220.196ZM287.595 23.1818H311.186L327.413 62.7273H328.231L344.459 23.1818H368.05V93H349.504V52.6364H348.959L333.413 92.4545H322.231L306.686 52.3636H306.14V93H287.595V23.1818ZM430.472 23.1818V93H411.517V23.1818H430.472ZM447.135 93V23.1818H477.271C482.453 23.1818 486.987 24.2045 490.874 26.25C494.76 28.2955 497.783 31.1705 499.942 34.875C502.101 38.5795 503.18 42.9091 503.18 47.8636C503.18 52.8636 502.067 57.1932 499.84 60.8523C497.635 64.5114 494.533 67.3295 490.533 69.3068C486.555 71.2841 481.908 72.2727 476.59 72.2727H458.59V57.5455H472.771C474.999 57.5455 476.896 57.1591 478.465 56.3864C480.055 55.5909 481.271 54.4659 482.112 53.0114C482.976 51.5568 483.408 49.8409 483.408 47.8636C483.408 45.8636 482.976 44.1591 482.112 42.75C481.271 41.3182 480.055 40.2273 478.465 39.4773C476.896 38.7045 474.999 38.3182 472.771 38.3182H466.09V93H447.135ZM555.451 45C555.27 42.7273 554.417 40.9545 552.895 39.6818C551.395 38.4091 549.11 37.7727 546.042 37.7727C544.088 37.7727 542.485 38.0114 541.235 38.4886C540.008 38.9432 539.099 39.5682 538.508 40.3636C537.917 41.1591 537.61 42.0682 537.588 43.0909C537.542 43.9318 537.69 44.6932 538.031 45.375C538.395 46.0341 538.963 46.6364 539.735 47.1818C540.508 47.7045 541.497 48.1818 542.701 48.6136C543.906 49.0455 545.338 49.4318 546.997 49.7727L552.724 51C556.588 51.8182 559.895 52.8977 562.645 54.2386C565.395 55.5795 567.645 57.1591 569.395 58.9773C571.145 60.7727 572.429 62.7955 573.247 65.0455C574.088 67.2955 574.52 69.75 574.542 72.4091C574.52 77 573.372 80.8864 571.099 84.0682C568.826 87.25 565.576 89.6705 561.349 91.3295C557.145 92.9886 552.088 93.8182 546.179 93.8182C540.11 93.8182 534.815 92.9205 530.292 91.125C525.792 89.3295 522.292 86.5682 519.792 82.8409C517.315 79.0909 516.065 74.2955 516.042 68.4545H534.042C534.156 70.5909 534.69 72.3864 535.645 73.8409C536.599 75.2955 537.94 76.3977 539.667 77.1477C541.417 77.8977 543.497 78.2727 545.906 78.2727C547.929 78.2727 549.622 78.0227 550.985 77.5227C552.349 77.0227 553.383 76.3295 554.088 75.4432C554.792 74.5568 555.156 73.5455 555.179 72.4091C555.156 71.3409 554.804 70.4091 554.122 69.6136C553.463 68.7955 552.372 68.0682 550.849 67.4318C549.326 66.7727 547.27 66.1591 544.679 65.5909L537.724 64.0909C531.542 62.75 526.667 60.5114 523.099 57.375C519.554 54.2159 517.792 49.9091 517.815 44.4545C517.792 40.0227 518.974 36.1477 521.36 32.8295C523.77 29.4886 527.099 26.8864 531.349 25.0227C535.622 23.1591 540.52 22.2273 546.042 22.2273C551.679 22.2273 556.554 23.1705 560.667 25.0568C564.781 26.9432 567.951 29.6023 570.179 33.0341C572.429 36.4432 573.565 40.4318 573.588 45H555.451ZM630.751 23.1818H649.705V67.9091C649.705 73.2273 648.432 77.8295 645.887 81.7159C643.364 85.5795 639.842 88.5682 635.319 90.6818C630.796 92.7727 625.546 93.8182 619.569 93.8182C613.546 93.8182 608.273 92.7727 603.751 90.6818C599.228 88.5682 595.705 85.5795 593.182 81.7159C590.682 77.8295 589.432 73.2273 589.432 67.9091V23.1818H608.387V66.2727C608.387 68.4318 608.864 70.3636 609.819 72.0682C610.773 73.75 612.092 75.0682 613.773 76.0227C615.478 76.9773 617.41 77.4545 619.569 77.4545C621.751 77.4545 623.682 76.9773 625.364 76.0227C627.046 75.0682 628.364 73.75 629.319 72.0682C630.273 70.3636 630.751 68.4318 630.751 66.2727V23.1818ZM666.394 23.1818H689.985L706.212 62.7273H707.03L723.257 23.1818H746.848V93H728.303V52.6364H727.757L712.212 92.4545H701.03L685.485 52.3636H684.939V93H666.394V23.1818Z"/>
</mask>
<path d="M4.5 93H2.5V95H4.5V93ZM4.5 23.1818V21.1818H2.5V23.1818H4.5ZM23.4545 23.1818H25.4545V21.1818H23.4545V23.1818ZM23.4545 77.7273H21.4545V79.7273H23.4545V77.7273ZM51.6818 77.7273H53.6818V75.7273H51.6818V77.7273ZM51.6818 93V95H53.6818V93H51.6818ZM6.5 93V23.1818H2.5V93H6.5ZM4.5 25.1818H23.4545V21.1818H4.5V25.1818ZM21.4545 23.1818V77.7273H25.4545V23.1818H21.4545ZM23.4545 79.7273H51.6818V75.7273H23.4545V79.7273ZM49.6818 77.7273V93H53.6818V77.7273H49.6818ZM51.6818 91H4.5V95H51.6818V91ZM127.407 77.7614L129.146 78.7496L129.148 78.7465L127.407 77.7614ZM115.169 89.8636L116.107 91.6301L116.113 91.6268L115.169 89.8636ZM80.7368 89.8295L79.7835 91.5877L79.7928 91.5927L80.7368 89.8295ZM68.5323 77.6932L66.7885 78.6727L66.7935 78.6815L68.5323 77.6932ZM68.5323 38.4545L66.7917 37.4695L66.7903 37.4719L68.5323 38.4545ZM80.7368 26.3523L81.678 28.117L81.6808 28.1155L80.7368 26.3523ZM115.169 26.3523L114.225 28.1155L114.231 28.1187L115.169 26.3523ZM127.407 38.4545L125.667 39.4396L125.669 39.4428L127.407 38.4545ZM110.771 47.5227L108.9 48.2298L108.903 48.2387L108.907 48.2476L110.771 47.5227ZM105.896 40.9773L104.747 42.6141L104.757 42.6211L104.767 42.6279L105.896 40.9773ZM90.0436 40.9773L91.1812 42.6223L91.1848 42.6198L90.0436 40.9773ZM85.1686 47.5227L83.3027 46.8028L83.2997 46.8107L85.1686 47.5227ZM85.1686 68.6932L83.2978 69.4003L83.3012 69.4092L83.3046 69.4181L85.1686 68.6932ZM90.0436 75.2386L88.8944 76.8755L88.9043 76.8824L88.9143 76.8893L90.0436 75.2386ZM105.896 75.2386L107.033 76.8837L107.037 76.8812L105.896 75.2386ZM110.771 68.6932L108.905 67.9732L108.902 67.9812L110.771 68.6932ZM129.941 58.0909C129.941 65.6088 128.48 71.8058 125.667 76.7763L129.148 78.7465C132.38 73.0352 133.941 66.1185 133.941 58.0909H129.941ZM125.669 76.7731C122.823 81.7803 119.011 85.5377 114.225 88.1004L116.113 91.6268C121.599 88.6896 125.947 84.3788 129.146 78.7496L125.669 76.7731ZM114.231 88.0972C109.408 90.6581 104.007 91.9545 97.9868 91.9545V95.9545C104.603 95.9545 110.657 94.5237 116.107 91.6301L114.231 88.0972ZM97.9868 91.9545C91.9215 91.9545 86.5006 90.6469 81.6808 88.0664L79.7928 91.5927C85.2458 94.5122 91.3249 95.9545 97.9868 95.9545V91.9545ZM81.6901 88.0714C76.9224 85.4862 73.119 81.7157 70.271 76.7049L66.7935 78.6815C69.991 84.3071 74.3239 88.6274 79.7835 91.5877L81.6901 88.0714ZM70.276 76.7137C67.4825 71.7404 66.0323 65.5633 66.0323 58.0909H62.0323C62.0323 66.0731 63.5821 72.9642 66.7885 78.6726L70.276 76.7137ZM66.0323 58.0909C66.0323 50.5704 67.4835 44.3843 70.2742 39.4372L66.7903 37.4719C63.581 43.1611 62.0323 50.066 62.0323 58.0909H66.0323ZM70.2728 39.4396C73.1201 34.4088 76.9195 30.6548 81.678 28.117L79.7956 24.5876C74.3268 27.5043 69.9899 31.8184 66.7917 37.4695L70.2728 39.4396ZM81.6808 28.1155C86.5006 25.535 91.9215 24.2273 97.9868 24.2273V20.2273C91.3249 20.2273 85.2458 21.6696 79.7928 24.5891L81.6808 28.1155ZM97.9868 24.2273C104.004 24.2273 109.403 25.5338 114.225 28.1155L116.113 24.5891C110.662 21.6707 104.606 20.2273 97.9868 20.2273V24.2273ZM114.231 28.1187C119.012 30.6572 122.821 34.4111 125.667 39.4396L129.148 37.4695C125.948 31.8162 121.598 27.5019 116.107 24.5858L114.231 28.1187ZM125.669 39.4428C128.48 44.3888 129.941 50.5726 129.941 58.0909H133.941C133.941 50.0637 132.38 43.1567 129.146 37.4663L125.669 39.4428ZM114.441 58.0909C114.441 53.7449 113.864 49.9595 112.635 46.7978L108.907 48.2476C109.905 50.8132 110.441 54.0733 110.441 58.0909H114.441ZM112.642 46.8156C111.433 43.6168 109.58 41.0743 107.025 39.3267L104.767 42.6279C106.53 43.8348 107.927 45.656 108.9 48.2298L112.642 46.8156ZM107.045 39.3404C104.509 37.5598 101.45 36.7273 97.9868 36.7273V40.7273C100.796 40.7273 103.01 41.3948 104.747 42.6141L107.045 39.3404ZM97.9868 36.7273C94.5229 36.7273 91.4571 37.56 88.9025 39.3348L91.1848 42.6198C92.9484 41.3945 95.178 40.7273 97.9868 40.7273V36.7273ZM88.9061 39.3323C86.3807 41.0786 84.5327 43.6149 83.3027 46.8028L87.0346 48.2427C88.0319 45.6578 89.4339 43.8305 91.1811 42.6223L88.9061 39.3323ZM83.2997 46.8107C82.0969 49.9681 81.5323 53.7486 81.5323 58.0909H85.5323C85.5323 54.0696 86.0586 50.8046 87.0376 48.2347L83.2997 46.8107ZM81.5323 58.0909C81.5323 62.434 82.0971 66.2234 83.2978 69.4003L87.0395 67.9861C86.0584 65.3903 85.5323 62.1115 85.5323 58.0909H81.5323ZM83.3046 69.4181C84.5355 72.5831 86.3812 75.1109 88.8944 76.8755L91.1929 73.6018C89.4334 72.3664 88.0291 70.5306 87.0326 67.9683L83.3046 69.4181ZM88.9143 76.8893C91.4675 78.6362 94.529 79.4545 97.9868 79.4545V75.4545C95.1719 75.4545 92.9379 74.7956 91.173 73.588L88.9143 76.8893ZM97.9868 79.4545C101.444 79.4545 104.499 78.6365 107.033 76.8837L104.758 73.5936C103.021 74.7953 100.803 75.4545 97.9868 75.4545V79.4545ZM107.037 76.8812C109.579 75.1151 111.43 72.5812 112.64 69.4052L108.902 67.9812C107.93 70.5324 106.531 72.3621 104.755 73.5961L107.037 76.8812ZM112.637 69.4131C113.864 66.2319 114.441 62.4377 114.441 58.0909H110.441C110.441 62.1077 109.905 65.3818 108.905 67.9733L112.637 69.4131ZM148.391 93H146.391V95H148.391V93ZM148.391 23.1818V21.1818H146.391V23.1818H148.391ZM201.198 34.1591L202.906 33.1189L202.906 33.1189L201.198 34.1591ZM201.096 59.5568L199.418 58.468L199.413 58.4759L201.096 59.5568ZM191.789 67.3295L190.987 65.4972L190.984 65.4989L191.789 67.3295ZM159.846 69.9545H157.846V71.9545H159.846V69.9545ZM159.846 55.2273V53.2273H157.846V55.2273H159.846ZM179.721 54.4091L180.378 56.2981L180.386 56.2954L180.393 56.2926L179.721 54.4091ZM183.369 51.7159L181.733 50.5649L181.726 50.5751L181.719 50.5854L183.369 51.7159ZM183.369 42.0341L181.7 43.1366L181.711 43.1539L181.723 43.171L183.369 42.0341ZM179.721 39.2386L178.992 41.1011L179.008 41.1074L179.024 41.1135L179.721 39.2386ZM167.346 38.3182V36.3182H165.346V38.3182H167.346ZM167.346 93V95H169.346V93H167.346ZM189.3 60.9545L191.057 59.9979L190.488 58.9545H189.3V60.9545ZM206.755 93V95H210.122L208.511 92.0433L206.755 93ZM186.164 93L184.398 93.9392L184.962 95H186.164V93ZM169.119 60.9545V58.9545H165.789L167.353 61.8938L169.119 60.9545ZM150.391 93V23.1818H146.391V93H150.391ZM148.391 25.1818H178.528V21.1818H148.391V25.1818ZM178.528 25.1818C183.467 25.1818 187.691 26.0801 191.257 27.8106L193.003 24.2121C188.796 22.1699 183.952 21.1818 178.528 21.1818V25.1818ZM191.257 27.8106C194.812 29.5365 197.539 31.9955 199.49 35.1993L202.906 33.1189C200.539 29.2317 197.22 26.2589 193.003 24.2121L191.257 27.8106ZM199.49 35.1993C201.424 38.3754 202.437 42.2499 202.437 46.9091H206.437C206.437 41.6591 205.29 37.0337 202.906 33.1189L199.49 35.1993ZM202.437 46.9091C202.437 51.609 201.392 55.4259 199.418 58.468L202.773 60.6456C205.254 56.8241 206.437 52.2092 206.437 46.9091H202.437ZM199.413 58.4759C197.437 61.5521 194.653 63.8936 190.987 65.4972L192.591 69.1619C196.925 67.2654 200.346 64.4251 202.779 60.6378L199.413 58.4759ZM190.984 65.4989C187.31 67.1152 182.947 67.9545 177.846 67.9545V71.9545C183.381 71.9545 188.313 71.0439 192.594 69.1602L190.984 65.4989ZM177.846 67.9545H159.846V71.9545H177.846V67.9545ZM161.846 69.9545V55.2273H157.846V69.9545H161.846ZM159.846 57.2273H174.028V53.2273H159.846V57.2273ZM174.028 57.2273C176.407 57.2273 178.54 56.9373 180.378 56.2981L179.064 52.5201C177.765 52.9718 176.103 53.2273 174.028 53.2273V57.2273ZM180.393 56.2926C182.325 55.6026 183.908 54.4674 185.018 52.8464L181.719 50.5854C181.148 51.419 180.298 52.0792 179.048 52.5256L180.393 56.2926ZM185.004 52.8669C186.17 51.2103 186.664 49.1689 186.664 46.9091H182.664C182.664 48.6039 182.294 49.767 181.733 50.5649L185.004 52.8669ZM186.664 46.9091C186.664 44.6299 186.171 42.5725 185.014 40.8972L181.723 43.171C182.293 43.9957 182.664 45.1883 182.664 46.9091H186.664ZM185.037 40.9316C183.936 39.2651 182.359 38.085 180.417 37.3638L179.024 41.1135C180.264 41.5741 181.119 42.2576 181.7 43.1366L185.037 40.9316ZM180.45 37.3761C178.588 36.6475 176.428 36.3182 174.028 36.3182V40.3182C176.082 40.3182 177.718 40.6025 178.992 41.1011L180.45 37.3761ZM174.028 36.3182H167.346V40.3182H174.028V36.3182ZM165.346 38.3182V93H169.346V38.3182H165.346ZM167.346 91H148.391V95H167.346V91ZM187.544 61.9112L204.999 93.9567L208.511 92.0433L191.057 59.9979L187.544 61.9112ZM206.755 91H186.164V95H206.755V91ZM187.93 92.0608L170.884 60.0153L167.353 61.8938L184.398 93.9392L187.93 92.0608ZM169.119 62.9545H189.3V58.9545H169.119V62.9545ZM220.196 93H218.196V95H220.196V93ZM220.196 23.1818V21.1818H218.196V23.1818H220.196ZM270.514 23.1818H272.514V21.1818H270.514V23.1818ZM270.514 38.4545V40.4545H272.514V38.4545H270.514ZM239.151 38.4545V36.4545H237.151V38.4545H239.151ZM239.151 50.4545H237.151V52.4545H239.151V50.4545ZM267.924 50.4545H269.924V48.4545H267.924V50.4545ZM267.924 65.7273V67.7273H269.924V65.7273H267.924ZM239.151 65.7273V63.7273H237.151V65.7273H239.151ZM239.151 77.7273H237.151V79.7273H239.151V77.7273ZM270.378 77.7273H272.378V75.7273H270.378V77.7273ZM270.378 93V95H272.378V93H270.378ZM222.196 93V23.1818H218.196V93H222.196ZM220.196 25.1818H270.514V21.1818H220.196V25.1818ZM268.514 23.1818V38.4545H272.514V23.1818H268.514ZM270.514 36.4545H239.151V40.4545H270.514V36.4545ZM237.151 38.4545V50.4545H241.151V38.4545H237.151ZM239.151 52.4545H267.924V48.4545H239.151V52.4545ZM265.924 50.4545V65.7273H269.924V50.4545H265.924ZM267.924 63.7273H239.151V67.7273H267.924V63.7273ZM237.151 65.7273V77.7273H241.151V65.7273H237.151ZM239.151 79.7273H270.378V75.7273H239.151V79.7273ZM268.378 77.7273V93H272.378V77.7273H268.378ZM270.378 91H220.196V95H270.378V91ZM287.595 23.1818V21.1818H285.595V23.1818H287.595ZM311.186 23.1818L313.036 22.4226L312.527 21.1818H311.186V23.1818ZM327.413 62.7273L325.563 63.4865L326.072 64.7273H327.413V62.7273ZM328.231 62.7273V64.7273H329.573L330.082 63.4865L328.231 62.7273ZM344.459 23.1818V21.1818H343.117L342.608 22.4226L344.459 23.1818ZM368.05 23.1818H370.05V21.1818H368.05V23.1818ZM368.05 93V95H370.05V93H368.05ZM349.504 93H347.504V95H349.504V93ZM349.504 52.6364H351.504V50.6364H349.504V52.6364ZM348.959 52.6364V50.6364H347.592L347.096 51.909L348.959 52.6364ZM333.413 92.4545V94.4545H334.779L335.276 93.1819L333.413 92.4545ZM322.231 92.4545L320.367 93.1776L320.862 94.4545H322.231V92.4545ZM306.686 52.3636L308.551 51.6406L308.055 50.3636H306.686V52.3636ZM306.14 52.3636V50.3636H304.14V52.3636H306.14ZM306.14 93V95H308.14V93H306.14ZM287.595 93H285.595V95H287.595V93ZM287.595 25.1818H311.186V21.1818H287.595V25.1818ZM309.336 23.9411L325.563 63.4865L329.263 61.968L313.036 22.4226L309.336 23.9411ZM327.413 64.7273H328.231V60.7273H327.413V64.7273ZM330.082 63.4865L346.309 23.9411L342.608 22.4226L326.381 61.968L330.082 63.4865ZM344.459 25.1818H368.05V21.1818H344.459V25.1818ZM366.05 23.1818V93H370.05V23.1818H366.05ZM368.05 91H349.504V95H368.05V91ZM351.504 93V52.6364H347.504V93H351.504ZM349.504 50.6364H348.959V54.6364H349.504V50.6364ZM347.096 51.909L331.55 91.7272L335.276 93.1819L350.822 53.3637L347.096 51.909ZM333.413 90.4545H322.231V94.4545H333.413V90.4545ZM324.096 91.7315L308.551 51.6406L304.821 53.0867L320.367 93.1776L324.096 91.7315ZM306.686 50.3636H306.14V54.3636H306.686V50.3636ZM304.14 52.3636V93H308.14V52.3636H304.14ZM306.14 91H287.595V95H306.14V91ZM289.595 93V23.1818H285.595V93H289.595ZM430.472 23.1818H432.472V21.1818H430.472V23.1818ZM430.472 93V95H432.472V93H430.472ZM411.517 93H409.517V95H411.517V93ZM411.517 23.1818V21.1818H409.517V23.1818H411.517ZM428.472 23.1818V93H432.472V23.1818H428.472ZM430.472 91H411.517V95H430.472V91ZM413.517 93V23.1818H409.517V93H413.517ZM411.517 25.1818H430.472V21.1818H411.517V25.1818ZM447.135 93H445.135V95H447.135V93ZM447.135 23.1818V21.1818H445.135V23.1818H447.135ZM490.874 26.25L489.942 28.0198L489.942 28.0198L490.874 26.25ZM499.942 34.875L501.67 33.8679L501.67 33.8679L499.942 34.875ZM499.84 60.8523L498.131 59.8124L498.126 59.8202L499.84 60.8523ZM490.533 69.3068L489.646 67.5139L489.642 67.5159L490.533 69.3068ZM458.59 72.2727H456.59V74.2727H458.59V72.2727ZM458.59 57.5455V55.5455H456.59V57.5455H458.59ZM478.465 56.3864L479.349 58.1804L479.359 58.1752L478.465 56.3864ZM482.112 53.0114L480.393 51.9903L480.387 52.0003L480.381 52.0104L482.112 53.0114ZM482.112 42.75L480.388 43.7628L480.397 43.7791L480.407 43.7951L482.112 42.75ZM478.465 39.4773L477.581 41.2713L477.596 41.2789L477.612 41.2863L478.465 39.4773ZM466.09 38.3182V36.3182H464.09V38.3182H466.09ZM466.09 93V95H468.09V93H466.09ZM449.135 93V23.1818H445.135V93H449.135ZM447.135 25.1818H477.271V21.1818H447.135V25.1818ZM477.271 25.1818C482.187 25.1818 486.391 26.1506 489.942 28.0198L491.805 24.4802C487.584 22.2585 482.719 21.1818 477.271 21.1818V25.1818ZM489.942 28.0198C493.505 29.8952 496.248 32.5096 498.214 35.8821L501.67 33.8679C499.317 29.8313 496.015 26.6957 491.805 24.4802L489.942 28.0198ZM498.214 35.8821C500.169 39.2361 501.18 43.2072 501.18 47.8636H505.18C505.18 42.611 504.033 37.923 501.67 33.8679L498.214 35.8821ZM501.18 47.8636C501.18 52.559 500.138 56.5158 498.131 59.8124L501.548 61.8922C503.996 57.8705 505.18 53.1682 505.18 47.8636H501.18ZM498.126 59.8202C496.128 63.1368 493.32 65.6981 489.646 67.5139L491.419 71.0997C495.746 68.961 499.142 65.8859 501.553 61.8844L498.126 59.8202ZM489.642 67.5159C485.991 69.3311 481.659 70.2727 476.59 70.2727V74.2727C482.156 74.2727 487.12 73.2371 491.423 71.0977L489.642 67.5159ZM476.59 70.2727H458.59V74.2727H476.59V70.2727ZM460.59 72.2727V57.5455H456.59V72.2727H460.59ZM458.59 59.5455H472.771V55.5455H458.59V59.5455ZM472.771 59.5455C475.224 59.5455 477.441 59.1205 479.349 58.1804L477.581 54.5923C476.352 55.1976 474.774 55.5455 472.771 55.5455V59.5455ZM479.359 58.1752C481.278 57.2155 482.795 55.8261 483.844 54.0124L480.381 52.0104C479.748 53.1057 478.833 53.9663 477.57 54.5975L479.359 58.1752ZM483.832 54.0324C484.908 52.2201 485.408 50.1389 485.408 47.8636H481.408C481.408 49.5429 481.044 50.8936 480.393 51.9903L483.832 54.0324ZM485.408 47.8636C485.408 45.5726 484.911 43.4888 483.817 41.7049L480.407 43.7951C481.041 44.8294 481.408 46.1547 481.408 47.8636H485.408ZM483.837 41.7372C482.78 39.9372 481.25 38.5791 479.317 37.6682L477.612 41.2863C478.861 41.8754 479.763 42.6992 480.388 43.7628L483.837 41.7372ZM479.349 37.6832C477.441 36.7431 475.224 36.3182 472.771 36.3182V40.3182C474.774 40.3182 476.352 40.666 477.581 41.2713L479.349 37.6832ZM472.771 36.3182H466.09V40.3182H472.771V36.3182ZM464.09 38.3182V93H468.09V38.3182H464.09ZM466.09 91H447.135V95H466.09V91ZM555.451 45L553.458 45.1595L553.605 47H555.451V45ZM552.895 39.6818L551.601 41.2068L551.606 41.2116L551.612 41.2164L552.895 39.6818ZM541.235 38.4886L541.93 40.3641L541.939 40.3606L541.949 40.3571L541.235 38.4886ZM538.508 40.3636L536.903 39.171L536.903 39.171L538.508 40.3636ZM537.588 43.0909L539.585 43.1989L539.587 43.1671L539.587 43.1353L537.588 43.0909ZM538.031 45.375L536.242 46.2694L536.26 46.3057L536.28 46.3412L538.031 45.375ZM539.735 47.1818L538.582 48.8158L538.598 48.8272L538.615 48.8384L539.735 47.1818ZM546.997 49.7727L547.416 47.8171L547.408 47.8154L547.399 47.8137L546.997 49.7727ZM552.724 51L552.305 52.9556L552.31 52.9566L552.724 51ZM569.395 58.9773L567.954 60.3642L567.962 60.3732L569.395 58.9773ZM573.247 65.0455L571.367 65.7289L571.37 65.7373L571.373 65.7456L573.247 65.0455ZM574.542 72.4091L576.542 72.419L576.542 72.4055L576.542 72.392L574.542 72.4091ZM571.099 84.0682L572.727 85.2307L572.727 85.2307L571.099 84.0682ZM561.349 91.3295L560.618 89.4678L560.615 89.4691L561.349 91.3295ZM530.292 91.125L529.551 92.9826L529.554 92.9839L530.292 91.125ZM519.792 82.8409L518.123 83.9433L518.131 83.955L519.792 82.8409ZM516.042 68.4545V66.4545H514.034L514.042 68.4623L516.042 68.4545ZM534.042 68.4545L536.039 68.3483L535.939 66.4545H534.042V68.4545ZM535.645 73.8409L533.972 74.9382L533.972 74.9382L535.645 73.8409ZM539.667 77.1477L538.871 78.9823L538.879 78.986L539.667 77.1477ZM550.985 77.5227L551.674 79.4005L551.674 79.4005L550.985 77.5227ZM554.088 75.4432L555.653 76.6877L555.653 76.6877L554.088 75.4432ZM555.179 72.4091L557.178 72.4491L557.179 72.4078L557.178 72.3665L555.179 72.4091ZM554.122 69.6136L552.564 70.8683L552.583 70.8921L552.603 70.9152L554.122 69.6136ZM550.849 67.4318L550.055 69.2673L550.066 69.2723L550.078 69.2772L550.849 67.4318ZM544.679 65.5909L545.107 63.6373L545.1 63.6359L544.679 65.5909ZM537.724 64.0909L537.3 66.0455L537.302 66.046L537.724 64.0909ZM523.099 57.375L521.769 58.8683L521.779 58.8772L523.099 57.375ZM517.815 44.4545L519.815 44.4629L519.815 44.4536L519.815 44.4443L517.815 44.4545ZM521.36 32.8295L519.738 31.6598L519.737 31.6618L521.36 32.8295ZM531.349 25.0227L530.55 23.1895L530.546 23.1911L531.349 25.0227ZM560.667 25.0568L559.834 26.8748L559.834 26.8748L560.667 25.0568ZM570.179 33.0341L568.501 34.1229L568.505 34.1294L568.509 34.1358L570.179 33.0341ZM573.588 45V47H575.598L575.588 44.99L573.588 45ZM557.445 44.8405C557.227 42.1192 556.174 39.8164 554.177 38.1473L551.612 41.2164C552.66 42.0927 553.312 43.3353 553.458 45.1595L557.445 44.8405ZM554.189 38.1568C552.173 36.4464 549.332 35.7727 546.042 35.7727V39.7727C548.889 39.7727 550.616 40.3717 551.601 41.2068L554.189 38.1568ZM546.042 35.7727C543.946 35.7727 542.079 36.0257 540.522 36.6202L541.949 40.3571C542.892 39.997 544.229 39.7727 546.042 39.7727V35.7727ZM540.541 36.6131C539.065 37.1599 537.788 37.9793 536.903 39.171L540.114 41.5563C540.41 41.1571 540.952 40.7264 541.93 40.3641L540.541 36.6131ZM536.903 39.171C536.056 40.3104 535.62 41.6237 535.588 43.0465L539.587 43.1353C539.601 42.5126 539.778 42.0078 540.114 41.5563L536.903 39.171ZM535.591 42.983C535.528 44.1332 535.73 45.2455 536.242 46.2694L539.82 44.4806C539.65 44.1408 539.556 43.7304 539.585 43.1989L535.591 42.983ZM536.28 46.3412C536.822 47.3242 537.624 48.1394 538.582 48.8158L540.889 45.5479C540.302 45.1334 539.967 44.7439 539.782 44.4088L536.28 46.3412ZM538.615 48.8384C539.567 49.4822 540.718 50.0274 542.026 50.4963L543.376 46.731C542.275 46.3363 541.45 45.9269 540.856 45.5252L538.615 48.8384ZM542.026 50.4963C543.343 50.9683 544.87 51.3776 546.594 51.7318L547.399 47.8137C545.805 47.4861 544.469 47.1226 543.376 46.731L542.026 50.4963ZM546.578 51.7283L552.305 52.9556L553.143 49.0444L547.416 47.8171L546.578 51.7283ZM552.31 52.9566C556.057 53.7502 559.2 54.7843 561.768 56.0363L563.521 52.441C560.589 51.0111 557.118 49.8862 553.138 49.0434L552.31 52.9566ZM561.768 56.0363C564.351 57.2956 566.397 58.7466 567.954 60.3642L570.836 57.5903C568.893 55.5716 566.438 53.8635 563.521 52.441L561.768 56.0363ZM567.962 60.3732C569.524 61.9754 570.651 63.758 571.367 65.7289L575.126 64.362C574.207 61.8329 572.765 59.57 570.827 57.5813L567.962 60.3732ZM571.373 65.7456C572.124 67.7549 572.521 69.9755 572.542 72.4262L576.542 72.392C576.518 69.5245 576.051 66.836 575.12 64.3453L571.373 65.7456ZM572.542 72.3992C572.521 76.6507 571.464 80.1159 569.472 82.9057L572.727 85.2307C575.279 81.6568 576.518 77.3493 576.542 72.419L572.542 72.3992ZM569.472 82.9057C567.458 85.7243 564.545 87.9268 560.618 89.4678L562.08 93.1913C566.608 91.4141 570.194 88.7757 572.727 85.2307L569.472 82.9057ZM560.615 89.4691C556.704 91.0124 551.91 91.8182 546.179 91.8182V95.8182C552.266 95.8182 557.585 94.9648 562.083 93.1899L560.615 89.4691ZM546.179 91.8182C540.303 91.8182 535.268 90.9484 531.03 89.2661L529.554 92.9839C534.362 94.8925 539.918 95.8182 546.179 95.8182V91.8182ZM531.033 89.2674C526.877 87.6089 523.711 85.0923 521.453 81.7268L518.131 83.955C520.874 88.0441 524.708 91.0502 529.551 92.9826L531.033 89.2674ZM521.461 81.7385C519.254 78.3977 518.064 74.0135 518.042 68.4468L514.042 68.4623C514.066 74.5774 515.376 79.7841 518.124 83.9433L521.461 81.7385ZM516.042 70.4545H534.042V66.4545H516.042V70.4545ZM532.045 68.5608C532.173 70.9698 532.784 73.127 533.972 74.9382L537.317 72.7436C536.596 71.6458 536.139 70.212 536.039 68.3483L532.045 68.5608ZM533.972 74.9382C535.158 76.7455 536.817 78.0904 538.871 78.9823L540.464 75.3132C539.063 74.7051 538.04 73.8454 537.317 72.7436L533.972 74.9382ZM538.879 78.986C540.935 79.867 543.295 80.2727 545.906 80.2727V76.2727C543.698 76.2727 541.9 75.9285 540.455 75.3094L538.879 78.986ZM545.906 80.2727C548.078 80.2727 550.022 80.0063 551.674 79.4005L550.297 75.645C549.222 76.0392 547.779 76.2727 545.906 76.2727V80.2727ZM551.674 79.4005C553.287 78.8092 554.664 77.9324 555.653 76.6877L552.522 74.1987C552.102 74.7267 551.412 75.2363 550.297 75.645L551.674 79.4005ZM555.653 76.6877C556.632 75.4568 557.147 74.0218 557.178 72.4491L553.179 72.3691C553.165 73.0691 552.953 73.6569 552.522 74.1987L555.653 76.6877ZM557.178 72.3665C557.146 70.8457 556.63 69.4664 555.64 68.3121L552.603 70.9152C552.978 71.3518 553.166 71.8362 553.179 72.4516L557.178 72.3665ZM555.679 68.359C554.725 67.1744 553.292 66.285 551.62 65.5865L550.078 69.2772C551.452 69.8514 552.2 70.4165 552.564 70.8683L555.679 68.359ZM551.644 65.5964C549.954 64.8653 547.759 64.2188 545.107 63.6373L544.25 67.5445C546.781 68.0994 548.698 68.6802 550.055 69.2673L551.644 65.5964ZM545.1 63.6359L538.146 62.1359L537.302 66.046L544.257 67.546L545.1 63.6359ZM538.148 62.1364C532.192 60.8445 527.661 58.7224 524.419 55.8728L521.779 58.8772C525.673 62.3004 530.892 64.6555 537.3 66.0455L538.148 62.1364ZM524.43 55.8818C521.378 53.1627 519.794 49.4384 519.815 44.4629L515.815 44.4462C515.79 50.3798 517.729 55.2691 521.769 58.8682L524.43 55.8818ZM519.815 44.4443C519.794 40.3974 520.866 36.9431 522.984 33.9973L519.737 31.6618C517.083 35.3524 515.79 39.6481 515.815 44.4648L519.815 44.4443ZM522.983 33.9993C525.157 30.9836 528.187 28.5931 532.152 26.8544L530.546 23.1911C526.011 25.1796 522.382 27.9937 519.738 31.6598L522.983 33.9993ZM532.149 26.8559C536.127 25.1207 540.745 24.2273 546.042 24.2273V20.2273C540.294 20.2273 535.117 21.1975 530.55 23.1895L532.149 26.8559ZM546.042 24.2273C551.46 24.2273 556.038 25.134 559.834 26.8748L561.501 23.2388C557.07 21.2069 551.898 20.2273 546.042 20.2273V24.2273ZM559.834 26.8748C563.64 28.6204 566.502 31.0425 568.501 34.1229L571.856 31.9453C569.401 28.1621 565.921 25.266 561.501 23.2388L559.834 26.8748ZM568.509 34.1358C570.521 37.1833 571.567 40.7825 571.588 45.01L575.588 44.99C575.563 40.0811 574.337 35.7031 571.848 31.9324L568.509 34.1358ZM573.588 43H555.451V47H573.588V43ZM630.751 23.1818V21.1818H628.751V23.1818H630.751ZM649.705 23.1818H651.705V21.1818H649.705V23.1818ZM645.887 81.7159L644.214 80.6201L644.212 80.6225L645.887 81.7159ZM635.319 90.6818L636.158 92.4972L636.166 92.4937L635.319 90.6818ZM603.751 90.6818L602.904 92.4937L602.911 92.4972L603.751 90.6818ZM593.182 81.7159L591.5 82.7979L591.508 82.8093L593.182 81.7159ZM589.432 23.1818V21.1818H587.432V23.1818H589.432ZM608.387 23.1818H610.387V21.1818H608.387V23.1818ZM609.819 72.0682L608.074 73.0454L608.079 73.0554L609.819 72.0682ZM613.773 76.0227L612.786 77.7621L612.796 77.7677L613.773 76.0227ZM625.364 76.0227L626.352 77.7621L626.352 77.7621L625.364 76.0227ZM629.319 72.0682L631.058 73.0554L631.064 73.0454L629.319 72.0682ZM630.751 25.1818H649.705V21.1818H630.751V25.1818ZM647.705 23.1818V67.9091H651.705V23.1818H647.705ZM647.705 67.9091C647.705 72.8959 646.516 77.1047 644.214 80.6201L647.56 82.8117C650.349 78.5544 651.705 73.5587 651.705 67.9091H647.705ZM644.212 80.6225C641.91 84.1487 638.686 86.9006 634.472 88.8699L636.166 92.4937C640.997 90.2358 644.819 87.0104 647.562 82.8093L644.212 80.6225ZM634.48 88.8664C630.267 90.8139 625.313 91.8182 619.569 91.8182V95.8182C625.779 95.8182 631.325 94.7316 636.158 92.4972L634.48 88.8664ZM619.569 91.8182C613.777 91.8182 608.801 90.813 604.59 88.8664L602.911 92.4972C607.746 94.7324 613.316 95.8182 619.569 95.8182V91.8182ZM604.597 88.8699C600.383 86.9006 597.16 84.1487 594.857 80.6225L591.508 82.8093C594.251 87.0104 598.072 90.2358 602.904 92.4937L604.597 88.8699ZM594.865 80.6339C592.602 77.1167 591.432 72.9029 591.432 67.9091H587.432C587.432 73.5517 588.763 78.5424 591.5 82.7979L594.865 80.6339ZM591.432 67.9091V23.1818H587.432V67.9091H591.432ZM589.432 25.1818H608.387V21.1818H589.432V25.1818ZM606.387 23.1818V66.2727H610.387V23.1818H606.387ZM606.387 66.2727C606.387 68.7372 606.935 71.0117 608.074 73.0454L611.564 71.091C610.794 69.7155 610.387 68.1265 610.387 66.2727H606.387ZM608.079 73.0554C609.212 75.0512 610.79 76.6293 612.786 77.7621L614.761 74.2834C613.393 73.507 612.335 72.4488 611.558 71.081L608.079 73.0554ZM612.796 77.7677C614.83 78.9066 617.104 79.4545 619.569 79.4545V75.4545C617.715 75.4545 616.126 75.048 614.751 74.2777L612.796 77.7677ZM619.569 79.4545C622.052 79.4545 624.332 78.9085 626.352 77.7621L624.377 74.2834C623.033 75.0461 621.45 75.4545 619.569 75.4545V79.4545ZM626.352 77.7621C628.347 76.6293 629.925 75.0512 631.058 73.0554L627.579 71.081C626.803 72.4488 625.745 73.507 624.377 74.2834L626.352 77.7621ZM631.064 73.0454C632.203 71.0117 632.751 68.7372 632.751 66.2727H628.751C628.751 68.1265 628.344 69.7155 627.574 71.091L631.064 73.0454ZM632.751 66.2727V23.1818H628.751V66.2727H632.751ZM666.394 23.1818V21.1818H664.394V23.1818H666.394ZM689.985 23.1818L691.835 22.4226L691.326 21.1818H689.985V23.1818ZM706.212 62.7273L704.362 63.4865L704.871 64.7273H706.212V62.7273ZM707.03 62.7273V64.7273H708.371L708.88 63.4865L707.03 62.7273ZM723.257 23.1818V21.1818H721.916L721.407 22.4226L723.257 23.1818ZM746.848 23.1818H748.848V21.1818H746.848V23.1818ZM746.848 93V95H748.848V93H746.848ZM728.303 93H726.303V95H728.303V93ZM728.303 52.6364H730.303V50.6364H728.303V52.6364ZM727.757 52.6364V50.6364H726.391L725.894 51.909L727.757 52.6364ZM712.212 92.4545V94.4545H713.578L714.075 93.1819L712.212 92.4545ZM701.03 92.4545L699.165 93.1776L699.661 94.4545H701.03V92.4545ZM685.485 52.3636L687.349 51.6406L686.854 50.3636H685.485V52.3636ZM684.939 52.3636V50.3636H682.939V52.3636H684.939ZM684.939 93V95H686.939V93H684.939ZM666.394 93H664.394V95H666.394V93ZM666.394 25.1818H689.985V21.1818H666.394V25.1818ZM688.134 23.9411L704.362 63.4865L708.062 61.968L691.835 22.4226L688.134 23.9411ZM706.212 64.7273H707.03V60.7273H706.212V64.7273ZM708.88 63.4865L725.108 23.9411L721.407 22.4226L705.18 61.968L708.88 63.4865ZM723.257 25.1818H746.848V21.1818H723.257V25.1818ZM744.848 23.1818V93H748.848V23.1818H744.848ZM746.848 91H728.303V95H746.848V91ZM730.303 93V52.6364H726.303V93H730.303ZM728.303 50.6364H727.757V54.6364H728.303V50.6364ZM725.894 51.909L710.349 91.7272L714.075 93.1819L729.62 53.3637L725.894 51.909ZM712.212 90.4545H701.03V94.4545H712.212V90.4545ZM702.895 91.7315L687.349 51.6406L683.62 53.0867L699.165 93.1776L702.895 91.7315ZM685.485 50.3636H684.939V54.3636H685.485V50.3636ZM682.939 52.3636V93H686.939V52.3636H682.939ZM684.939 91H666.394V95H684.939V91ZM668.394 93V23.1818H664.394V93H668.394Z" fill="white" mask="url(#path-1-outside-1_94_137)"/>
</svg>
