<svg width="506" height="77" viewBox="0 0 506 77" fill="none" xmlns="http://www.w3.org/2000/svg">
<mask id="path-1-outside-1_94_138" maskUnits="userSpaceOnUse" x="1" y="12" width="504" height="53" fill="black">
<rect fill="white" x="1" y="12" width="504" height="53"/>
<path d="M21.0178 62H3.10875V15.4545H20.836C25.6239 15.4545 29.7603 16.3864 33.2451 18.25C36.7451 20.0985 39.4421 22.7651 41.336 26.25C43.2451 29.7197 44.1997 33.8788 44.1997 38.7273C44.1997 43.5758 43.2527 47.7424 41.3587 51.2273C39.4648 54.697 36.783 57.3636 33.3133 59.2273C29.8436 61.0758 25.7451 62 21.0178 62ZM15.7451 51.2727H20.5633C22.8663 51.2727 24.8284 50.9015 26.4497 50.1591C28.086 49.4167 29.3284 48.1364 30.1769 46.3182C31.0406 44.5 31.4724 41.9697 31.4724 38.7273C31.4724 35.4848 31.033 32.9545 30.1542 31.1364C29.2906 29.3182 28.0178 28.0379 26.336 27.2955C24.6694 26.553 22.6239 26.1818 20.1997 26.1818H15.7451V51.2727ZM97.6972 38.7273C97.6972 43.9091 96.6896 48.2803 94.6744 51.8409C92.6593 55.3864 89.9396 58.0758 86.5153 59.9091C83.0911 61.7273 79.2729 62.6364 75.0608 62.6364C70.8184 62.6364 66.985 61.7197 63.5608 59.8864C60.1517 58.0379 57.4396 55.3409 55.4244 51.7955C53.4244 48.2348 52.4244 43.8788 52.4244 38.7273C52.4244 33.5455 53.4244 29.1818 55.4244 25.6364C57.4396 22.0758 60.1517 19.3864 63.5608 17.5682C66.985 15.7348 70.8184 14.8182 75.0608 14.8182C79.2729 14.8182 83.0911 15.7348 86.5153 17.5682C89.9396 19.3864 92.6593 22.0758 94.6744 25.6364C96.6896 29.1818 97.6972 33.5455 97.6972 38.7273ZM84.6972 38.7273C84.6972 35.9394 84.3259 33.5909 83.5835 31.6818C82.8563 29.7576 81.7729 28.303 80.3335 27.3182C78.9093 26.3182 77.1517 25.8182 75.0608 25.8182C72.9699 25.8182 71.2047 26.3182 69.7653 27.3182C68.3411 28.303 67.2578 29.7576 66.5153 31.6818C65.7881 33.5909 65.4244 35.9394 65.4244 38.7273C65.4244 41.5152 65.7881 43.8712 66.5153 45.7955C67.2578 47.7045 68.3411 49.1591 69.7653 50.1591C71.2047 51.1439 72.9699 51.6364 75.0608 51.6364C77.1517 51.6364 78.9093 51.1439 80.3335 50.1591C81.7729 49.1591 82.8563 47.7045 83.5835 45.7955C84.3259 43.8712 84.6972 41.5152 84.6972 38.7273ZM106.104 62V15.4545H118.74V51.8182H137.558V62H106.104ZM188.505 38.7273C188.505 43.9091 187.497 48.2803 185.482 51.8409C183.467 55.3864 180.747 58.0758 177.323 59.9091C173.899 61.7273 170.08 62.6364 165.868 62.6364C161.626 62.6364 157.793 61.7197 154.368 59.8864C150.959 58.0379 148.247 55.3409 146.232 51.7955C144.232 48.2348 143.232 43.8788 143.232 38.7273C143.232 33.5455 144.232 29.1818 146.232 25.6364C148.247 22.0758 150.959 19.3864 154.368 17.5682C157.793 15.7348 161.626 14.8182 165.868 14.8182C170.08 14.8182 173.899 15.7348 177.323 17.5682C180.747 19.3864 183.467 22.0758 185.482 25.6364C187.497 29.1818 188.505 33.5455 188.505 38.7273ZM175.505 38.7273C175.505 35.9394 175.133 33.5909 174.391 31.6818C173.664 29.7576 172.58 28.303 171.141 27.3182C169.717 26.3182 167.959 25.8182 165.868 25.8182C163.777 25.8182 162.012 26.3182 160.573 27.3182C159.149 28.303 158.065 29.7576 157.323 31.6818C156.596 33.5909 156.232 35.9394 156.232 38.7273C156.232 41.5152 156.596 43.8712 157.323 45.7955C158.065 47.7045 159.149 49.1591 160.573 50.1591C162.012 51.1439 163.777 51.6364 165.868 51.6364C167.959 51.6364 169.717 51.1439 171.141 50.1591C172.58 49.1591 173.664 47.7045 174.391 45.7955C175.133 43.8712 175.505 41.5152 175.505 38.7273ZM196.911 62V15.4545H217.002C220.457 15.4545 223.479 16.0833 226.07 17.3409C228.661 18.5985 230.676 20.4091 232.116 22.7727C233.555 25.1364 234.275 27.9697 234.275 31.2727C234.275 34.6061 233.532 37.4167 232.048 39.7045C230.578 41.9924 228.51 43.7197 225.843 44.8864C223.192 46.053 220.093 46.6364 216.548 46.6364H204.548V36.8182H214.002C215.487 36.8182 216.752 36.6364 217.798 36.2727C218.858 35.8939 219.669 35.2955 220.229 34.4773C220.805 33.6591 221.093 32.5909 221.093 31.2727C221.093 29.9394 220.805 28.8561 220.229 28.0227C219.669 27.1742 218.858 26.553 217.798 26.1591C216.752 25.75 215.487 25.5455 214.002 25.5455H209.548V62H196.911ZM224.184 40.6364L235.82 62H222.093L210.729 40.6364H224.184ZM282.622 30C282.501 28.4848 281.933 27.303 280.918 26.4545C279.918 25.6061 278.395 25.1818 276.349 25.1818C275.046 25.1818 273.978 25.3409 273.145 25.6591C272.327 25.9621 271.721 26.3788 271.327 26.9091C270.933 27.4394 270.728 28.0455 270.713 28.7273C270.683 29.2879 270.781 29.7955 271.009 30.25C271.251 30.6894 271.63 31.0909 272.145 31.4545C272.66 31.803 273.319 32.1212 274.122 32.4091C274.925 32.697 275.88 32.9545 276.986 33.1818L280.804 34C283.38 34.5455 285.584 35.2652 287.418 36.1591C289.251 37.053 290.751 38.1061 291.918 39.3182C293.084 40.5152 293.94 41.8636 294.486 43.3636C295.046 44.8636 295.334 46.5 295.349 48.2727C295.334 51.3333 294.569 53.9242 293.054 56.0455C291.539 58.1667 289.372 59.7803 286.554 60.8864C283.751 61.9924 280.38 62.5455 276.44 62.5455C272.395 62.5455 268.865 61.947 265.849 60.75C262.849 59.553 260.516 57.7121 258.849 55.2273C257.198 52.7273 256.365 49.5303 256.349 45.6364H268.349C268.425 47.0606 268.781 48.2576 269.418 49.2273C270.054 50.197 270.948 50.9318 272.099 51.4318C273.266 51.9318 274.652 52.1818 276.259 52.1818C277.607 52.1818 278.736 52.0152 279.645 51.6818C280.554 51.3485 281.243 50.8864 281.713 50.2955C282.183 49.7045 282.425 49.0303 282.44 48.2727C282.425 47.5606 282.19 46.9394 281.736 46.4091C281.296 45.8636 280.569 45.3788 279.554 44.9545C278.539 44.5152 277.168 44.1061 275.44 43.7273L270.804 42.7273C266.683 41.8333 263.433 40.3409 261.054 38.25C258.69 36.1439 257.516 33.2727 257.531 29.6364C257.516 26.6818 258.304 24.0985 259.895 21.8864C261.501 19.6591 263.721 17.9242 266.554 16.6818C269.402 15.4394 272.668 14.8182 276.349 14.8182C280.107 14.8182 283.357 15.447 286.099 16.7045C288.842 17.9621 290.955 19.7348 292.44 22.0227C293.94 24.2955 294.698 26.9545 294.713 30H282.622ZM315.353 15.4545V62H302.716V15.4545H315.353ZM322.629 25.6364V15.4545H363.083V25.6364H349.083V62H336.629V25.6364H322.629ZM385.709 15.4545H401.436L412.254 41.8182H412.8L423.618 15.4545H439.345V62H426.981V35.0909H426.618L416.254 61.6364H408.8L398.436 34.9091H398.072V62H385.709V15.4545ZM447.894 62V15.4545H481.439V25.6364H460.53V33.6364H479.712V43.8182H460.53V51.8182H481.348V62H447.894ZM502.903 15.4545V62H490.266V15.4545H502.903Z"/>
</mask>
<path d="M3.10875 62H1.10875V64H3.10875V62ZM3.10875 15.4545V13.4545H1.10875V15.4545H3.10875ZM33.2451 18.25L32.3019 20.0137L32.3111 20.0185L33.2451 18.25ZM41.336 26.25L39.5788 27.205L39.5838 27.2141L41.336 26.25ZM41.3587 51.2273L43.1143 52.1855L43.116 52.1823L41.3587 51.2273ZM33.3133 59.2273L34.2537 60.9924L34.2597 60.9892L33.3133 59.2273ZM15.7451 51.2727H13.7451V53.2727H15.7451V51.2727ZM26.4497 50.1591L25.6233 48.3378L25.6169 48.3407L26.4497 50.1591ZM30.1769 46.3182L28.3703 45.46L28.3646 45.4724L30.1769 46.3182ZM30.1542 31.1364L28.3476 31.9945L28.3535 32.0067L30.1542 31.1364ZM26.336 27.2955L25.5222 29.1224L25.5283 29.1251L26.336 27.2955ZM15.7451 26.1818V24.1818H13.7451V26.1818H15.7451ZM21.0178 60H3.10875V64H21.0178V60ZM5.10875 62V15.4545H1.10875V62H5.10875ZM3.10875 17.4545H20.836V13.4545H3.10875V17.4545ZM20.836 17.4545C25.3639 17.4545 29.1626 18.3348 32.3019 20.0136L34.1883 16.4864C30.358 14.438 25.8839 13.4545 20.836 13.4545V17.4545ZM32.3111 20.0185C35.4618 21.6825 37.8727 24.0658 39.5788 27.205L43.0933 25.295C41.0115 21.4645 38.0285 18.5145 34.1791 16.4815L32.3111 20.0185ZM39.5838 27.2141C41.2977 30.3291 42.1997 34.141 42.1997 38.7273H46.1997C46.1997 33.6166 45.1925 29.1103 43.0883 25.2859L39.5838 27.2141ZM42.1997 38.7273C42.1997 43.3156 41.3044 47.1389 39.6015 50.2722L43.116 52.1823C45.201 48.3459 46.1997 43.8359 46.1997 38.7273H42.1997ZM39.6033 50.269C37.8946 53.3993 35.4933 55.7861 32.3669 57.4653L34.2597 60.9892C38.0727 58.9412 41.035 55.9946 43.1142 52.1855L39.6033 50.269ZM32.3729 57.4621C29.2458 59.1281 25.4831 60 21.0178 60V64C26.0071 64 30.4414 63.0234 34.2537 60.9924L32.3729 57.4621ZM15.7451 53.2727H20.5633V49.2727H15.7451V53.2727ZM20.5633 53.2727C23.0732 53.2727 25.3354 52.8691 27.2824 51.9775L25.6169 48.3407C24.3215 48.9339 22.6594 49.2727 20.5633 49.2727V53.2727ZM27.276 51.9804C29.3981 51.0176 30.9642 49.3606 31.9893 47.164L28.3646 45.4724C27.6927 46.9121 26.7739 47.8158 25.6233 48.3378L27.276 51.9804ZM31.9835 47.1763C33.029 44.9751 33.4724 42.1057 33.4724 38.7273H29.4724C29.4724 41.8337 29.0521 44.0249 28.3704 45.4601L31.9835 47.1763ZM33.4724 38.7273C33.4724 35.3457 33.0208 32.4713 31.9549 30.266L28.3535 32.0067C29.0452 33.4378 29.4724 35.624 29.4724 38.7273H33.4724ZM31.9608 30.2782C30.9124 28.0712 29.307 26.4208 27.1437 25.4658L25.5283 29.1251C26.7287 29.655 27.6687 30.5652 28.3477 31.9945L31.9608 30.2782ZM27.1498 25.4685C25.1576 24.5811 22.8167 24.1818 20.1997 24.1818V28.1818C22.4311 28.1818 24.1811 28.525 25.5222 29.1224L27.1498 25.4685ZM20.1997 24.1818H15.7451V28.1818H20.1997V24.1818ZM13.7451 26.1818V51.2727H17.7451V26.1818H13.7451ZM94.6744 51.8409L96.4132 52.8292L96.415 52.826L94.6744 51.8409ZM86.5153 59.9091L87.4533 61.6755L87.4594 61.6723L86.5153 59.9091ZM63.5608 59.8864L62.6075 61.6446L62.6168 61.6496L63.5608 59.8864ZM55.4244 51.7955L53.6807 52.7749L53.6857 52.7837L55.4244 51.7955ZM55.4244 25.6364L53.6839 24.6513L53.6825 24.6537L55.4244 25.6364ZM63.5608 17.5682L64.502 19.3329L64.5048 19.3314L63.5608 17.5682ZM86.5153 17.5682L85.5713 19.3314L85.5774 19.3346L86.5153 17.5682ZM94.6744 25.6364L92.9339 26.6215L92.9357 26.6246L94.6744 25.6364ZM83.5835 31.6818L81.7127 32.3889L81.7161 32.3978L81.7195 32.4067L83.5835 31.6818ZM80.3335 27.3182L79.1843 28.955L79.1942 28.962L79.2042 28.9688L80.3335 27.3182ZM69.7653 27.3182L70.9029 28.9632L70.9065 28.9607L69.7653 27.3182ZM66.5153 31.6818L64.6494 30.9619L64.6464 30.9698L66.5153 31.6818ZM66.5153 45.7955L64.6445 46.5025L64.6479 46.5115L64.6513 46.5203L66.5153 45.7955ZM69.7653 50.1591L68.6161 51.7959L68.626 51.8029L68.636 51.8097L69.7653 50.1591ZM80.3335 50.1591L81.471 51.8041L81.4746 51.8016L80.3335 50.1591ZM83.5835 45.7955L81.7176 45.0755L81.7145 45.0835L83.5835 45.7955ZM95.6972 38.7273C95.6972 43.6542 94.7394 47.6656 92.9339 50.8558L96.415 52.826C98.6398 48.895 99.6972 44.164 99.6972 38.7273H95.6972ZM92.9357 50.8526C91.0972 54.0872 88.6458 56.4998 85.5713 58.1459L87.4594 61.6723C91.2333 59.6517 94.2213 56.6856 96.4132 52.8292L92.9357 50.8526ZM85.5774 58.1427C82.4665 59.7945 78.9748 60.6364 75.0608 60.6364V64.6364C79.571 64.6364 83.7157 63.6601 87.4533 61.6755L85.5774 58.1427ZM75.0608 60.6364C71.1167 60.6364 67.6125 59.787 64.5048 58.1232L62.6168 61.6496C66.3576 63.6524 70.5201 64.6364 75.0608 64.6364V60.6364ZM64.5141 58.1282C61.451 56.4673 59.0036 54.0452 57.1632 50.8072L53.6857 52.7837C55.8756 56.6366 58.8524 59.6085 62.6075 61.6445L64.5141 58.1282ZM57.1682 50.816C55.3746 47.6229 54.4244 43.6239 54.4244 38.7273H50.4244C50.4244 44.1337 51.4742 48.8468 53.6807 52.7749L57.1682 50.816ZM54.4244 38.7273C54.4244 33.7976 55.3757 29.7934 57.1664 26.619L53.6825 24.6537C51.4732 28.5702 50.4244 33.2933 50.4244 38.7273H54.4244ZM57.165 26.6215C59.0047 23.3709 61.4481 20.9616 64.502 19.3329L62.6196 15.8035C58.8554 17.8111 55.8745 20.7806 53.6839 24.6513L57.165 26.6215ZM64.5048 19.3314C67.6125 17.6675 71.1167 16.8182 75.0608 16.8182V12.8182C70.5201 12.8182 66.3576 13.8022 62.6168 15.805L64.5048 19.3314ZM75.0608 16.8182C78.9721 16.8182 82.4616 17.6664 85.5713 19.3314L87.4594 15.805C83.7206 13.8033 79.5738 12.8182 75.0608 12.8182V16.8182ZM85.5774 19.3346C88.6462 20.964 91.0955 23.3732 92.9339 26.6215L96.415 24.6513C94.2231 20.7783 91.233 17.8087 87.4533 15.8017L85.5774 19.3346ZM92.9357 26.6246C94.7392 29.7978 95.6972 33.7999 95.6972 38.7273H99.6972C99.6972 33.291 98.6399 28.5658 96.4132 24.6481L92.9357 26.6246ZM86.6972 38.7273C86.6972 35.7752 86.3059 33.1641 85.4475 30.9569L81.7195 32.4067C82.346 34.0177 82.6972 36.1036 82.6972 38.7273H86.6972ZM85.4544 30.9747C84.609 28.738 83.2975 26.9228 81.4629 25.6676L79.2042 28.9688C80.2484 29.6833 81.1035 30.7772 81.7127 32.3889L85.4544 30.9747ZM81.4828 25.6814C79.6588 24.4007 77.4785 23.8182 75.0608 23.8182V27.8182C76.8249 27.8182 78.1598 28.2357 79.1843 28.955L81.4828 25.6814ZM75.0608 23.8182C72.6424 23.8182 70.4591 24.4009 68.6242 25.6757L70.9065 28.9607C71.9504 28.2354 73.2974 27.8182 75.0608 27.8182V23.8182ZM68.6278 25.6732C66.8145 26.9271 65.5082 28.7361 64.6494 30.9619L68.3813 32.4017C69.0074 30.779 69.8677 29.679 70.9029 28.9632L68.6278 25.6732ZM64.6464 30.9698C63.8072 33.1726 63.4244 35.7789 63.4244 38.7273H67.4244C67.4244 36.0999 67.7689 34.0092 68.3843 32.3938L64.6464 30.9698ZM63.4244 38.7273C63.4244 41.6764 63.8074 44.2878 64.6445 46.5025L68.3862 45.0884C67.7687 43.4547 67.4244 41.3539 67.4244 38.7273H63.4244ZM64.6513 46.5203C65.511 48.7308 66.815 50.5313 68.6161 51.7959L70.9146 48.5223C69.8672 47.7869 69.0046 46.6783 68.3794 45.0706L64.6513 46.5203ZM68.636 51.8097C70.4695 53.0642 72.6484 53.6364 75.0608 53.6364V49.6364C73.2913 49.6364 71.9399 49.2236 70.8947 48.5085L68.636 51.8097ZM75.0608 53.6364C77.4724 53.6364 79.6483 53.0645 81.471 51.8041L79.196 48.5141C78.1703 49.2234 76.831 49.6364 75.0608 49.6364V53.6364ZM81.4746 51.8016C83.2969 50.5356 84.6062 48.7289 85.4525 46.5074L81.7145 45.0835C81.1063 46.6802 80.2489 47.7826 79.1924 48.5166L81.4746 51.8016ZM85.4495 46.5154C86.3056 44.2963 86.6972 41.6802 86.6972 38.7273H82.6972C82.6972 41.3501 82.3463 43.4461 81.7176 45.0755L85.4495 46.5154ZM106.104 62H104.104V64H106.104V62ZM106.104 15.4545V13.4545H104.104V15.4545H106.104ZM118.74 15.4545H120.74V13.4545H118.74V15.4545ZM118.74 51.8182H116.74V53.8182H118.74V51.8182ZM137.558 51.8182H139.558V49.8182H137.558V51.8182ZM137.558 62V64H139.558V62H137.558ZM108.104 62V15.4545H104.104V62H108.104ZM106.104 17.4545H118.74V13.4545H106.104V17.4545ZM116.74 15.4545V51.8182H120.74V15.4545H116.74ZM118.74 53.8182H137.558V49.8182H118.74V53.8182ZM135.558 51.8182V62H139.558V51.8182H135.558ZM137.558 60H106.104V64H137.558V60ZM185.482 51.8409L187.221 52.8292L187.222 52.826L185.482 51.8409ZM177.323 59.9091L178.261 61.6755L178.267 61.6723L177.323 59.9091ZM154.368 59.8864L153.415 61.6446L153.424 61.6496L154.368 59.8864ZM146.232 51.7955L144.488 52.7749L144.493 52.7837L146.232 51.7955ZM146.232 25.6364L144.491 24.6513L144.49 24.6537L146.232 25.6364ZM154.368 17.5682L155.309 19.3329L155.312 19.3314L154.368 17.5682ZM177.323 17.5682L176.379 19.3314L176.385 19.3346L177.323 17.5682ZM185.482 25.6364L183.741 26.6215L183.743 26.6246L185.482 25.6364ZM174.391 31.6818L172.52 32.3889L172.524 32.3978L172.527 32.4067L174.391 31.6818ZM171.141 27.3182L169.992 28.955L170.002 28.962L170.012 28.9688L171.141 27.3182ZM160.573 27.3182L161.71 28.9632L161.714 28.9607L160.573 27.3182ZM157.323 31.6818L155.457 30.9619L155.454 30.9698L157.323 31.6818ZM157.323 45.7955L155.452 46.5025L155.455 46.5115L155.459 46.5203L157.323 45.7955ZM160.573 50.1591L159.424 51.7959L159.433 51.8029L159.443 51.8097L160.573 50.1591ZM171.141 50.1591L172.279 51.8041L172.282 51.8016L171.141 50.1591ZM174.391 45.7955L172.525 45.0755L172.522 45.0835L174.391 45.7955ZM186.505 38.7273C186.505 43.6542 185.547 47.6656 183.741 50.8558L187.222 52.826C189.447 48.895 190.505 44.164 190.505 38.7273H186.505ZM183.743 50.8526C181.905 54.0872 179.453 56.4998 176.379 58.1459L178.267 61.6723C182.041 59.6517 185.029 56.6856 187.221 52.8292L183.743 50.8526ZM176.385 58.1427C173.274 59.7945 169.782 60.6364 165.868 60.6364V64.6364C170.379 64.6364 174.523 63.6601 178.261 61.6755L176.385 58.1427ZM165.868 60.6364C161.924 60.6364 158.42 59.787 155.312 58.1232L153.424 61.6496C157.165 63.6524 161.328 64.6364 165.868 64.6364V60.6364ZM155.322 58.1282C152.258 56.4673 149.811 54.0452 147.971 50.8072L144.493 52.7837C146.683 56.6366 149.66 59.6085 153.415 61.6445L155.322 58.1282ZM147.976 50.816C146.182 47.6229 145.232 43.6239 145.232 38.7273H141.232C141.232 44.1337 142.282 48.8468 144.488 52.7749L147.976 50.816ZM145.232 38.7273C145.232 33.7976 146.183 29.7934 147.974 26.619L144.49 24.6537C142.281 28.5702 141.232 33.2933 141.232 38.7273H145.232ZM147.972 26.6215C149.812 23.3709 152.256 20.9616 155.309 19.3329L153.427 15.8035C149.663 17.8111 146.682 20.7806 144.491 24.6513L147.972 26.6215ZM155.312 19.3314C158.42 17.6675 161.924 16.8182 165.868 16.8182V12.8182C161.328 12.8182 157.165 13.8022 153.424 15.805L155.312 19.3314ZM165.868 16.8182C169.78 16.8182 173.269 17.6664 176.379 19.3314L178.267 15.805C174.528 13.8033 170.381 12.8182 165.868 12.8182V16.8182ZM176.385 19.3346C179.454 20.964 181.903 23.3732 183.741 26.6215L187.222 24.6513C185.031 20.7783 182.041 17.8087 178.261 15.8017L176.385 19.3346ZM183.743 26.6246C185.547 29.7978 186.505 33.7999 186.505 38.7273H190.505C190.505 33.291 189.447 28.5658 187.221 24.6481L183.743 26.6246ZM177.505 38.7273C177.505 35.7752 177.113 33.1641 176.255 30.9569L172.527 32.4067C173.154 34.0177 173.505 36.1036 173.505 38.7273H177.505ZM176.262 30.9747C175.416 28.738 174.105 26.9228 172.27 25.6676L170.012 28.9688C171.056 29.6833 171.911 30.7772 172.52 32.3889L176.262 30.9747ZM172.29 25.6814C170.466 24.4007 168.286 23.8182 165.868 23.8182V27.8182C167.632 27.8182 168.967 28.2357 169.992 28.955L172.29 25.6814ZM165.868 23.8182C163.45 23.8182 161.267 24.4009 159.432 25.6757L161.714 28.9607C162.758 28.2354 164.105 27.8182 165.868 27.8182V23.8182ZM159.435 25.6732C157.622 26.9271 156.316 28.7361 155.457 30.9619L159.189 32.4017C159.815 30.779 160.675 29.679 161.71 28.9632L159.435 25.6732ZM155.454 30.9698C154.615 33.1726 154.232 35.7789 154.232 38.7273H158.232C158.232 36.0999 158.576 34.0092 159.192 32.3938L155.454 30.9698ZM154.232 38.7273C154.232 41.6764 154.615 44.2878 155.452 46.5025L159.194 45.0884C158.576 43.4547 158.232 41.3539 158.232 38.7273H154.232ZM155.459 46.5203C156.318 48.7308 157.622 50.5313 159.424 51.7959L161.722 48.5223C160.675 47.7869 159.812 46.6783 159.187 45.0706L155.459 46.5203ZM159.443 51.8097C161.277 53.0642 163.456 53.6364 165.868 53.6364V49.6364C164.099 49.6364 162.747 49.2236 161.702 48.5085L159.443 51.8097ZM165.868 53.6364C168.28 53.6364 170.456 53.0645 172.279 51.8041L170.004 48.5141C168.978 49.2234 167.639 49.6364 165.868 49.6364V53.6364ZM172.282 51.8016C174.104 50.5356 175.414 48.7289 176.26 46.5074L172.522 45.0835C171.914 46.6802 171.056 47.7826 170 48.5166L172.282 51.8016ZM176.257 46.5154C177.113 44.2963 177.505 41.6802 177.505 38.7273H173.505C173.505 41.3501 173.154 43.4461 172.525 45.0755L176.257 46.5154ZM196.911 62H194.911V64H196.911V62ZM196.911 15.4545V13.4545H194.911V15.4545H196.911ZM226.07 17.3409L225.197 19.1402L226.07 17.3409ZM232.116 22.7727L233.824 21.7325L233.824 21.7325L232.116 22.7727ZM232.048 39.7045L230.37 38.6157L230.365 38.6236L232.048 39.7045ZM225.843 44.8864L225.041 43.054L225.038 43.0557L225.843 44.8864ZM204.548 46.6364H202.548V48.6364H204.548V46.6364ZM204.548 36.8182V34.8182H202.548V36.8182H204.548ZM217.798 36.2727L218.455 38.1617L218.462 38.159L218.47 38.1562L217.798 36.2727ZM220.229 34.4773L218.594 33.3263L218.587 33.3365L218.58 33.3468L220.229 34.4773ZM220.229 28.0227L218.561 29.1252L218.572 29.1425L218.584 29.1596L220.229 28.0227ZM217.798 26.1591L217.069 28.0216L217.085 28.0279L217.101 28.0339L217.798 26.1591ZM209.548 25.5455V23.5455H207.548V25.5455H209.548ZM209.548 62V64H211.548V62H209.548ZM224.184 40.6364L225.94 39.6797L225.372 38.6364H224.184V40.6364ZM235.82 62V64H239.187L237.577 61.0433L235.82 62ZM222.093 62L220.327 62.9392L220.892 64H222.093V62ZM210.729 40.6364V38.6364H207.4L208.964 41.5756L210.729 40.6364ZM198.911 62V15.4545H194.911V62H198.911ZM196.911 17.4545H217.002V13.4545H196.911V17.4545ZM217.002 17.4545C220.214 17.4545 222.927 18.0385 225.197 19.1402L226.944 15.5417C224.032 14.1282 220.7 13.4545 217.002 13.4545V17.4545ZM225.197 19.1402C227.457 20.2373 229.176 21.791 230.408 23.813L233.824 21.7325C232.177 19.0272 229.865 16.9597 226.944 15.5417L225.197 19.1402ZM230.408 23.813C231.622 25.8072 232.275 28.2651 232.275 31.2727H236.275C236.275 27.6743 235.488 24.4655 233.824 21.7325L230.408 23.813ZM232.275 31.2727C232.275 34.306 231.602 36.7176 230.37 38.6157L233.725 40.7933C235.463 38.1157 236.275 34.9061 236.275 31.2727H232.275ZM230.365 38.6236C229.124 40.5559 227.373 42.0338 225.041 43.054L226.645 46.7187C229.646 45.4056 232.032 43.4289 233.73 40.7855L230.365 38.6236ZM225.038 43.0557C222.69 44.0886 219.876 44.6364 216.548 44.6364V48.6364C220.31 48.6364 223.693 48.0174 226.649 46.717L225.038 43.0557ZM216.548 44.6364H204.548V48.6364H216.548V44.6364ZM206.548 46.6364V36.8182H202.548V46.6364H206.548ZM204.548 38.8182H214.002V34.8182H204.548V38.8182ZM214.002 38.8182C215.639 38.8182 217.14 38.6191 218.455 38.1617L217.141 34.3837C216.365 34.6536 215.335 34.8182 214.002 34.8182V38.8182ZM218.47 38.1562C219.872 37.6557 221.049 36.8197 221.879 35.6077L218.58 33.3468C218.289 33.7712 217.845 34.1322 217.125 34.3892L218.47 38.1562ZM221.865 35.6283C222.743 34.3808 223.093 32.8734 223.093 31.2727H219.093C219.093 32.3084 218.867 32.9374 218.594 33.3263L221.865 35.6283ZM223.093 31.2727C223.093 29.6602 222.744 28.1445 221.875 26.8859L218.584 29.1596C218.866 29.5676 219.093 30.2186 219.093 31.2727H223.093ZM221.898 26.9202C221.077 25.678 219.905 24.8085 218.494 24.2842L217.101 28.0339C217.811 28.2976 218.26 28.6705 218.561 29.1252L221.898 26.9202ZM218.526 24.2966C217.187 23.7725 215.66 23.5455 214.002 23.5455V27.5455C215.314 27.5455 216.317 27.7275 217.069 28.0216L218.526 24.2966ZM214.002 23.5455H209.548V27.5455H214.002V23.5455ZM207.548 25.5455V62H211.548V25.5455H207.548ZM209.548 60H196.911V64H209.548V60ZM222.428 41.593L234.064 62.9567L237.577 61.0433L225.94 39.6797L222.428 41.593ZM235.82 60H222.093V64H235.82V60ZM223.859 61.0608L212.495 39.6971L208.964 41.5756L220.327 62.9392L223.859 61.0608ZM210.729 42.6364H224.184V38.6364H210.729V42.6364ZM282.622 30L280.629 30.1595L280.776 32H282.622V30ZM280.918 26.4545L279.624 27.9796L279.629 27.9844L279.635 27.9891L280.918 26.4545ZM273.145 25.6591L273.84 27.5346L273.849 27.5311L273.858 27.5275L273.145 25.6591ZM271.327 26.9091L269.721 25.7164L269.721 25.7164L271.327 26.9091ZM270.713 28.7273L272.71 28.8352L272.712 28.8035L272.713 28.7717L270.713 28.7273ZM271.009 30.25L269.22 31.1444L269.238 31.1807L269.257 31.2162L271.009 30.25ZM272.145 31.4545L270.992 33.0885L271.008 33.1L271.024 33.1111L272.145 31.4545ZM276.986 33.1818L277.405 31.2262L277.397 31.2244L277.388 31.2227L276.986 33.1818ZM280.804 34L280.385 35.9556L280.39 35.9566L280.804 34ZM287.418 36.1591L286.541 37.9568L287.418 36.1591ZM291.918 39.3182L290.477 40.7051L290.485 40.7142L291.918 39.3182ZM294.486 43.3636L292.606 44.0471L292.609 44.0555L292.612 44.0638L294.486 43.3636ZM295.349 48.2727L297.349 48.2826L297.349 48.2691L297.349 48.2556L295.349 48.2727ZM293.054 56.0455L294.681 57.2079L294.681 57.2079L293.054 56.0455ZM286.554 60.8864L285.823 59.0246L285.82 59.026L286.554 60.8864ZM265.849 60.75L265.108 62.6076L265.111 62.6089L265.849 60.75ZM258.849 55.2273L257.181 56.3297L257.188 56.3413L258.849 55.2273ZM256.349 45.6364V43.6364H254.342L254.349 45.6441L256.349 45.6364ZM268.349 45.6364L270.347 45.5301L270.246 43.6364H268.349V45.6364ZM269.418 49.2273L267.746 50.3246L267.746 50.3246L269.418 49.2273ZM272.099 51.4318L271.303 53.2664L271.312 53.2701L272.099 51.4318ZM279.645 51.6818L280.333 53.5596L280.333 53.5596L279.645 51.6818ZM281.713 50.2955L283.279 51.5399L283.279 51.5399L281.713 50.2955ZM282.44 48.2727L284.44 48.3127L284.441 48.2715L284.44 48.2302L282.44 48.2727ZM281.736 46.4091L280.178 47.6637L280.197 47.6875L280.217 47.7107L281.736 46.4091ZM279.554 44.9545L278.76 46.79L278.771 46.795L278.783 46.7999L279.554 44.9545ZM275.44 43.7273L275.869 41.7737L275.862 41.7722L275.44 43.7273ZM270.804 42.7273L270.38 44.6818L270.382 44.6823L270.804 42.7273ZM261.054 38.25L259.723 39.7433L259.734 39.7522L261.054 38.25ZM257.531 29.6364L259.531 29.6447L259.531 29.6354L259.531 29.6261L257.531 29.6364ZM259.895 21.8864L258.273 20.7166L258.271 20.7186L259.895 21.8864ZM266.554 16.6818L265.754 14.8486L265.751 14.8502L266.554 16.6818ZM286.099 16.7045L285.266 18.5225L285.266 18.5225L286.099 16.7045ZM292.44 22.0227L290.763 23.1115L290.767 23.118L290.771 23.1244L292.44 22.0227ZM294.713 30V32H296.723L296.713 29.99L294.713 30ZM284.616 29.8405C284.459 27.8768 283.69 26.1648 282.2 24.92L279.635 27.9891C280.176 28.4412 280.543 29.0929 280.629 30.1595L284.616 29.8405ZM282.212 24.9295C280.696 23.6434 278.617 23.1818 276.349 23.1818V27.1818C278.173 27.1818 279.139 27.5687 279.624 27.9796L282.212 24.9295ZM276.349 23.1818C274.905 23.1818 273.572 23.3552 272.431 23.7907L273.858 27.5275C274.385 27.3266 275.188 27.1818 276.349 27.1818V23.1818ZM272.45 23.7836C271.383 24.1789 270.41 24.7899 269.721 25.7164L272.932 28.1017C273.032 27.9677 273.27 27.7454 273.84 27.5346L272.45 23.7836ZM269.721 25.7164C269.072 26.5907 268.738 27.601 268.714 28.6828L272.713 28.7717C272.719 28.4899 272.794 28.2881 272.932 28.1017L269.721 25.7164ZM268.716 28.6193C268.669 29.4893 268.821 30.3478 269.22 31.1444L272.797 29.3556C272.741 29.2431 272.697 29.0865 272.71 28.8352L268.716 28.6193ZM269.257 31.2162C269.679 31.9795 270.291 32.5939 270.992 33.0885L273.298 29.8206C272.969 29.5879 272.823 29.3992 272.76 29.2838L269.257 31.2162ZM271.024 33.1111C271.718 33.5807 272.541 33.9667 273.447 34.2918L274.797 30.5264C274.098 30.2757 273.602 30.0254 273.266 29.798L271.024 33.1111ZM273.447 34.2918C274.362 34.6198 275.412 34.9003 276.583 35.1409L277.388 31.2227C276.347 31.0088 275.488 30.7741 274.797 30.5264L273.447 34.2918ZM276.567 35.1374L280.385 35.9556L281.223 32.0444L277.405 31.2262L276.567 35.1374ZM280.39 35.9566C282.849 36.4774 284.89 37.1517 286.541 37.9568L288.294 34.3614C286.278 33.3786 283.91 32.6135 281.218 32.0434L280.39 35.9566ZM286.541 37.9568C288.207 38.7691 289.503 39.6935 290.477 40.7051L293.359 37.9312C291.999 36.5186 290.295 35.337 288.294 34.3614L286.541 37.9568ZM290.485 40.7142C291.464 41.7178 292.162 42.8262 292.606 44.0471L296.365 42.6801C295.718 40.901 294.705 39.3125 293.35 37.9222L290.485 40.7142ZM292.612 44.0638C293.083 45.3231 293.336 46.7255 293.35 48.2898L297.349 48.2556C297.332 46.2745 297.01 44.4042 296.359 42.6635L292.612 44.0638ZM293.349 48.2628C293.336 50.984 292.662 53.1538 291.427 54.883L294.681 57.2079C296.477 54.6947 297.333 51.6827 297.349 48.2826L293.349 48.2628ZM291.427 54.883C290.171 56.641 288.341 58.0366 285.823 59.0246L287.285 62.7481C290.404 61.524 292.907 59.6923 294.681 57.2079L291.427 54.883ZM285.82 59.026C283.31 60.0162 280.202 60.5455 276.44 60.5455V64.5455C280.558 64.5455 284.192 63.9686 287.288 62.7468L285.82 59.026ZM276.44 60.5455C272.587 60.5455 269.318 59.975 266.587 58.8911L265.111 62.6089C268.412 63.919 272.202 64.5455 276.44 64.5455V60.5455ZM266.591 58.8924C263.934 57.8324 261.934 56.2362 260.51 54.1132L257.188 56.3413C259.098 59.188 261.765 61.2737 265.108 62.6076L266.591 58.8924ZM260.518 54.1249C259.137 52.0341 258.364 49.2483 258.349 45.6286L254.349 45.6441C254.366 49.8123 255.259 53.4205 257.181 56.3297L260.518 54.1249ZM256.349 47.6364H268.349V43.6364H256.349V47.6364ZM266.352 45.7426C266.443 47.4395 266.875 48.9982 267.746 50.3246L271.09 48.13C270.687 47.517 270.408 46.6817 270.347 45.5301L266.352 45.7426ZM267.746 50.3246C268.613 51.647 269.825 52.6245 271.303 53.2663L272.896 49.5973C272.071 49.2391 271.495 48.7469 271.09 48.13L267.746 50.3246ZM271.312 53.2701C272.784 53.9011 274.451 54.1818 276.259 54.1818V50.1818C274.854 50.1818 273.748 49.9626 272.887 49.5935L271.312 53.2701ZM276.259 54.1818C277.757 54.1818 279.136 53.9987 280.333 53.5596L278.956 49.8041C278.336 50.0316 277.457 50.1818 276.259 50.1818V54.1818ZM280.333 53.5596C281.491 53.135 282.524 52.4892 283.279 51.5399L280.147 49.051C279.963 49.2835 279.617 49.562 278.956 49.8041L280.333 53.5596ZM283.279 51.5399C284.022 50.6045 284.416 49.5067 284.44 48.3127L280.441 48.2327C280.434 48.5539 280.343 48.8046 280.147 49.051L283.279 51.5399ZM284.44 48.2302C284.415 47.0654 284.016 45.9967 283.254 45.1075L280.217 47.7107C280.364 47.8821 280.435 48.0559 280.441 48.3153L284.44 48.2302ZM283.293 45.1544C282.559 44.2426 281.489 43.5956 280.325 43.1092L278.783 46.7999C279.649 47.162 280.034 47.4847 280.178 47.6637L283.293 45.1544ZM280.348 43.1191C279.167 42.6077 277.657 42.1658 275.869 41.7737L275.012 45.6808C276.679 46.0463 277.911 46.4226 278.76 46.79L280.348 43.1191ZM275.862 41.7722L271.226 40.7722L270.382 44.6823L275.019 45.6823L275.862 41.7722ZM271.228 40.7727C267.333 39.9278 264.427 38.5519 262.374 36.7478L259.734 39.7522C262.439 42.1299 266.033 43.7388 270.38 44.6818L271.228 40.7727ZM262.384 36.7568C260.515 35.0907 259.518 32.8021 259.531 29.6447L255.531 29.628C255.514 33.7434 256.866 37.1972 259.723 39.7432L262.384 36.7568ZM259.531 29.6261C259.518 27.0565 260.195 24.8938 261.519 23.0541L258.271 20.7186C256.412 23.3031 255.514 26.3071 255.531 29.6466L259.531 29.6261ZM261.517 23.0561C262.889 21.154 264.809 19.631 267.357 18.5135L265.751 14.8502C262.633 16.2175 260.113 18.1641 258.273 20.7166L261.517 23.0561ZM267.354 18.515C269.908 17.401 272.893 16.8182 276.349 16.8182V12.8182C272.443 12.8182 268.897 13.4778 265.754 14.8486L267.354 18.515ZM276.349 16.8182C279.888 16.8182 282.841 17.4105 285.266 18.5225L286.933 14.8866C283.873 13.4834 280.326 12.8182 276.349 12.8182V16.8182ZM285.266 18.5225C287.701 19.6393 289.506 21.175 290.763 23.1115L294.118 20.9339C292.405 18.2946 289.982 16.2849 286.933 14.8866L285.266 18.5225ZM290.771 23.1244C292.032 25.0355 292.7 27.3052 292.713 30.01L296.713 29.99C296.696 26.6038 295.848 23.5554 294.11 20.921L290.771 23.1244ZM294.713 28H282.622V32H294.713V28ZM315.353 15.4545H317.353V13.4545H315.353V15.4545ZM315.353 62V64H317.353V62H315.353ZM302.716 62H300.716V64H302.716V62ZM302.716 15.4545V13.4545H300.716V15.4545H302.716ZM313.353 15.4545V62H317.353V15.4545H313.353ZM315.353 60H302.716V64H315.353V60ZM304.716 62V15.4545H300.716V62H304.716ZM302.716 17.4545H315.353V13.4545H302.716V17.4545ZM322.629 25.6364H320.629V27.6364H322.629V25.6364ZM322.629 15.4545V13.4545H320.629V15.4545H322.629ZM363.083 15.4545H365.083V13.4545H363.083V15.4545ZM363.083 25.6364V27.6364H365.083V25.6364H363.083ZM349.083 25.6364V23.6364H347.083V25.6364H349.083ZM349.083 62V64H351.083V62H349.083ZM336.629 62H334.629V64H336.629V62ZM336.629 25.6364H338.629V23.6364H336.629V25.6364ZM324.629 25.6364V15.4545H320.629V25.6364H324.629ZM322.629 17.4545H363.083V13.4545H322.629V17.4545ZM361.083 15.4545V25.6364H365.083V15.4545H361.083ZM363.083 23.6364H349.083V27.6364H363.083V23.6364ZM347.083 25.6364V62H351.083V25.6364H347.083ZM349.083 60H336.629V64H349.083V60ZM338.629 62V25.6364H334.629V62H338.629ZM336.629 23.6364H322.629V27.6364H336.629V23.6364ZM385.709 15.4545V13.4545H383.709V15.4545H385.709ZM401.436 15.4545L403.286 14.6953L402.777 13.4545H401.436V15.4545ZM412.254 41.8182L410.404 42.5774L410.913 43.8182H412.254V41.8182ZM412.8 41.8182V43.8182H414.141L414.65 42.5774L412.8 41.8182ZM423.618 15.4545V13.4545H422.277L421.768 14.6953L423.618 15.4545ZM439.345 15.4545H441.345V13.4545H439.345V15.4545ZM439.345 62V64H441.345V62H439.345ZM426.981 62H424.981V64H426.981V62ZM426.981 35.0909H428.981V33.0909H426.981V35.0909ZM426.618 35.0909V33.0909H425.252L424.755 34.3636L426.618 35.0909ZM416.254 61.6364V63.6364H417.62L418.117 62.3637L416.254 61.6364ZM408.8 61.6364L406.935 62.3594L407.43 63.6364H408.8V61.6364ZM398.436 34.9091L400.301 34.186L399.806 32.9091H398.436V34.9091ZM398.072 34.9091V32.9091H396.072V34.9091H398.072ZM398.072 62V64H400.072V62H398.072ZM385.709 62H383.709V64H385.709V62ZM385.709 17.4545H401.436V13.4545H385.709V17.4545ZM399.586 16.2138L410.404 42.5774L414.104 41.0589L403.286 14.6953L399.586 16.2138ZM412.254 43.8182H412.8V39.8182H412.254V43.8182ZM414.65 42.5774L425.468 16.2138L421.768 14.6953L410.949 41.0589L414.65 42.5774ZM423.618 17.4545H439.345V13.4545H423.618V17.4545ZM437.345 15.4545V62H441.345V15.4545H437.345ZM439.345 60H426.981V64H439.345V60ZM428.981 62V35.0909H424.981V62H428.981ZM426.981 33.0909H426.618V37.0909H426.981V33.0909ZM424.755 34.3636L414.391 60.909L418.117 62.3637L428.481 35.8183L424.755 34.3636ZM416.254 59.6364H408.8V63.6364H416.254V59.6364ZM410.664 60.9133L400.301 34.186L396.571 35.6321L406.935 62.3594L410.664 60.9133ZM398.436 32.9091H398.072V36.9091H398.436V32.9091ZM396.072 34.9091V62H400.072V34.9091H396.072ZM398.072 60H385.709V64H398.072V60ZM387.709 62V15.4545H383.709V62H387.709ZM447.894 62H445.894V64H447.894V62ZM447.894 15.4545V13.4545H445.894V15.4545H447.894ZM481.439 15.4545H483.439V13.4545H481.439V15.4545ZM481.439 25.6364V27.6364H483.439V25.6364H481.439ZM460.53 25.6364V23.6364H458.53V25.6364H460.53ZM460.53 33.6364H458.53V35.6364H460.53V33.6364ZM479.712 33.6364H481.712V31.6364H479.712V33.6364ZM479.712 43.8182V45.8182H481.712V43.8182H479.712ZM460.53 43.8182V41.8182H458.53V43.8182H460.53ZM460.53 51.8182H458.53V53.8182H460.53V51.8182ZM481.348 51.8182H483.348V49.8182H481.348V51.8182ZM481.348 62V64H483.348V62H481.348ZM449.894 62V15.4545H445.894V62H449.894ZM447.894 17.4545H481.439V13.4545H447.894V17.4545ZM479.439 15.4545V25.6364H483.439V15.4545H479.439ZM481.439 23.6364H460.53V27.6364H481.439V23.6364ZM458.53 25.6364V33.6364H462.53V25.6364H458.53ZM460.53 35.6364H479.712V31.6364H460.53V35.6364ZM477.712 33.6364V43.8182H481.712V33.6364H477.712ZM479.712 41.8182H460.53V45.8182H479.712V41.8182ZM458.53 43.8182V51.8182H462.53V43.8182H458.53ZM460.53 53.8182H481.348V49.8182H460.53V53.8182ZM479.348 51.8182V62H483.348V51.8182H479.348ZM481.348 60H447.894V64H481.348V60ZM502.903 15.4545H504.903V13.4545H502.903V15.4545ZM502.903 62V64H504.903V62H502.903ZM490.266 62H488.266V64H490.266V62ZM490.266 15.4545V13.4545H488.266V15.4545H490.266ZM500.903 15.4545V62H504.903V15.4545H500.903ZM502.903 60H490.266V64H502.903V60ZM492.266 62V15.4545H488.266V62H492.266ZM490.266 17.4545H502.903V13.4545H490.266V17.4545Z" fill="white" mask="url(#path-1-outside-1_94_138)"/>
</svg>
