<svg width="19" height="19" viewBox="0 0 19 19" fill="none" xmlns="http://www.w3.org/2000/svg">
<path d="M10.2996 2.31167L14.9704 4.38584C16.3162 4.97959 16.3162 5.96125 14.9704 6.555L10.2996 8.62917C9.76914 8.86667 8.89831 8.86667 8.36789 8.62917L3.69706 6.555C2.35122 5.96125 2.35122 4.97959 3.69706 4.38584L8.36789 2.31167C8.89831 2.07417 9.76914 2.07417 10.2996 2.31167Z" stroke="#292D32" stroke-width="1.5" stroke-linecap="round" stroke-linejoin="round"/>
<path d="M2.375 8.70831C2.375 9.37331 2.87375 10.1412 3.48333 10.4104L8.85875 12.8012C9.27042 12.9833 9.7375 12.9833 10.1413 12.8012L15.5167 10.4104C16.1263 10.1412 16.625 9.37331 16.625 8.70831" stroke="#292D32" stroke-width="1.5" stroke-linecap="round" stroke-linejoin="round"/>
<path d="M2.375 12.6667C2.375 13.4029 2.81042 14.0679 3.48333 14.3688L8.85875 16.7596C9.27042 16.9417 9.7375 16.9417 10.1413 16.7596L15.5167 14.3688C16.1896 14.0679 16.625 13.4029 16.625 12.6667" stroke="#292D32" stroke-width="1.5" stroke-linecap="round" stroke-linejoin="round"/>
</svg>
