<svg width="696" height="116" viewBox="0 0 696 116" fill="none" xmlns="http://www.w3.org/2000/svg">
<mask id="path-1-outside-1_102_58" maskUnits="userSpaceOnUse" x="0" y="18" width="699" height="80" fill="black">
<rect fill="white" y="18" width="699" height="80"/>
<path d="M4.5 23.1818H28.0909L44.3182 62.7273H45.1364L61.3636 23.1818H84.9545V93H66.4091V52.6364H65.8636L50.3182 92.4545H39.1364L23.5909 52.3636H23.0455V93H4.5V23.1818ZM120.572 23.1818V93H101.618V23.1818H120.572ZM137.235 93V23.1818H187.553V38.4545H156.19V50.4545H184.962V65.7273H156.19V77.7273H187.417V93H137.235ZM242.27 45C242.088 42.7273 241.236 40.9545 239.713 39.6818C238.213 38.4091 235.929 37.7727 232.861 37.7727C230.906 37.7727 229.304 38.0114 228.054 38.4886C226.827 38.9432 225.918 39.5682 225.327 40.3636C224.736 41.1591 224.429 42.0682 224.406 43.0909C224.361 43.9318 224.509 44.6932 224.85 45.375C225.213 46.0341 225.781 46.6364 226.554 47.1818C227.327 47.7045 228.316 48.1818 229.52 48.6136C230.725 49.0455 232.156 49.4318 233.816 49.7727L239.543 51C243.406 51.8182 246.713 52.8977 249.463 54.2386C252.213 55.5795 254.463 57.1591 256.213 58.9773C257.963 60.7727 259.247 62.7955 260.066 65.0455C260.906 67.2955 261.338 69.75 261.361 72.4091C261.338 77 260.191 80.8864 257.918 84.0682C255.645 87.25 252.395 89.6705 248.168 91.3295C243.963 92.9886 238.906 93.8182 232.997 93.8182C226.929 93.8182 221.634 92.9205 217.111 91.125C212.611 89.3295 209.111 86.5682 206.611 82.8409C204.134 79.0909 202.884 74.2955 202.861 68.4545H220.861C220.975 70.5909 221.509 72.3864 222.463 73.8409C223.418 75.2955 224.759 76.3977 226.486 77.1477C228.236 77.8977 230.316 78.2727 232.725 78.2727C234.747 78.2727 236.441 78.0227 237.804 77.5227C239.168 77.0227 240.202 76.3295 240.906 75.4432C241.611 74.5568 241.975 73.5455 241.997 72.4091C241.975 71.3409 241.622 70.4091 240.941 69.6136C240.281 68.7955 239.191 68.0682 237.668 67.4318C236.145 66.7727 234.088 66.1591 231.497 65.5909L224.543 64.0909C218.361 62.75 213.486 60.5114 209.918 57.375C206.372 54.2159 204.611 49.9091 204.634 44.4545C204.611 40.0227 205.793 36.1477 208.179 32.8295C210.588 29.4886 213.918 26.8864 218.168 25.0227C222.441 23.1591 227.338 22.2273 232.861 22.2273C238.497 22.2273 243.372 23.1705 247.486 25.0568C251.6 26.9432 254.77 29.6023 256.997 33.0341C259.247 36.4432 260.384 40.4318 260.406 45H242.27ZM276.524 93V82.5L309.524 38.4545H276.66V23.1818H333.66V33.6818L300.66 77.7273H333.524V93H276.524ZM350.587 93V23.1818H369.542V51.4091H370.497L391.497 23.1818H413.587L389.997 54.2727L414.133 93H391.497L375.815 66.8182L369.542 75V93H350.587ZM445.029 93H424.574L447.62 23.1818H473.529L496.574 93H476.12L460.847 42.4091H460.302L445.029 93ZM441.211 65.4545H479.665V79.6364H441.211V65.4545ZM571.388 23.1818V93H555.57L530.342 56.3182H529.933V93H510.979V23.1818H527.07L551.888 59.7273H552.433V23.1818H571.388ZM606.988 23.1818V93H588.034V23.1818H606.988ZM641.788 93H621.333L644.379 23.1818H670.288L693.333 93H672.879L657.606 42.4091H657.06L641.788 93ZM637.969 65.4545H676.424V79.6364H637.969V65.4545Z"/>
</mask>
<path d="M4.5 23.1818V19.1818H0.5V23.1818H4.5ZM28.0909 23.1818L31.7915 21.6633L30.7732 19.1818H28.0909V23.1818ZM44.3182 62.7273L40.6176 64.2458L41.6359 66.7273H44.3182V62.7273ZM45.1364 62.7273V66.7273H47.8187L48.8369 64.2458L45.1364 62.7273ZM61.3636 23.1818V19.1818H58.6813L57.6631 21.6633L61.3636 23.1818ZM84.9545 23.1818H88.9545V19.1818H84.9545V23.1818ZM84.9545 93V97H88.9545V93H84.9545ZM66.4091 93H62.4091V97H66.4091V93ZM66.4091 52.6364H70.4091V48.6364H66.4091V52.6364ZM65.8636 52.6364V48.6364H63.1312L62.1375 51.1817L65.8636 52.6364ZM50.3182 92.4545V96.4545H53.0506L54.0443 93.9093L50.3182 92.4545ZM39.1364 92.4545L35.4069 93.9007L36.3972 96.4545H39.1364V92.4545ZM23.5909 52.3636L27.3204 50.9175L26.3301 48.3636H23.5909V52.3636ZM23.0455 52.3636V48.3636H19.0455V52.3636H23.0455ZM23.0455 93V97H27.0455V93H23.0455ZM4.5 93H0.5V97H4.5V93ZM4.5 27.1818H28.0909V19.1818H4.5V27.1818ZM24.3904 24.7003L40.6176 64.2458L48.0187 61.2088L31.7915 21.6633L24.3904 24.7003ZM44.3182 66.7273H45.1364V58.7273H44.3182V66.7273ZM48.8369 64.2458L65.0642 24.7003L57.6631 21.6633L41.4358 61.2088L48.8369 64.2458ZM61.3636 27.1818H84.9545V19.1818H61.3636V27.1818ZM80.9545 23.1818V93H88.9545V23.1818H80.9545ZM84.9545 89H66.4091V97H84.9545V89ZM70.4091 93V52.6364H62.4091V93H70.4091ZM66.4091 48.6364H65.8636V56.6364H66.4091V48.6364ZM62.1375 51.1817L46.5921 90.9998L54.0443 93.9093L69.5897 54.0911L62.1375 51.1817ZM50.3182 88.4545H39.1364V96.4545H50.3182V88.4545ZM42.8658 91.0084L27.3204 50.9175L19.8615 53.8097L35.4069 93.9007L42.8658 91.0084ZM23.5909 48.3636H23.0455V56.3636H23.5909V48.3636ZM19.0455 52.3636V93H27.0455V52.3636H19.0455ZM23.0455 89H4.5V97H23.0455V89ZM8.5 93V23.1818H0.5V93H8.5ZM120.572 23.1818H124.572V19.1818H120.572V23.1818ZM120.572 93V97H124.572V93H120.572ZM101.618 93H97.6175V97H101.618V93ZM101.618 23.1818V19.1818H97.6175V23.1818H101.618ZM116.572 23.1818V93H124.572V23.1818H116.572ZM120.572 89H101.618V97H120.572V89ZM105.618 93V23.1818H97.6175V93H105.618ZM101.618 27.1818H120.572V19.1818H101.618V27.1818ZM137.235 93H133.235V97H137.235V93ZM137.235 23.1818V19.1818H133.235V23.1818H137.235ZM187.553 23.1818H191.553V19.1818H187.553V23.1818ZM187.553 38.4545V42.4545H191.553V38.4545H187.553ZM156.19 38.4545V34.4545H152.19V38.4545H156.19ZM156.19 50.4545H152.19V54.4545H156.19V50.4545ZM184.962 50.4545H188.962V46.4545H184.962V50.4545ZM184.962 65.7273V69.7273H188.962V65.7273H184.962ZM156.19 65.7273V61.7273H152.19V65.7273H156.19ZM156.19 77.7273H152.19V81.7273H156.19V77.7273ZM187.417 77.7273H191.417V73.7273H187.417V77.7273ZM187.417 93V97H191.417V93H187.417ZM141.235 93V23.1818H133.235V93H141.235ZM137.235 27.1818H187.553V19.1818H137.235V27.1818ZM183.553 23.1818V38.4545H191.553V23.1818H183.553ZM187.553 34.4545H156.19V42.4545H187.553V34.4545ZM152.19 38.4545V50.4545H160.19V38.4545H152.19ZM156.19 54.4545H184.962V46.4545H156.19V54.4545ZM180.962 50.4545V65.7273H188.962V50.4545H180.962ZM184.962 61.7273H156.19V69.7273H184.962V61.7273ZM152.19 65.7273V77.7273H160.19V65.7273H152.19ZM156.19 81.7273H187.417V73.7273H156.19V81.7273ZM183.417 77.7273V93H191.417V77.7273H183.417ZM187.417 89H137.235V97H187.417V89ZM242.27 45L238.283 45.319L238.577 49H242.27V45ZM239.713 39.6818L237.125 42.7319L237.137 42.7414L237.148 42.7509L239.713 39.6818ZM228.054 38.4886L229.443 42.2396L229.462 42.2327L229.481 42.2255L228.054 38.4886ZM225.327 40.3636L222.116 37.9783L222.116 37.9783L225.327 40.3636ZM224.406 43.0909L228.401 43.3068L228.404 43.2433L228.405 43.1798L224.406 43.0909ZM224.85 45.375L221.272 47.1639L221.308 47.2363L221.347 47.3073L224.85 45.375ZM226.554 47.1818L224.247 50.4497L224.28 50.4726L224.313 50.4949L226.554 47.1818ZM233.816 49.7727L234.654 45.8615L234.637 45.858L234.621 45.8546L233.816 49.7727ZM239.543 51L238.705 54.9112L238.714 54.9132L239.543 51ZM256.213 58.9773L253.331 61.7511L253.34 61.7602L253.349 61.7692L256.213 58.9773ZM260.066 65.0455L256.306 66.4124L256.312 66.4291L256.319 66.4458L260.066 65.0455ZM261.361 72.4091L265.361 72.4289L265.361 72.4019L265.361 72.3749L261.361 72.4091ZM257.918 84.0682L261.173 86.3931L261.173 86.3931L257.918 84.0682ZM248.168 91.3295L246.706 87.606L246.7 87.6087L248.168 91.3295ZM217.111 91.125L215.629 94.8402L215.635 94.8428L217.111 91.125ZM206.611 82.8409L203.274 85.0457L203.281 85.0574L203.289 85.069L206.611 82.8409ZM202.861 68.4545V64.4545H198.845L198.861 68.4701L202.861 68.4545ZM220.861 68.4545L224.855 68.2421L224.654 64.4545H220.861V68.4545ZM222.463 73.8409L219.119 76.0355L219.119 76.0355L222.463 73.8409ZM226.486 77.1477L224.893 80.8168L224.902 80.8206L224.91 80.8243L226.486 77.1477ZM237.804 77.5227L239.181 81.2782L239.181 81.2782L237.804 77.5227ZM240.906 75.4432L244.038 77.9322L244.038 77.9322L240.906 75.4432ZM241.997 72.4091L245.997 72.4891L245.998 72.4065L245.996 72.324L241.997 72.4091ZM240.941 69.6136L237.826 72.123L237.864 72.1705L237.904 72.2168L240.941 69.6136ZM237.668 67.4318L236.079 71.1027L236.102 71.1127L236.125 71.1225L237.668 67.4318ZM231.497 65.5909L232.354 61.6837L232.341 61.6808L231.497 65.5909ZM224.543 64.0909L223.695 68L223.699 68.001L224.543 64.0909ZM209.918 57.375L207.257 60.3615L207.267 60.3705L207.277 60.3794L209.918 57.375ZM204.634 44.4545L208.634 44.4712L208.634 44.4526L208.634 44.434L204.634 44.4545ZM208.179 32.8295L204.935 30.49L204.932 30.4941L208.179 32.8295ZM218.168 25.0227L216.569 21.3563L216.561 21.3594L218.168 25.0227ZM247.486 25.0568L245.819 28.6928L245.819 28.6928L247.486 25.0568ZM256.997 33.0341L253.642 35.2117L253.65 35.2246L253.659 35.2375L256.997 33.0341ZM260.406 45V49H264.426L264.406 44.9801L260.406 45ZM246.257 44.681C246.004 41.5112 244.75 38.6782 242.279 36.6127L237.148 42.7509C237.722 43.2309 238.173 43.9433 238.283 45.319L246.257 44.681ZM242.301 36.6318C239.77 34.4838 236.373 33.7727 232.861 33.7727V41.7727C235.485 41.7727 236.657 42.3344 237.125 42.7319L242.301 36.6318ZM232.861 33.7727C230.623 33.7727 228.491 34.04 226.627 34.7518L229.481 42.2255C230.117 41.9827 231.189 41.7727 232.861 41.7727V33.7727ZM226.665 34.7376C224.94 35.3767 223.296 36.3904 222.116 37.9783L228.538 42.7489C228.54 42.746 228.714 42.5097 229.443 42.2396L226.665 34.7376ZM222.116 37.9783C221.014 39.4617 220.448 41.1793 220.407 43.002L228.405 43.1798C228.41 42.9571 228.458 42.8564 228.538 42.7489L222.116 37.9783ZM220.412 42.875C220.333 44.3346 220.589 45.7978 221.272 47.1639L228.427 43.5861C228.422 43.5758 228.416 43.5611 228.41 43.5307C228.404 43.4982 228.394 43.4276 228.401 43.3068L220.412 42.875ZM221.347 47.3073C222.068 48.6144 223.104 49.6424 224.247 50.4497L228.861 43.9139C228.459 43.6304 228.358 43.4538 228.352 43.4427L221.347 47.3073ZM224.313 50.4949C225.444 51.2599 226.758 51.8729 228.17 52.379L230.87 44.8483C229.873 44.4907 229.21 44.1492 228.795 43.8687L224.313 50.4949ZM228.17 52.379C229.599 52.8911 231.222 53.3233 233.01 53.6909L234.621 45.8546C233.091 45.5403 231.851 45.1998 230.87 44.8483L228.17 52.379ZM232.977 53.6839L238.705 54.9112L240.381 47.0888L234.654 45.8615L232.977 53.6839ZM238.714 54.9132C242.345 55.6821 245.325 56.6709 247.71 57.834L251.216 50.6433C248.102 49.1245 244.468 47.9542 240.372 47.0868L238.714 54.9132ZM247.71 57.834C250.125 59.0117 251.967 60.334 253.331 61.7511L259.095 56.2034C256.959 53.9841 254.301 52.1474 251.216 50.6433L247.71 57.834ZM253.349 61.7692C254.722 63.1781 255.691 64.7206 256.306 66.4124L263.825 63.6785C262.804 60.8703 261.205 58.3674 259.078 56.1853L253.349 61.7692ZM256.319 66.4458C256.98 68.2144 257.342 70.2011 257.361 72.4433L265.361 72.3749C265.335 69.2989 264.833 66.3766 263.812 63.6451L256.319 66.4458ZM257.361 72.3893C257.342 76.3013 256.376 79.3455 254.663 81.7432L261.173 86.3931C264.006 82.4272 265.335 77.6987 265.361 72.4289L257.361 72.3893ZM254.663 81.7432C252.909 84.1987 250.332 86.1831 246.706 87.6061L249.629 95.053C254.458 93.1578 258.381 90.3013 261.173 86.3931L254.663 81.7432ZM246.7 87.6087C243.082 89.0363 238.55 89.8182 232.997 89.8182V97.8182C239.262 97.8182 244.845 96.941 249.636 95.0503L246.7 87.6087ZM232.997 89.8182C227.314 89.8182 222.54 88.9764 218.587 87.4072L215.635 94.8428C220.728 96.8645 226.544 97.8182 232.997 97.8182V89.8182ZM218.593 87.4098C214.78 85.8883 211.948 83.6164 209.933 80.6128L203.289 85.069C206.274 89.52 210.442 92.7708 215.629 94.8402L218.593 87.4098ZM209.949 80.6361C208.012 77.7045 206.882 73.7315 206.861 68.439L198.861 68.4701C198.886 74.8594 200.256 80.4773 203.274 85.0457L209.949 80.6361ZM202.861 72.4545H220.861V64.4545H202.861V72.4545ZM216.867 68.667C217.009 71.3486 217.696 73.8676 219.119 76.0355L225.807 71.6463C225.321 70.9052 224.94 69.8332 224.855 68.2421L216.867 68.667ZM219.119 76.0355C220.537 78.1955 222.512 79.7831 224.893 80.8168L228.079 73.4787C227.005 73.0124 226.299 72.3954 225.807 71.6463L219.119 76.0355ZM224.91 80.8243C227.271 81.8362 229.912 82.2727 232.725 82.2727V74.2727C230.719 74.2727 229.201 73.9592 228.062 73.4711L224.91 80.8243ZM232.725 82.2727C235.046 82.2727 237.241 81.9898 239.181 81.2782L236.427 73.7672C235.641 74.0556 234.448 74.2727 232.725 74.2727V82.2727ZM239.181 81.2782C241.043 80.5957 242.763 79.5353 244.038 77.9322L237.775 72.9542C237.64 73.1238 237.293 73.4498 236.427 73.7672L239.181 81.2782ZM244.038 77.9322C245.29 76.3567 245.956 74.4982 245.997 72.4891L237.998 72.3291C237.993 72.5927 237.932 72.7569 237.775 72.9542L244.038 77.9322ZM245.996 72.324C245.954 70.3504 245.275 68.5237 243.978 67.0105L237.904 72.2168C237.958 72.2806 237.971 72.3139 237.975 72.3236C237.979 72.3343 237.996 72.3816 237.998 72.4942L245.996 72.324ZM244.056 67.1043C242.806 65.5534 241.03 64.5017 239.21 63.7411L236.125 71.1225C237.351 71.6346 237.757 72.0375 237.826 72.123L244.056 67.1043ZM239.257 63.7609C237.401 62.9578 235.066 62.2785 232.354 61.6838L230.641 69.4981C233.11 70.0397 234.889 70.5876 236.079 71.1027L239.257 63.7609ZM232.341 61.6808L225.386 60.1808L223.699 68.001L230.654 69.501L232.341 61.6808ZM225.391 60.1818C219.661 58.939 215.474 56.9334 212.559 54.3706L207.277 60.3794C211.498 64.0894 217.061 66.561 223.695 68L225.391 60.1818ZM212.579 54.3885C210.021 52.1094 208.615 48.9678 208.634 44.4712L200.634 44.4379C200.607 50.8504 202.724 56.3224 207.257 60.3615L212.579 54.3885ZM208.634 44.434C208.615 40.7721 209.576 37.7384 211.427 35.165L204.932 30.4941C202.01 34.557 200.607 39.2734 200.634 44.4751L208.634 44.434ZM211.424 35.1691C213.364 32.4785 216.094 30.2998 219.774 28.686L216.561 21.3594C211.742 23.4729 207.813 26.4987 204.935 30.49L211.424 35.1691ZM219.767 28.6891C223.451 27.0823 227.788 26.2273 232.861 26.2273V18.2273C226.888 18.2273 221.43 19.2359 216.569 21.3563L219.767 28.6891ZM232.861 26.2273C238.059 26.2273 242.34 27.0976 245.819 28.6928L249.153 21.4209C244.405 19.2433 238.935 18.2273 232.861 18.2273V26.2273ZM245.819 28.6928C249.319 30.2976 251.871 32.4827 253.642 35.2117L260.353 30.8565C257.669 26.7219 253.881 23.5887 249.153 21.4209L245.819 28.6928ZM253.659 35.2375C255.432 37.9233 256.387 41.1332 256.407 45.0199L264.406 44.9801C264.38 39.7304 263.063 34.963 260.336 30.8307L253.659 35.2375ZM260.406 41H242.27V49H260.406V41ZM276.524 93H272.524V97H276.524V93ZM276.524 82.5L273.323 80.1016L272.524 81.1678V82.5H276.524ZM309.524 38.4545L312.725 40.853L317.519 34.4545H309.524V38.4545ZM276.66 38.4545H272.66V42.4545H276.66V38.4545ZM276.66 23.1818V19.1818H272.66V23.1818H276.66ZM333.66 23.1818H337.66V19.1818H333.66V23.1818ZM333.66 33.6818L336.862 36.0802L337.66 35.014V33.6818H333.66ZM300.66 77.7273L297.459 75.3289L292.665 81.7273H300.66V77.7273ZM333.524 77.7273H337.524V73.7273H333.524V77.7273ZM333.524 93V97H337.524V93H333.524ZM280.524 93V82.5H272.524V93H280.524ZM279.725 84.8984L312.725 40.853L306.323 36.0561L273.323 80.1016L279.725 84.8984ZM309.524 34.4545H276.66V42.4545H309.524V34.4545ZM280.66 38.4545V23.1818H272.66V38.4545H280.66ZM276.66 27.1818H333.66V19.1818H276.66V27.1818ZM329.66 23.1818V33.6818H337.66V23.1818H329.66ZM330.459 31.2834L297.459 75.3289L303.862 80.1257L336.862 36.0802L330.459 31.2834ZM300.66 81.7273H333.524V73.7273H300.66V81.7273ZM329.524 77.7273V93H337.524V77.7273H329.524ZM333.524 89H276.524V97H333.524V89ZM350.587 93H346.587V97H350.587V93ZM350.587 23.1818V19.1818H346.587V23.1818H350.587ZM369.542 23.1818H373.542V19.1818H369.542V23.1818ZM369.542 51.4091H365.542V55.4091H369.542V51.4091ZM370.497 51.4091V55.4091H372.506L373.706 53.7967L370.497 51.4091ZM391.497 23.1818V19.1818H389.487L388.287 20.7942L391.497 23.1818ZM413.587 23.1818L416.774 25.5997L421.644 19.1818H413.587V23.1818ZM389.997 54.2727L386.81 51.8549L385.144 54.05L386.602 56.3884L389.997 54.2727ZM414.133 93V97H421.339L417.528 90.8843L414.133 93ZM391.497 93L388.065 95.0554L389.23 97H391.497V93ZM375.815 66.8182L379.246 64.7628L376.222 59.7131L372.64 64.3845L375.815 66.8182ZM369.542 75L366.368 72.5663L365.542 73.6431V75H369.542ZM369.542 93V97H373.542V93H369.542ZM354.587 93V23.1818H346.587V93H354.587ZM350.587 27.1818H369.542V19.1818H350.587V27.1818ZM365.542 23.1818V51.4091H373.542V23.1818H365.542ZM369.542 55.4091H370.497V47.4091H369.542V55.4091ZM373.706 53.7967L394.706 25.5694L388.287 20.7942L367.287 49.0215L373.706 53.7967ZM391.497 27.1818H413.587V19.1818H391.497V27.1818ZM410.401 20.764L386.81 51.8549L393.183 56.6906L416.774 25.5997L410.401 20.764ZM386.602 56.3884L410.738 95.1157L417.528 90.8843L393.391 52.157L386.602 56.3884ZM414.133 89H391.497V97H414.133V89ZM394.928 90.9446L379.246 64.7628L372.383 68.8735L388.065 95.0554L394.928 90.9446ZM372.64 64.3845L366.368 72.5663L372.716 77.4337L378.989 69.2519L372.64 64.3845ZM365.542 75V93H373.542V75H365.542ZM369.542 89H350.587V97H369.542V89ZM445.029 93V97H448L448.858 94.156L445.029 93ZM424.574 93L420.776 91.7462L419.042 97H424.574V93ZM447.62 23.1818V19.1818H444.728L443.821 21.928L447.62 23.1818ZM473.529 23.1818L477.327 21.928L476.421 19.1818H473.529V23.1818ZM496.574 93V97H502.107L500.373 91.7462L496.574 93ZM476.12 93L472.29 94.156L473.149 97H476.12V93ZM460.847 42.4091L464.676 41.2531L463.818 38.4091H460.847V42.4091ZM460.302 42.4091V38.4091H457.331L456.472 41.2531L460.302 42.4091ZM441.211 65.4545V61.4545H437.211V65.4545H441.211ZM479.665 65.4545H483.665V61.4545H479.665V65.4545ZM479.665 79.6364V83.6364H483.665V79.6364H479.665ZM441.211 79.6364H437.211V83.6364H441.211V79.6364ZM445.029 89H424.574V97H445.029V89ZM428.373 94.2538L451.418 24.4356L443.821 21.928L420.776 91.7462L428.373 94.2538ZM447.62 27.1818H473.529V19.1818H447.62V27.1818ZM469.73 24.4356L492.776 94.2538L500.373 91.7462L477.327 21.928L469.73 24.4356ZM496.574 89H476.12V97H496.574V89ZM479.949 91.844L464.676 41.2531L457.018 43.5651L472.29 94.156L479.949 91.844ZM460.847 38.4091H460.302V46.4091H460.847V38.4091ZM456.472 41.2531L441.2 91.844L448.858 94.156L464.131 43.5651L456.472 41.2531ZM441.211 69.4545H479.665V61.4545H441.211V69.4545ZM475.665 65.4545V79.6364H483.665V65.4545H475.665ZM479.665 75.6364H441.211V83.6364H479.665V75.6364ZM445.211 79.6364V65.4545H437.211V79.6364H445.211ZM571.388 23.1818H575.388V19.1818H571.388V23.1818ZM571.388 93V97H575.388V93H571.388ZM555.57 93L552.274 95.2666L553.466 97H555.57V93ZM530.342 56.3182L533.638 54.0515L532.446 52.3182H530.342V56.3182ZM529.933 56.3182V52.3182H525.933V56.3182H529.933ZM529.933 93V97H533.933V93H529.933ZM510.979 93H506.979V97H510.979V93ZM510.979 23.1818V19.1818H506.979V23.1818H510.979ZM527.07 23.1818L530.379 20.9346L529.188 19.1818H527.07V23.1818ZM551.888 59.7273L548.579 61.9745L549.769 63.7273H551.888V59.7273ZM552.433 59.7273V63.7273H556.433V59.7273H552.433ZM552.433 23.1818V19.1818H548.433V23.1818H552.433ZM567.388 23.1818V93H575.388V23.1818H567.388ZM571.388 89H555.57V97H571.388V89ZM558.865 90.7334L533.638 54.0515L527.047 58.5848L552.274 95.2666L558.865 90.7334ZM530.342 52.3182H529.933V60.3182H530.342V52.3182ZM525.933 56.3182V93H533.933V56.3182H525.933ZM529.933 89H510.979V97H529.933V89ZM514.979 93V23.1818H506.979V93H514.979ZM510.979 27.1818H527.07V19.1818H510.979V27.1818ZM523.761 25.429L548.579 61.9745L555.197 57.4801L530.379 20.9346L523.761 25.429ZM551.888 63.7273H552.433V55.7273H551.888V63.7273ZM556.433 59.7273V23.1818H548.433V59.7273H556.433ZM552.433 27.1818H571.388V19.1818H552.433V27.1818ZM606.988 23.1818H610.988V19.1818H606.988V23.1818ZM606.988 93V97H610.988V93H606.988ZM588.034 93H584.034V97H588.034V93ZM588.034 23.1818V19.1818H584.034V23.1818H588.034ZM602.988 23.1818V93H610.988V23.1818H602.988ZM606.988 89H588.034V97H606.988V89ZM592.034 93V23.1818H584.034V93H592.034ZM588.034 27.1818H606.988V19.1818H588.034V27.1818ZM641.788 93V97H644.758L645.617 94.156L641.788 93ZM621.333 93L617.535 91.7462L615.8 97H621.333V93ZM644.379 23.1818V19.1818H641.487L640.58 21.928L644.379 23.1818ZM670.288 23.1818L674.086 21.928L673.18 19.1818H670.288V23.1818ZM693.333 93V97H698.866L697.131 91.7462L693.333 93ZM672.879 93L669.049 94.156L669.908 97H672.879V93ZM657.606 42.4091L661.435 41.2531L660.577 38.4091H657.606V42.4091ZM657.06 42.4091V38.4091H654.09L653.231 41.2531L657.06 42.4091ZM637.969 65.4545V61.4545H633.969V65.4545H637.969ZM676.424 65.4545H680.424V61.4545H676.424V65.4545ZM676.424 79.6364V83.6364H680.424V79.6364H676.424ZM637.969 79.6364H633.969V83.6364H637.969V79.6364ZM641.788 89H621.333V97H641.788V89ZM625.131 94.2538L648.177 24.4356L640.58 21.928L617.535 91.7462L625.131 94.2538ZM644.379 27.1818H670.288V19.1818H644.379V27.1818ZM666.489 24.4356L689.535 94.2538L697.131 91.7462L674.086 21.928L666.489 24.4356ZM693.333 89H672.879V97H693.333V89ZM676.708 91.844L661.435 41.2531L653.776 43.5651L669.049 94.156L676.708 91.844ZM657.606 38.4091H657.06V46.4091H657.606V38.4091ZM653.231 41.2531L637.958 91.844L645.617 94.156L660.89 43.5651L653.231 41.2531ZM637.969 69.4545H676.424V61.4545H637.969V69.4545ZM672.424 65.4545V79.6364H680.424V65.4545H672.424ZM676.424 75.6364H637.969V83.6364H676.424V75.6364ZM641.969 79.6364V65.4545H633.969V79.6364H641.969Z" fill="white" mask="url(#path-1-outside-1_102_58)"/>
</svg>
