<svg width="696" height="116" viewBox="0 0 696 116" fill="none" xmlns="http://www.w3.org/2000/svg">
<mask id="path-1-outside-1_102_58" maskUnits="userSpaceOnUse" x="2" y="20" width="695" height="76" fill="black">
<rect fill="white" x="2" y="20" width="695" height="76"/>
<path d="M4.5 23.1818H28.0909L44.3182 62.7273H45.1364L61.3636 23.1818H84.9545V93H66.4091V52.6364H65.8636L50.3182 92.4545H39.1364L23.5909 52.3636H23.0455V93H4.5V23.1818ZM120.572 23.1818V93H101.618V23.1818H120.572ZM137.235 93V23.1818H187.553V38.4545H156.19V50.4545H184.962V65.7273H156.19V77.7273H187.417V93H137.235ZM242.27 45C242.088 42.7273 241.236 40.9545 239.713 39.6818C238.213 38.4091 235.929 37.7727 232.861 37.7727C230.906 37.7727 229.304 38.0114 228.054 38.4886C226.827 38.9432 225.918 39.5682 225.327 40.3636C224.736 41.1591 224.429 42.0682 224.406 43.0909C224.361 43.9318 224.509 44.6932 224.85 45.375C225.213 46.0341 225.781 46.6364 226.554 47.1818C227.327 47.7045 228.316 48.1818 229.52 48.6136C230.725 49.0455 232.156 49.4318 233.816 49.7727L239.543 51C243.406 51.8182 246.713 52.8977 249.463 54.2386C252.213 55.5795 254.463 57.1591 256.213 58.9773C257.963 60.7727 259.247 62.7955 260.066 65.0455C260.906 67.2955 261.338 69.75 261.361 72.4091C261.338 77 260.191 80.8864 257.918 84.0682C255.645 87.25 252.395 89.6705 248.168 91.3295C243.963 92.9886 238.906 93.8182 232.997 93.8182C226.929 93.8182 221.634 92.9205 217.111 91.125C212.611 89.3295 209.111 86.5682 206.611 82.8409C204.134 79.0909 202.884 74.2955 202.861 68.4545H220.861C220.975 70.5909 221.509 72.3864 222.463 73.8409C223.418 75.2955 224.759 76.3977 226.486 77.1477C228.236 77.8977 230.316 78.2727 232.725 78.2727C234.747 78.2727 236.441 78.0227 237.804 77.5227C239.168 77.0227 240.202 76.3295 240.906 75.4432C241.611 74.5568 241.975 73.5455 241.997 72.4091C241.975 71.3409 241.622 70.4091 240.941 69.6136C240.281 68.7955 239.191 68.0682 237.668 67.4318C236.145 66.7727 234.088 66.1591 231.497 65.5909L224.543 64.0909C218.361 62.75 213.486 60.5114 209.918 57.375C206.372 54.2159 204.611 49.9091 204.634 44.4545C204.611 40.0227 205.793 36.1477 208.179 32.8295C210.588 29.4886 213.918 26.8864 218.168 25.0227C222.441 23.1591 227.338 22.2273 232.861 22.2273C238.497 22.2273 243.372 23.1705 247.486 25.0568C251.6 26.9432 254.77 29.6023 256.997 33.0341C259.247 36.4432 260.384 40.4318 260.406 45H242.27ZM276.524 93V82.5L309.524 38.4545H276.66V23.1818H333.66V33.6818L300.66 77.7273H333.524V93H276.524ZM350.587 93V23.1818H369.542V51.4091H370.497L391.497 23.1818H413.587L389.997 54.2727L414.133 93H391.497L375.815 66.8182L369.542 75V93H350.587ZM445.029 93H424.574L447.62 23.1818H473.529L496.574 93H476.12L460.847 42.4091H460.302L445.029 93ZM441.211 65.4545H479.665V79.6364H441.211V65.4545ZM571.388 23.1818V93H555.57L530.342 56.3182H529.933V93H510.979V23.1818H527.07L551.888 59.7273H552.433V23.1818H571.388ZM606.988 23.1818V93H588.034V23.1818H606.988ZM641.788 93H621.333L644.379 23.1818H670.288L693.333 93H672.879L657.606 42.4091H657.06L641.788 93ZM637.969 65.4545H676.424V79.6364H637.969V65.4545Z"/>
</mask>
<path d="M4.5 23.1818V21.1818H2.5V23.1818H4.5ZM28.0909 23.1818L29.9412 22.4226L29.4321 21.1818H28.0909V23.1818ZM44.3182 62.7273L42.4679 63.4865L42.977 64.7273H44.3182V62.7273ZM45.1364 62.7273V64.7273H46.4775L46.9866 63.4865L45.1364 62.7273ZM61.3636 23.1818V21.1818H60.0225L59.5134 22.4226L61.3636 23.1818ZM84.9545 23.1818H86.9545V21.1818H84.9545V23.1818ZM84.9545 93V95H86.9545V93H84.9545ZM66.4091 93H64.4091V95H66.4091V93ZM66.4091 52.6364H68.4091V50.6364H66.4091V52.6364ZM65.8636 52.6364V50.6364H64.4974L64.0006 51.909L65.8636 52.6364ZM50.3182 92.4545V94.4545H51.6844L52.1812 93.1819L50.3182 92.4545ZM39.1364 92.4545L37.2716 93.1776L37.7668 94.4545H39.1364V92.4545ZM23.5909 52.3636L25.4556 51.6406L24.9605 50.3636H23.5909V52.3636ZM23.0455 52.3636V50.3636H21.0455V52.3636H23.0455ZM23.0455 93V95H25.0455V93H23.0455ZM4.5 93H2.5V95H4.5V93ZM4.5 25.1818H28.0909V21.1818H4.5V25.1818ZM26.2406 23.9411L42.4679 63.4865L46.1685 61.968L29.9412 22.4226L26.2406 23.9411ZM44.3182 64.7273H45.1364V60.7273H44.3182V64.7273ZM46.9866 63.4865L63.2139 23.9411L59.5134 22.4226L43.2861 61.968L46.9866 63.4865ZM61.3636 25.1818H84.9545V21.1818H61.3636V25.1818ZM82.9545 23.1818V93H86.9545V23.1818H82.9545ZM84.9545 91H66.4091V95H84.9545V91ZM68.4091 93V52.6364H64.4091V93H68.4091ZM66.4091 50.6364H65.8636V54.6364H66.4091V50.6364ZM64.0006 51.909L48.4551 91.7272L52.1812 93.1819L67.7267 53.3637L64.0006 51.909ZM50.3182 90.4545H39.1364V94.4545H50.3182V90.4545ZM41.0011 91.7315L25.4556 51.6406L21.7262 53.0867L37.2716 93.1776L41.0011 91.7315ZM23.5909 50.3636H23.0455V54.3636H23.5909V50.3636ZM21.0455 52.3636V93H25.0455V52.3636H21.0455ZM23.0455 91H4.5V95H23.0455V91ZM6.5 93V23.1818H2.5V93H6.5ZM120.572 23.1818H122.572V21.1818H120.572V23.1818ZM120.572 93V95H122.572V93H120.572ZM101.618 93H99.6175V95H101.618V93ZM101.618 23.1818V21.1818H99.6175V23.1818H101.618ZM118.572 23.1818V93H122.572V23.1818H118.572ZM120.572 91H101.618V95H120.572V91ZM103.618 93V23.1818H99.6175V93H103.618ZM101.618 25.1818H120.572V21.1818H101.618V25.1818ZM137.235 93H135.235V95H137.235V93ZM137.235 23.1818V21.1818H135.235V23.1818H137.235ZM187.553 23.1818H189.553V21.1818H187.553V23.1818ZM187.553 38.4545V40.4545H189.553V38.4545H187.553ZM156.19 38.4545V36.4545H154.19V38.4545H156.19ZM156.19 50.4545H154.19V52.4545H156.19V50.4545ZM184.962 50.4545H186.962V48.4545H184.962V50.4545ZM184.962 65.7273V67.7273H186.962V65.7273H184.962ZM156.19 65.7273V63.7273H154.19V65.7273H156.19ZM156.19 77.7273H154.19V79.7273H156.19V77.7273ZM187.417 77.7273H189.417V75.7273H187.417V77.7273ZM187.417 93V95H189.417V93H187.417ZM139.235 93V23.1818H135.235V93H139.235ZM137.235 25.1818H187.553V21.1818H137.235V25.1818ZM185.553 23.1818V38.4545H189.553V23.1818H185.553ZM187.553 36.4545H156.19V40.4545H187.553V36.4545ZM154.19 38.4545V50.4545H158.19V38.4545H154.19ZM156.19 52.4545H184.962V48.4545H156.19V52.4545ZM182.962 50.4545V65.7273H186.962V50.4545H182.962ZM184.962 63.7273H156.19V67.7273H184.962V63.7273ZM154.19 65.7273V77.7273H158.19V65.7273H154.19ZM156.19 79.7273H187.417V75.7273H156.19V79.7273ZM185.417 77.7273V93H189.417V77.7273H185.417ZM187.417 91H137.235V95H187.417V91ZM242.27 45L240.276 45.1595L240.424 47H242.27V45ZM239.713 39.6818L238.419 41.2068L238.425 41.2116L238.431 41.2164L239.713 39.6818ZM228.054 38.4886L228.749 40.3641L228.758 40.3606L228.768 40.3571L228.054 38.4886ZM225.327 40.3636L223.721 39.171L223.721 39.171L225.327 40.3636ZM224.406 43.0909L226.404 43.1989L226.405 43.1671L226.406 43.1353L224.406 43.0909ZM224.85 45.375L223.061 46.2694L223.079 46.3057L223.098 46.3412L224.85 45.375ZM226.554 47.1818L225.401 48.8158L225.417 48.8272L225.434 48.8384L226.554 47.1818ZM233.816 49.7727L234.235 47.8171L234.226 47.8154L234.218 47.8137L233.816 49.7727ZM239.543 51L239.124 52.9556L239.128 52.9566L239.543 51ZM256.213 58.9773L254.772 60.3642L254.781 60.3732L256.213 58.9773ZM260.066 65.0455L258.186 65.7289L258.189 65.7373L258.192 65.7456L260.066 65.0455ZM261.361 72.4091L263.361 72.419L263.361 72.4055L263.361 72.392L261.361 72.4091ZM257.918 84.0682L259.545 85.2307L259.545 85.2307L257.918 84.0682ZM248.168 91.3295L247.437 89.4678L247.434 89.4691L248.168 91.3295ZM217.111 91.125L216.37 92.9826L216.373 92.9839L217.111 91.125ZM206.611 82.8409L204.942 83.9433L204.95 83.955L206.611 82.8409ZM202.861 68.4545V66.4545H200.853L200.861 68.4623L202.861 68.4545ZM220.861 68.4545L222.858 68.3483L222.757 66.4545H220.861V68.4545ZM222.463 73.8409L220.791 74.9382L220.791 74.9382L222.463 73.8409ZM226.486 77.1477L225.689 78.9823L225.698 78.986L226.486 77.1477ZM237.804 77.5227L238.493 79.4005L238.493 79.4005L237.804 77.5227ZM240.906 75.4432L242.472 76.6877L242.472 76.6877L240.906 75.4432ZM241.997 72.4091L243.997 72.4491L243.998 72.4078L243.997 72.3665L241.997 72.4091ZM240.941 69.6136L239.383 70.8683L239.402 70.8921L239.422 70.9152L240.941 69.6136ZM237.668 67.4318L236.873 69.2673L236.885 69.2723L236.897 69.2772L237.668 67.4318ZM231.497 65.5909L231.926 63.6373L231.919 63.6359L231.497 65.5909ZM224.543 64.0909L224.119 66.0455L224.121 66.046L224.543 64.0909ZM209.918 57.375L208.587 58.8683L208.597 58.8772L209.918 57.375ZM204.634 44.4545L206.634 44.4629L206.634 44.4536L206.634 44.4443L204.634 44.4545ZM208.179 32.8295L206.557 31.6598L206.555 31.6618L208.179 32.8295ZM218.168 25.0227L217.368 23.1895L217.365 23.1911L218.168 25.0227ZM247.486 25.0568L246.652 26.8748L246.652 26.8748L247.486 25.0568ZM256.997 33.0341L255.32 34.1229L255.324 34.1294L255.328 34.1358L256.997 33.0341ZM260.406 45V47H262.416L262.406 44.99L260.406 45ZM244.264 44.8405C244.046 42.1192 242.993 39.8164 240.996 38.1473L238.431 41.2164C239.479 42.0927 240.131 43.3353 240.276 45.1595L244.264 44.8405ZM241.007 38.1568C238.991 36.4464 236.151 35.7727 232.861 35.7727V39.7727C235.707 39.7727 237.435 40.3717 238.419 41.2068L241.007 38.1568ZM232.861 35.7727C230.765 35.7727 228.898 36.0257 227.341 36.6202L228.768 40.3571C229.711 39.997 231.048 39.7727 232.861 39.7727V35.7727ZM227.36 36.6131C225.883 37.1599 224.607 37.9793 223.721 39.171L226.932 41.5563C227.229 41.1571 227.771 40.7264 228.749 40.3641L227.36 36.6131ZM223.721 39.171C222.875 40.3104 222.439 41.6237 222.407 43.0465L226.406 43.1353C226.42 42.5126 226.597 42.0078 226.932 41.5563L223.721 39.171ZM222.409 42.983C222.347 44.1332 222.549 45.2455 223.061 46.2694L226.639 44.4806C226.469 44.1408 226.375 43.7304 226.404 43.1989L222.409 42.983ZM223.098 46.3412C223.641 47.3242 224.443 48.1394 225.401 48.8158L227.708 45.5479C227.12 45.1334 226.786 44.7439 226.601 44.4088L223.098 46.3412ZM225.434 48.8384C226.385 49.4822 227.537 50.0274 228.845 50.4963L230.195 46.731C229.094 46.3363 228.269 45.9269 227.675 45.5252L225.434 48.8384ZM228.845 50.4963C230.162 50.9683 231.689 51.3776 233.413 51.7318L234.218 47.8137C232.624 47.4861 231.288 47.1226 230.195 46.731L228.845 50.4963ZM233.397 51.7283L239.124 52.9556L239.962 49.0444L234.235 47.8171L233.397 51.7283ZM239.128 52.9566C242.876 53.7502 246.019 54.7843 248.587 56.0363L250.34 52.441C247.408 51.0111 243.937 49.8862 239.957 49.0434L239.128 52.9566ZM248.587 56.0363C251.169 57.2956 253.215 58.7466 254.772 60.3642L257.654 57.5903C255.711 55.5716 253.257 53.8635 250.34 52.441L248.587 56.0363ZM254.781 60.3732C256.343 61.9754 257.469 63.758 258.186 65.7289L261.945 64.362C261.025 61.8329 259.584 59.57 257.646 57.5813L254.781 60.3732ZM258.192 65.7456C258.943 67.7549 259.34 69.9755 259.361 72.4262L263.361 72.392C263.336 69.5245 262.87 66.836 261.939 64.3453L258.192 65.7456ZM259.361 72.3992C259.34 76.6507 258.283 80.1159 256.29 82.9057L259.545 85.2307C262.098 81.6568 263.337 77.3493 263.361 72.419L259.361 72.3992ZM256.29 82.9057C254.277 85.7243 251.364 87.9268 247.437 89.4678L248.899 93.1913C253.427 91.4141 257.013 88.7757 259.545 85.2307L256.29 82.9057ZM247.434 89.4691C243.523 91.0124 238.728 91.8182 232.997 91.8182V95.8182C239.084 95.8182 244.404 94.9648 248.902 93.1899L247.434 89.4691ZM232.997 91.8182C227.122 91.8182 222.087 90.9484 217.849 89.2661L216.373 92.9839C221.181 94.8925 226.737 95.8182 232.997 95.8182V91.8182ZM217.852 89.2674C213.695 87.6089 210.529 85.0923 208.272 81.7268L204.95 83.955C207.693 88.0441 211.527 91.0502 216.37 92.9826L217.852 89.2674ZM208.28 81.7385C206.073 78.3977 204.883 74.0135 204.861 68.4468L200.861 68.4623C200.885 74.5774 202.195 79.7841 204.942 83.9433L208.28 81.7385ZM202.861 70.4545H220.861V66.4545H202.861V70.4545ZM218.864 68.5608C218.992 70.9698 219.603 73.127 220.791 74.9382L224.135 72.7436C223.415 71.6458 222.957 70.212 222.858 68.3483L218.864 68.5608ZM220.791 74.9382C221.977 76.7455 223.635 78.0904 225.689 78.9823L227.283 75.3132C225.882 74.7051 224.858 73.8454 224.135 72.7436L220.791 74.9382ZM225.698 78.986C227.754 79.867 230.114 80.2727 232.725 80.2727V76.2727C230.517 76.2727 228.718 75.9285 227.274 75.3094L225.698 78.986ZM232.725 80.2727C234.897 80.2727 236.841 80.0063 238.493 79.4005L237.116 75.645C236.041 76.0392 234.598 76.2727 232.725 76.2727V80.2727ZM238.493 79.4005C240.105 78.8092 241.483 77.9324 242.472 76.6877L239.341 74.1987C238.921 74.7267 238.23 75.2363 237.116 75.645L238.493 79.4005ZM242.472 76.6877C243.451 75.4568 243.966 74.0218 243.997 72.4491L239.998 72.3691C239.984 73.0691 239.772 73.6569 239.341 74.1987L242.472 76.6877ZM243.997 72.3665C243.965 70.8457 243.449 69.4664 242.459 68.3121L239.422 70.9152C239.796 71.3518 239.985 71.8362 239.998 72.4516L243.997 72.3665ZM242.498 68.359C241.544 67.1744 240.11 66.285 238.439 65.5865L236.897 69.2772C238.271 69.8514 239.019 70.4165 239.383 70.8683L242.498 68.359ZM238.462 65.5964C236.773 64.8653 234.577 64.2188 231.926 63.6373L231.069 67.5445C233.599 68.0994 235.517 68.6802 236.873 69.2673L238.462 65.5964ZM231.919 63.6359L224.965 62.1359L224.121 66.046L231.076 67.546L231.919 63.6359ZM224.967 62.1364C219.011 60.8445 214.48 58.7224 211.238 55.8728L208.597 58.8772C212.492 62.3004 217.711 64.6555 224.119 66.0455L224.967 62.1364ZM211.248 55.8818C208.197 53.1627 206.613 49.4384 206.634 44.4629L202.634 44.4462C202.609 50.3798 204.548 55.2691 208.587 58.8682L211.248 55.8818ZM206.634 44.4443C206.613 40.3974 207.684 36.9431 209.803 33.9973L206.555 31.6618C203.901 35.3524 202.609 39.6481 202.634 44.4648L206.634 44.4443ZM209.801 33.9993C211.976 30.9836 215.006 28.5931 218.971 26.8544L217.365 23.1911C212.83 25.1796 209.201 27.9937 206.557 31.6598L209.801 33.9993ZM218.967 26.8559C222.946 25.1207 227.563 24.2273 232.861 24.2273V20.2273C227.113 20.2273 221.935 21.1975 217.368 23.1895L218.967 26.8559ZM232.861 24.2273C238.278 24.2273 242.856 25.134 246.652 26.8748L248.32 23.2388C243.889 21.2069 238.716 20.2273 232.861 20.2273V24.2273ZM246.652 26.8748C250.459 28.6204 253.321 31.0425 255.32 34.1229L258.675 31.9453C256.22 28.1621 252.74 25.266 248.32 23.2388L246.652 26.8748ZM255.328 34.1358C257.339 37.1833 258.385 40.7825 258.406 45.01L262.406 44.99C262.382 40.0811 261.155 35.7031 258.667 31.9324L255.328 34.1358ZM260.406 43H242.27V47H260.406V43ZM276.524 93H274.524V95H276.524V93ZM276.524 82.5L274.923 81.3008L274.524 81.8339V82.5H276.524ZM309.524 38.4545L311.125 39.6538L313.522 36.4545H309.524V38.4545ZM276.66 38.4545H274.66V40.4545H276.66V38.4545ZM276.66 23.1818V21.1818H274.66V23.1818H276.66ZM333.66 23.1818H335.66V21.1818H333.66V23.1818ZM333.66 33.6818L335.261 34.881L335.66 34.3479V33.6818H333.66ZM300.66 77.7273L299.06 76.5281L296.663 79.7273H300.66V77.7273ZM333.524 77.7273H335.524V75.7273H333.524V77.7273ZM333.524 93V95H335.524V93H333.524ZM278.524 93V82.5H274.524V93H278.524ZM278.125 83.6992L311.125 39.6538L307.923 37.2553L274.923 81.3008L278.125 83.6992ZM309.524 36.4545H276.66V40.4545H309.524V36.4545ZM278.66 38.4545V23.1818H274.66V38.4545H278.66ZM276.66 25.1818H333.66V21.1818H276.66V25.1818ZM331.66 23.1818V33.6818H335.66V23.1818H331.66ZM332.06 32.4826L299.06 76.5281L302.261 78.9265L335.261 34.881L332.06 32.4826ZM300.66 79.7273H333.524V75.7273H300.66V79.7273ZM331.524 77.7273V93H335.524V77.7273H331.524ZM333.524 91H276.524V95H333.524V91ZM350.587 93H348.587V95H350.587V93ZM350.587 23.1818V21.1818H348.587V23.1818H350.587ZM369.542 23.1818H371.542V21.1818H369.542V23.1818ZM369.542 51.4091H367.542V53.4091H369.542V51.4091ZM370.497 51.4091V53.4091H371.501L372.101 52.6029L370.497 51.4091ZM391.497 23.1818V21.1818H390.492L389.892 21.988L391.497 23.1818ZM413.587 23.1818L415.181 24.3907L417.616 21.1818H413.587V23.1818ZM389.997 54.2727L388.403 53.0638L387.571 54.1613L388.299 55.3306L389.997 54.2727ZM414.133 93V95H417.736L415.83 91.9422L414.133 93ZM391.497 93L389.781 94.0277L390.363 95H391.497V93ZM375.815 66.8182L377.531 65.7905L376.018 63.2656L374.228 65.6013L375.815 66.8182ZM369.542 75L367.955 73.7831L367.542 74.3216V75H369.542ZM369.542 93V95H371.542V93H369.542ZM352.587 93V23.1818H348.587V93H352.587ZM350.587 25.1818H369.542V21.1818H350.587V25.1818ZM367.542 23.1818V51.4091H371.542V23.1818H367.542ZM369.542 53.4091H370.497V49.4091H369.542V53.4091ZM372.101 52.6029L393.101 24.3756L389.892 21.988L368.892 50.2153L372.101 52.6029ZM391.497 25.1818H413.587V21.1818H391.497V25.1818ZM411.994 21.9729L388.403 53.0638L391.59 55.4817L415.181 24.3907L411.994 21.9729ZM388.299 55.3306L412.436 94.0578L415.83 91.9422L391.694 53.2149L388.299 55.3306ZM414.133 91H391.497V95H414.133V91ZM393.212 91.9723L377.531 65.7905L374.099 67.8459L389.781 94.0277L393.212 91.9723ZM374.228 65.6013L367.955 73.7831L371.129 76.2169L377.402 68.035L374.228 65.6013ZM367.542 75V93H371.542V75H367.542ZM369.542 91H350.587V95H369.542V91ZM445.029 93V95H446.514L446.944 93.578L445.029 93ZM424.574 93L422.675 92.3731L421.808 95H424.574V93ZM447.62 23.1818V21.1818H446.174L445.721 22.5549L447.62 23.1818ZM473.529 23.1818L475.428 22.5549L474.975 21.1818H473.529V23.1818ZM496.574 93V95H499.341L498.474 92.3731L496.574 93ZM476.12 93L474.205 93.578L474.634 95H476.12V93ZM460.847 42.4091L462.762 41.8311L462.332 40.4091H460.847V42.4091ZM460.302 42.4091V40.4091H458.816L458.387 41.8311L460.302 42.4091ZM441.211 65.4545V63.4545H439.211V65.4545H441.211ZM479.665 65.4545H481.665V63.4545H479.665V65.4545ZM479.665 79.6364V81.6364H481.665V79.6364H479.665ZM441.211 79.6364H439.211V81.6364H441.211V79.6364ZM445.029 91H424.574V95H445.029V91ZM426.474 93.6269L449.519 23.8087L445.721 22.5549L422.675 92.3731L426.474 93.6269ZM447.62 25.1818H473.529V21.1818H447.62V25.1818ZM471.63 23.8087L494.675 93.6269L498.474 92.3731L475.428 22.5549L471.63 23.8087ZM496.574 91H476.12V95H496.574V91ZM478.034 92.422L462.762 41.8311L458.932 42.9871L474.205 93.578L478.034 92.422ZM460.847 40.4091H460.302V44.4091H460.847V40.4091ZM458.387 41.8311L443.114 92.422L446.944 93.578L462.216 42.9871L458.387 41.8311ZM441.211 67.4545H479.665V63.4545H441.211V67.4545ZM477.665 65.4545V79.6364H481.665V65.4545H477.665ZM479.665 77.6364H441.211V81.6364H479.665V77.6364ZM443.211 79.6364V65.4545H439.211V79.6364H443.211ZM571.388 23.1818H573.388V21.1818H571.388V23.1818ZM571.388 93V95H573.388V93H571.388ZM555.57 93L553.922 94.1333L554.518 95H555.57V93ZM530.342 56.3182L531.99 55.1849L531.394 54.3182H530.342V56.3182ZM529.933 56.3182V54.3182H527.933V56.3182H529.933ZM529.933 93V95H531.933V93H529.933ZM510.979 93H508.979V95H510.979V93ZM510.979 23.1818V21.1818H508.979V23.1818H510.979ZM527.07 23.1818L528.724 22.0582L528.129 21.1818H527.07V23.1818ZM551.888 59.7273L550.233 60.8509L550.828 61.7273H551.888V59.7273ZM552.433 59.7273V61.7273H554.433V59.7273H552.433ZM552.433 23.1818V21.1818H550.433V23.1818H552.433ZM569.388 23.1818V93H573.388V23.1818H569.388ZM571.388 91H555.57V95H571.388V91ZM557.218 91.8667L531.99 55.1849L528.694 57.4515L553.922 94.1333L557.218 91.8667ZM530.342 54.3182H529.933V58.3182H530.342V54.3182ZM527.933 56.3182V93H531.933V56.3182H527.933ZM529.933 91H510.979V95H529.933V91ZM512.979 93V23.1818H508.979V93H512.979ZM510.979 25.1818H527.07V21.1818H510.979V25.1818ZM525.415 24.3054L550.233 60.8509L553.542 58.6037L528.724 22.0582L525.415 24.3054ZM551.888 61.7273H552.433V57.7273H551.888V61.7273ZM554.433 59.7273V23.1818H550.433V59.7273H554.433ZM552.433 25.1818H571.388V21.1818H552.433V25.1818ZM606.988 23.1818H608.988V21.1818H606.988V23.1818ZM606.988 93V95H608.988V93H606.988ZM588.034 93H586.034V95H588.034V93ZM588.034 23.1818V21.1818H586.034V23.1818H588.034ZM604.988 23.1818V93H608.988V23.1818H604.988ZM606.988 91H588.034V95H606.988V91ZM590.034 93V23.1818H586.034V93H590.034ZM588.034 25.1818H606.988V21.1818H588.034V25.1818ZM641.788 93V95H643.273L643.702 93.578L641.788 93ZM621.333 93L619.434 92.3731L618.567 95H621.333V93ZM644.379 23.1818V21.1818H642.933L642.479 22.5549L644.379 23.1818ZM670.288 23.1818L672.187 22.5549L671.734 21.1818H670.288V23.1818ZM693.333 93V95H696.099L695.232 92.3731L693.333 93ZM672.879 93L670.964 93.578L671.393 95H672.879V93ZM657.606 42.4091L659.52 41.8311L659.091 40.4091H657.606V42.4091ZM657.06 42.4091V40.4091H655.575L655.146 41.8311L657.06 42.4091ZM637.969 65.4545V63.4545H635.969V65.4545H637.969ZM676.424 65.4545H678.424V63.4545H676.424V65.4545ZM676.424 79.6364V81.6364H678.424V79.6364H676.424ZM637.969 79.6364H635.969V81.6364H637.969V79.6364ZM641.788 91H621.333V95H641.788V91ZM623.232 93.6269L646.278 23.8087L642.479 22.5549L619.434 92.3731L623.232 93.6269ZM644.379 25.1818H670.288V21.1818H644.379V25.1818ZM668.388 23.8087L691.434 93.6269L695.232 92.3731L672.187 22.5549L668.388 23.8087ZM693.333 91H672.879V95H693.333V91ZM674.793 92.422L659.52 41.8311L655.691 42.9871L670.964 93.578L674.793 92.422ZM657.606 40.4091H657.06V44.4091H657.606V40.4091ZM655.146 41.8311L639.873 92.422L643.702 93.578L658.975 42.9871L655.146 41.8311ZM637.969 67.4545H676.424V63.4545H637.969V67.4545ZM674.424 65.4545V79.6364H678.424V65.4545H674.424ZM676.424 77.6364H637.969V81.6364H676.424V77.6364ZM639.969 79.6364V65.4545H635.969V79.6364H639.969Z" fill="white" mask="url(#path-1-outside-1_102_58)"/>
</svg>
