<svg width="507" height="137" viewBox="0 0 507 137" fill="none" xmlns="http://www.w3.org/2000/svg">
<mask id="path-1-outside-1_94_248" maskUnits="userSpaceOnUse" x="28" y="8" width="450" height="98" fill="black">
<rect fill="white" x="28" y="8" width="450" height="98"/>
<path d="M76.4847 56.2273C76.1892 55.0227 75.7233 53.9659 75.0869 53.0568C74.4506 52.125 73.6551 51.3409 72.7006 50.7045C71.7688 50.0455 70.6778 49.5568 69.4278 49.2386C68.2006 48.8977 66.8483 48.7273 65.371 48.7273C62.1892 48.7273 59.4733 49.4886 57.2233 51.0114C54.996 52.5341 53.2915 54.7273 52.1097 57.5909C50.9506 60.4545 50.371 63.9091 50.371 67.9545C50.371 72.0455 50.9278 75.5455 52.0415 78.4545C53.1551 81.3636 54.8142 83.5909 57.0188 85.1364C59.2233 86.6818 61.9619 87.4545 65.2347 87.4545C68.121 87.4545 70.5188 87.0341 72.4278 86.1932C74.3597 85.3523 75.8028 84.1591 76.7574 82.6136C77.7119 81.0682 78.1892 79.25 78.1892 77.1591L81.4619 77.5H65.5074V64H96.4619V73.6818C96.4619 80.0455 95.1097 85.4886 92.4051 90.0114C89.7233 94.5114 86.0188 97.9659 81.2915 100.375C76.5869 102.761 71.1892 103.955 65.0983 103.955C58.3028 103.955 52.3369 102.511 47.2006 99.625C42.0642 96.7386 38.0528 92.625 35.1665 87.2841C32.3028 81.9432 30.871 75.5909 30.871 68.2273C30.871 62.4545 31.746 57.3409 33.496 52.8864C35.2688 48.4318 37.7233 44.6705 40.8597 41.6023C43.996 38.5114 47.621 36.1818 51.7347 34.6136C55.8483 33.0227 60.2574 32.2273 64.9619 32.2273C69.0983 32.2273 72.9392 32.8182 76.4847 34C80.0528 35.1591 83.2006 36.8182 85.9278 38.9773C88.6778 41.1136 90.8938 43.6477 92.5756 46.5795C94.2574 49.5114 95.2801 52.7273 95.6438 56.2273H76.4847ZM128.96 103H108.506L131.551 33.1818H157.46L180.506 103H160.051L144.778 52.4091H144.233L128.96 103ZM125.142 75.4545H163.596V89.6364H125.142V75.4545ZM194.91 103V33.1818H225.046C230.228 33.1818 234.762 34.125 238.649 36.0114C242.535 37.8977 245.558 40.6136 247.717 44.1591C249.876 47.7045 250.955 51.9545 250.955 56.9091C250.955 61.9091 249.842 66.125 247.615 69.5568C245.41 72.9886 242.308 75.5795 238.308 77.3295C234.33 79.0795 229.683 79.9545 224.365 79.9545H206.365V65.2273H220.546C222.774 65.2273 224.671 64.9545 226.24 64.4091C227.83 63.8409 229.046 62.9432 229.887 61.7159C230.751 60.4886 231.183 58.8864 231.183 56.9091C231.183 54.9091 230.751 53.2841 229.887 52.0341C229.046 50.7614 227.83 49.8295 226.24 49.2386C224.671 48.625 222.774 48.3182 220.546 48.3182H213.865V103H194.91ZM235.819 70.9545L253.274 103H232.683L215.637 70.9545H235.819ZM284.851 103H264.397L287.442 33.1818H313.351L336.397 103H315.942L300.67 52.4091H300.124L284.851 103ZM281.033 75.4545H319.488V89.6364H281.033V75.4545ZM351.074 103V92.5L384.074 48.4545H351.21V33.1818H408.21V43.6818L375.21 87.7273H408.074V103H351.074ZM379.847 27.7273C377.301 27.7273 375.119 26.8864 373.301 25.2045C371.483 23.5227 370.574 21.5 370.574 19.1364C370.574 16.7727 371.483 14.75 373.301 13.0682C375.119 11.3864 377.301 10.5455 379.847 10.5455C382.415 10.5455 384.597 11.3864 386.392 13.0682C388.21 14.75 389.119 16.7727 389.119 19.1364C389.119 21.5 388.21 23.5227 386.392 25.2045C384.597 26.8864 382.415 27.7273 379.847 27.7273ZM425.138 103V33.1818H475.456V48.4545H444.092V60.4545H472.865V75.7273H444.092V87.7273H475.319V103H425.138Z"/>
</mask>
<path d="M76.4847 56.2273L74.5422 56.7037L74.9159 58.2273H76.4847V56.2273ZM75.0869 53.0568L73.4353 54.1847L73.4418 54.1943L73.4485 54.2037L75.0869 53.0568ZM72.7006 50.7045L71.5456 52.3374L71.5682 52.3533L71.5912 52.3686L72.7006 50.7045ZM69.4278 49.2386L68.8926 51.1657L68.9135 51.1715L68.9345 51.1768L69.4278 49.2386ZM57.2233 51.0114L56.1023 49.355L56.0945 49.3603L57.2233 51.0114ZM52.1097 57.5909L50.2609 56.8279L50.2558 56.8405L52.1097 57.5909ZM52.0415 78.4545L50.1737 79.1696L50.1737 79.1696L52.0415 78.4545ZM57.0188 85.1364L55.8707 86.774L55.8707 86.774L57.0188 85.1364ZM72.4278 86.1932L71.6296 84.3594L71.6216 84.3629L72.4278 86.1932ZM76.7574 82.6136L75.0558 81.5627L75.0558 81.5627L76.7574 82.6136ZM78.1892 77.1591L78.3964 75.1699L76.1892 74.9399V77.1591H78.1892ZM81.4619 77.5V79.5L81.6692 75.5108L81.4619 77.5ZM65.5074 77.5H63.5074V79.5H65.5074V77.5ZM65.5074 64V62H63.5074V64H65.5074ZM96.4619 64H98.4619V62H96.4619V64ZM92.4051 90.0114L90.6886 88.9849L90.6871 88.9875L92.4051 90.0114ZM81.2915 100.375L82.1962 102.159L82.1996 102.157L81.2915 100.375ZM47.2006 99.625L46.2208 101.369L46.2208 101.369L47.2006 99.625ZM35.1665 87.2841L33.4038 88.2292L33.407 88.235L35.1665 87.2841ZM33.496 52.8864L31.6377 52.1468L31.6345 52.1551L33.496 52.8864ZM40.8597 41.6023L42.2583 43.0319L42.2635 43.0268L40.8597 41.6023ZM51.7347 34.6136L52.4471 36.4825L52.4561 36.479L51.7347 34.6136ZM76.4847 34L75.8522 35.8974L75.8595 35.8998L75.8668 35.9022L76.4847 34ZM85.9278 38.9773L84.6864 40.5454L84.6936 40.5511L84.7009 40.5567L85.9278 38.9773ZM92.5756 46.5795L94.3104 45.5844L94.3104 45.5844L92.5756 46.5795ZM95.6438 56.2273V58.2273H97.8623L97.633 56.0206L95.6438 56.2273ZM78.4271 55.7508C78.0796 54.3341 77.5194 53.0442 76.7254 51.9099L73.4485 54.2037C73.9272 54.8876 74.2988 55.7114 74.5422 56.7037L78.4271 55.7508ZM76.7385 51.9289C75.955 50.7816 74.9743 49.8167 73.81 49.0404L71.5912 52.3686C72.3359 52.8651 72.9461 53.4684 73.4353 54.1847L76.7385 51.9289ZM73.8555 49.0717C72.6994 48.254 71.3779 47.6712 69.9212 47.3004L68.9345 51.1768C69.9778 51.4424 70.8381 51.8369 71.5456 52.3374L73.8555 49.0717ZM69.9631 47.3116C68.5364 46.9153 67.0011 46.7273 65.371 46.7273V50.7273C66.6955 50.7273 67.8648 50.8802 68.8926 51.1657L69.9631 47.3116ZM65.371 46.7273C61.8597 46.7273 58.7369 47.5721 56.1023 49.355L58.3443 52.6677C60.2097 51.4052 62.5188 50.7273 65.371 50.7273V46.7273ZM56.0945 49.3603C53.5003 51.1339 51.5686 53.6593 50.2609 56.8279L53.9584 58.3539C55.0143 55.7953 56.4917 53.9343 58.3521 52.6624L56.0945 49.3603ZM50.2558 56.8405C48.9754 60.0039 48.371 63.7275 48.371 67.9545H52.371C52.371 64.0907 52.9258 60.9052 53.9636 58.3413L50.2558 56.8405ZM48.371 67.9545C48.371 72.2174 48.95 75.9731 50.1737 79.1696L53.9093 77.7395C52.9057 75.1178 52.371 71.8735 52.371 67.9545H48.371ZM50.1737 79.1696C51.4069 82.391 53.2906 84.9653 55.8707 86.774L58.1668 83.4987C56.3378 82.2165 54.9034 80.3363 53.9093 77.7395L50.1737 79.1696ZM55.8707 86.774C58.4785 88.6022 61.6411 89.4545 65.2347 89.4545V85.4545C62.2827 85.4545 59.9681 84.7615 58.1668 83.4987L55.8707 86.774ZM65.2347 89.4545C68.2989 89.4545 70.9933 89.0105 73.2341 88.0235L71.6216 84.3629C70.0442 85.0577 67.9431 85.4545 65.2347 85.4545V89.4545ZM73.2261 88.027C75.4702 87.0501 77.2574 85.6101 78.459 83.6646L75.0558 81.5627C74.3483 82.7081 73.2491 83.6544 71.6296 84.3594L73.2261 88.027ZM78.459 83.6646C79.6366 81.758 80.1892 79.564 80.1892 77.1591H76.1892C76.1892 78.936 75.7872 80.3784 75.0558 81.5627L78.459 83.6646ZM77.982 79.1483L81.2547 79.4892L81.6692 75.5108L78.3964 75.1699L77.982 79.1483ZM81.4619 75.5H65.5074V79.5H81.4619V75.5ZM67.5074 77.5V64H63.5074V77.5H67.5074ZM65.5074 66H96.4619V62H65.5074V66ZM94.4619 64V73.6818H98.4619V64H94.4619ZM94.4619 73.6818C94.4619 79.7592 93.1725 84.8312 90.6886 88.9849L94.1216 91.0378C97.0468 86.1461 98.4619 80.3317 98.4619 73.6818H94.4619ZM90.6871 88.9875C88.201 93.1591 84.7792 96.3529 80.3834 98.5931L82.1996 102.157C87.2584 99.5789 91.2456 95.8636 94.1232 91.0352L90.6871 88.9875ZM80.3867 98.5913C76.003 100.815 70.9235 101.955 65.0983 101.955V105.955C71.4549 105.955 77.1708 104.708 82.1962 102.159L80.3867 98.5913ZM65.0983 101.955C58.5928 101.955 52.9743 100.575 48.1804 97.8814L46.2208 101.369C51.6995 104.447 58.0129 105.955 65.0983 105.955V101.955ZM48.1804 97.8814C43.384 95.1861 39.6384 91.3522 36.926 86.3332L33.407 88.235C36.4673 93.8978 40.7444 98.2911 46.2208 101.369L48.1804 97.8814ZM36.9291 86.339C34.2514 81.345 32.871 75.3314 32.871 68.2273H28.871C28.871 75.8504 30.3542 82.5414 33.4039 88.2292L36.9291 86.339ZM32.871 68.2273C32.871 62.6546 33.7158 57.7966 35.3575 53.6177L31.6345 52.1551C29.7763 56.8852 28.871 62.2545 28.871 68.2273H32.871ZM35.3543 53.6259C37.0334 49.4067 39.3395 45.8872 42.2583 43.0319L39.4611 40.1726C36.1071 43.4537 33.5041 47.457 31.6378 52.1469L35.3543 53.6259ZM42.2635 43.0268C45.2027 40.1302 48.5923 37.952 52.4471 36.4824L51.0222 32.7448C46.6498 34.4117 42.7894 36.8925 39.4558 40.1778L42.2635 43.0268ZM52.4561 36.479C56.3246 34.9829 60.4875 34.2273 64.9619 34.2273V30.2273C60.0273 30.2273 55.372 31.0626 51.0133 32.7483L52.4561 36.479ZM64.9619 34.2273C68.9061 34.2273 72.5312 34.7904 75.8522 35.8974L77.1171 32.1026C73.3472 30.846 69.2905 30.2273 64.9619 30.2273V34.2273ZM75.8668 35.9022C79.2267 36.9936 82.1597 38.545 84.6864 40.5454L87.1693 37.4092C84.2415 35.0914 80.8789 33.3246 77.1026 32.0978L75.8668 35.9022ZM84.7009 40.5567C87.2515 42.5382 89.2925 44.8757 90.8407 47.5747L94.3104 45.5844C92.495 42.4197 90.1042 39.6891 87.1548 37.3979L84.7009 40.5567ZM90.8407 47.5747C92.3779 50.2544 93.3185 53.2 93.6545 56.4339L97.633 56.0206C97.2418 52.2546 96.1369 48.7684 94.3104 45.5844L90.8407 47.5747ZM95.6438 54.2273H76.4847V58.2273H95.6438V54.2273ZM128.96 103V105H130.445L130.875 103.578L128.96 103ZM108.506 103L106.606 102.373L105.739 105H108.506V103ZM131.551 33.1818V31.1818H130.105L129.652 32.5549L131.551 33.1818ZM157.46 33.1818L159.359 32.5549L158.906 31.1818H157.46V33.1818ZM180.506 103V105H183.272L182.405 102.373L180.506 103ZM160.051 103L158.136 103.578L158.566 105H160.051V103ZM144.778 52.4091L146.693 51.8311L146.264 50.4091H144.778V52.4091ZM144.233 52.4091V50.4091H142.747L142.318 51.8311L144.233 52.4091ZM125.142 75.4545V73.4545H123.142V75.4545H125.142ZM163.596 75.4545H165.596V73.4545H163.596V75.4545ZM163.596 89.6364V91.6364H165.596V89.6364H163.596ZM125.142 89.6364H123.142V91.6364H125.142V89.6364ZM128.96 101H108.506V105H128.96V101ZM110.405 103.627L133.45 33.8087L129.652 32.5549L106.606 102.373L110.405 103.627ZM131.551 35.1818H157.46V31.1818H131.551V35.1818ZM155.561 33.8087L178.606 103.627L182.405 102.373L159.359 32.5549L155.561 33.8087ZM180.506 101H160.051V105H180.506V101ZM161.966 102.422L146.693 51.8311L142.864 52.9871L158.136 103.578L161.966 102.422ZM144.778 50.4091H144.233V54.4091H144.778V50.4091ZM142.318 51.8311L127.045 102.422L130.875 103.578L146.148 52.9871L142.318 51.8311ZM125.142 77.4545H163.596V73.4545H125.142V77.4545ZM161.596 75.4545V89.6364H165.596V75.4545H161.596ZM163.596 87.6364H125.142V91.6364H163.596V87.6364ZM127.142 89.6364V75.4545H123.142V89.6364H127.142ZM194.91 103H192.91V105H194.91V103ZM194.91 33.1818V31.1818H192.91V33.1818H194.91ZM247.717 44.1591L249.425 43.1189L249.425 43.1189L247.717 44.1591ZM247.615 69.5568L245.937 68.468L245.932 68.4759L247.615 69.5568ZM238.308 77.3295L237.506 75.4972L237.502 75.4989L238.308 77.3295ZM206.365 79.9545H204.365V81.9545H206.365V79.9545ZM206.365 65.2273V63.2273H204.365V65.2273H206.365ZM226.24 64.4091L226.897 66.2981L226.904 66.2954L226.912 66.2926L226.24 64.4091ZM229.887 61.7159L228.252 60.5649L228.244 60.5751L228.237 60.5854L229.887 61.7159ZM229.887 52.0341L228.219 53.1366L228.23 53.1539L228.242 53.171L229.887 52.0341ZM226.24 49.2386L225.511 51.1011L225.527 51.1074L225.543 51.1135L226.24 49.2386ZM213.865 48.3182V46.3182H211.865V48.3182H213.865ZM213.865 103V105H215.865V103H213.865ZM235.819 70.9545L237.575 69.9979L237.007 68.9545H235.819V70.9545ZM253.274 103V105H256.64L255.03 102.043L253.274 103ZM232.683 103L230.917 103.939L231.481 105H232.683V103ZM215.637 70.9545V68.9545H212.308L213.872 71.8938L215.637 70.9545ZM196.91 103V33.1818H192.91V103H196.91ZM194.91 35.1818H225.046V31.1818H194.91V35.1818ZM225.046 35.1818C229.985 35.1818 234.21 36.0801 237.775 37.8106L239.522 34.2121C235.314 32.1699 230.471 31.1818 225.046 31.1818V35.1818ZM237.775 37.8106C241.331 39.5365 244.058 41.9955 246.009 45.1993L249.425 43.1189C247.058 39.2317 243.739 36.2589 239.522 34.2121L237.775 37.8106ZM246.009 45.1993C247.943 48.3754 248.955 52.2499 248.955 56.9091H252.955C252.955 51.6591 251.809 47.0337 249.425 43.1189L246.009 45.1993ZM248.955 56.9091C248.955 61.609 247.911 65.4259 245.937 68.468L249.292 70.6456C251.772 66.8241 252.955 62.2092 252.955 56.9091H248.955ZM245.932 68.4759C243.956 71.5521 241.171 73.8936 237.506 75.4972L239.109 79.1619C243.444 77.2654 246.864 74.4251 249.297 70.6378L245.932 68.4759ZM237.502 75.4989C233.829 77.1152 229.466 77.9545 224.365 77.9545V81.9545C229.899 81.9545 234.832 81.0439 239.113 79.1602L237.502 75.4989ZM224.365 77.9545H206.365V81.9545H224.365V77.9545ZM208.365 79.9545V65.2273H204.365V79.9545H208.365ZM206.365 67.2273H220.546V63.2273H206.365V67.2273ZM220.546 67.2273C222.926 67.2273 225.059 66.9373 226.897 66.2981L225.583 62.5201C224.284 62.9718 222.621 63.2273 220.546 63.2273V67.2273ZM226.912 66.2926C228.844 65.6026 230.426 64.4674 231.537 62.8464L228.237 60.5854C227.666 61.419 226.817 62.0792 225.567 62.5256L226.912 66.2926ZM231.523 62.8669C232.689 61.2103 233.183 59.1689 233.183 56.9091H229.183C229.183 58.6039 228.813 59.767 228.252 60.5649L231.523 62.8669ZM233.183 56.9091C233.183 54.6299 232.69 52.5725 231.533 50.8972L228.242 53.171C228.812 53.9957 229.183 55.1883 229.183 56.9091H233.183ZM231.556 50.9316C230.455 49.2651 228.878 48.085 226.936 47.3638L225.543 51.1135C226.783 51.5741 227.638 52.2576 228.219 53.1366L231.556 50.9316ZM226.968 47.3761C225.106 46.6475 222.947 46.3182 220.546 46.3182V50.3182C222.6 50.3182 224.236 50.6025 225.511 51.1011L226.968 47.3761ZM220.546 46.3182H213.865V50.3182H220.546V46.3182ZM211.865 48.3182V103H215.865V48.3182H211.865ZM213.865 101H194.91V105H213.865V101ZM234.063 71.9112L251.517 103.957L255.03 102.043L237.575 69.9979L234.063 71.9112ZM253.274 101H232.683V105H253.274V101ZM234.448 102.061L217.403 70.0153L213.872 71.8938L230.917 103.939L234.448 102.061ZM215.637 72.9545H235.819V68.9545H215.637V72.9545ZM284.851 103V105H286.337L286.766 103.578L284.851 103ZM264.397 103L262.498 102.373L261.631 105H264.397V103ZM287.442 33.1818V31.1818H285.996L285.543 32.5549L287.442 33.1818ZM313.351 33.1818L315.251 32.5549L314.797 31.1818H313.351V33.1818ZM336.397 103V105H339.163L338.296 102.373L336.397 103ZM315.942 103L314.028 103.578L314.457 105H315.942V103ZM300.67 52.4091L302.584 51.8311L302.155 50.4091H300.67V52.4091ZM300.124 52.4091V50.4091H298.639L298.209 51.8311L300.124 52.4091ZM281.033 75.4545V73.4545H279.033V75.4545H281.033ZM319.488 75.4545H321.488V73.4545H319.488V75.4545ZM319.488 89.6364V91.6364H321.488V89.6364H319.488ZM281.033 89.6364H279.033V91.6364H281.033V89.6364ZM284.851 101H264.397V105H284.851V101ZM266.296 103.627L289.341 33.8087L285.543 32.5549L262.498 102.373L266.296 103.627ZM287.442 35.1818H313.351V31.1818H287.442V35.1818ZM311.452 33.8087L334.498 103.627L338.296 102.373L315.251 32.5549L311.452 33.8087ZM336.397 101H315.942V105H336.397V101ZM317.857 102.422L302.584 51.8311L298.755 52.9871L314.028 103.578L317.857 102.422ZM300.67 50.4091H300.124V54.4091H300.67V50.4091ZM298.209 51.8311L282.937 102.422L286.766 103.578L302.039 52.9871L298.209 51.8311ZM281.033 77.4545H319.488V73.4545H281.033V77.4545ZM317.488 75.4545V89.6364H321.488V75.4545H317.488ZM319.488 87.6364H281.033V91.6364H319.488V87.6364ZM283.033 89.6364V75.4545H279.033V89.6364H283.033ZM351.074 103H349.074V105H351.074V103ZM351.074 92.5L349.473 91.3008L349.074 91.8339V92.5H351.074ZM384.074 48.4545L385.675 49.6538L388.072 46.4545H384.074V48.4545ZM351.21 48.4545H349.21V50.4545H351.21V48.4545ZM351.21 33.1818V31.1818H349.21V33.1818H351.21ZM408.21 33.1818H410.21V31.1818H408.21V33.1818ZM408.21 43.6818L409.811 44.881L410.21 44.3479V43.6818H408.21ZM375.21 87.7273L373.61 86.5281L371.213 89.7273H375.21V87.7273ZM408.074 87.7273H410.074V85.7273H408.074V87.7273ZM408.074 103V105H410.074V103H408.074ZM373.301 25.2045L371.943 26.6727L371.943 26.6727L373.301 25.2045ZM373.301 13.0682L371.943 11.6L371.943 11.6L373.301 13.0682ZM386.392 13.0682L385.025 14.5279L385.034 14.5364L386.392 13.0682ZM386.392 25.2045L385.034 23.7363L385.025 23.7449L386.392 25.2045ZM353.074 103V92.5H349.074V103H353.074ZM352.675 93.6992L385.675 49.6538L382.473 47.2553L349.473 91.3008L352.675 93.6992ZM384.074 46.4545H351.21V50.4545H384.074V46.4545ZM353.21 48.4545V33.1818H349.21V48.4545H353.21ZM351.21 35.1818H408.21V31.1818H351.21V35.1818ZM406.21 33.1818V43.6818H410.21V33.1818H406.21ZM406.61 42.4826L373.61 86.5281L376.811 88.9265L409.811 44.881L406.61 42.4826ZM375.21 89.7273H408.074V85.7273H375.21V89.7273ZM406.074 87.7273V103H410.074V87.7273H406.074ZM408.074 101H351.074V105H408.074V101ZM379.847 25.7273C377.789 25.7273 376.097 25.0659 374.659 23.7363L371.943 26.6727C374.142 28.7068 376.813 29.7273 379.847 29.7273V25.7273ZM374.659 23.7363C373.228 22.4126 372.574 20.9131 372.574 19.1364H368.574C368.574 22.0869 369.738 24.6328 371.943 26.6727L374.659 23.7363ZM372.574 19.1364C372.574 17.3596 373.228 15.8601 374.659 14.5364L371.943 11.6C369.738 13.6399 368.574 16.1859 368.574 19.1364H372.574ZM374.659 14.5364C376.097 13.2068 377.789 12.5455 379.847 12.5455V8.54545C376.813 8.54545 374.142 9.56592 371.943 11.6L374.659 14.5364ZM379.847 12.5455C381.932 12.5455 383.618 13.2097 385.025 14.5278L387.759 11.6085C385.576 9.56307 382.898 8.54545 379.847 8.54545V12.5455ZM385.034 14.5364C386.465 15.8601 387.119 17.3596 387.119 19.1364H391.119C391.119 16.1859 389.956 13.6399 387.75 11.6L385.034 14.5364ZM387.119 19.1364C387.119 20.9131 386.465 22.4126 385.034 23.7363L387.75 26.6727C389.956 24.6328 391.119 22.0869 391.119 19.1364H387.119ZM385.025 23.7449C383.618 25.0631 381.932 25.7273 379.847 25.7273V29.7273C382.898 29.7273 385.576 28.7097 387.759 26.6642L385.025 23.7449ZM425.138 103H423.138V105H425.138V103ZM425.138 33.1818V31.1818H423.138V33.1818H425.138ZM475.456 33.1818H477.456V31.1818H475.456V33.1818ZM475.456 48.4545V50.4545H477.456V48.4545H475.456ZM444.092 48.4545V46.4545H442.092V48.4545H444.092ZM444.092 60.4545H442.092V62.4545H444.092V60.4545ZM472.865 60.4545H474.865V58.4545H472.865V60.4545ZM472.865 75.7273V77.7273H474.865V75.7273H472.865ZM444.092 75.7273V73.7273H442.092V75.7273H444.092ZM444.092 87.7273H442.092V89.7273H444.092V87.7273ZM475.319 87.7273H477.319V85.7273H475.319V87.7273ZM475.319 103V105H477.319V103H475.319ZM427.138 103V33.1818H423.138V103H427.138ZM425.138 35.1818H475.456V31.1818H425.138V35.1818ZM473.456 33.1818V48.4545H477.456V33.1818H473.456ZM475.456 46.4545H444.092V50.4545H475.456V46.4545ZM442.092 48.4545V60.4545H446.092V48.4545H442.092ZM444.092 62.4545H472.865V58.4545H444.092V62.4545ZM470.865 60.4545V75.7273H474.865V60.4545H470.865ZM472.865 73.7273H444.092V77.7273H472.865V73.7273ZM442.092 75.7273V87.7273H446.092V75.7273H442.092ZM444.092 89.7273H475.319V85.7273H444.092V89.7273ZM473.319 87.7273V103H477.319V87.7273H473.319ZM475.319 101H425.138V105H475.319V101Z" fill="white" mask="url(#path-1-outside-1_94_248)"/>
</svg>
