<svg width="380" height="116" viewBox="0 0 380 116" fill="none" xmlns="http://www.w3.org/2000/svg">
<mask id="path-1-outside-1_94_248" maskUnits="userSpaceOnUse" x="26" y="20" width="333" height="76" fill="black">
<rect fill="white" x="26" y="20" width="333" height="76"/>
<path d="M55.0155 93H28.1519V23.1818H54.7428C61.9246 23.1818 68.1291 24.5795 73.3564 27.375C78.6064 30.1477 82.6519 34.1477 85.4928 39.375C88.3564 44.5795 89.7882 50.8182 89.7882 58.0909C89.7882 65.3636 88.3678 71.6136 85.5269 76.8409C82.686 82.0455 78.6632 86.0455 73.4587 88.8409C68.2541 91.6136 62.1064 93 55.0155 93ZM47.1064 76.9091H54.3337C57.7882 76.9091 60.7314 76.3523 63.1632 75.2386C65.6178 74.125 67.4814 72.2045 68.7541 69.4773C70.0496 66.75 70.6973 62.9545 70.6973 58.0909C70.6973 53.2273 70.0382 49.4318 68.7201 46.7045C67.4246 43.9773 65.5155 42.0568 62.9928 40.9432C60.4928 39.8295 57.4246 39.2727 53.7882 39.2727H47.1064V76.9091ZM173.874 58.0909C173.874 65.8636 172.363 72.4205 169.34 77.7614C166.318 83.0795 162.238 87.1136 157.102 89.8636C151.965 92.5909 146.238 93.9545 139.92 93.9545C133.556 93.9545 127.806 92.5795 122.67 89.8295C117.556 87.0568 113.488 83.0114 110.465 77.6932C107.465 72.3523 105.965 65.8182 105.965 58.0909C105.965 50.3182 107.465 43.7727 110.465 38.4545C113.488 33.1136 117.556 29.0795 122.67 26.3523C127.806 23.6023 133.556 22.2273 139.92 22.2273C146.238 22.2273 151.965 23.6023 157.102 26.3523C162.238 29.0795 166.318 33.1136 169.34 38.4545C172.363 43.7727 173.874 50.3182 173.874 58.0909ZM154.374 58.0909C154.374 53.9091 153.818 50.3864 152.704 47.5227C151.613 44.6364 149.988 42.4545 147.829 40.9773C145.693 39.4773 143.056 38.7273 139.92 38.7273C136.784 38.7273 134.136 39.4773 131.977 40.9773C129.84 42.4545 128.215 44.6364 127.102 47.5227C126.011 50.3864 125.465 53.9091 125.465 58.0909C125.465 62.2727 126.011 65.8068 127.102 68.6932C128.215 71.5568 129.84 73.7386 131.977 75.2386C134.136 76.7159 136.784 77.4545 139.92 77.4545C143.056 77.4545 145.693 76.7159 147.829 75.2386C149.988 73.7386 151.613 71.5568 152.704 68.6932C153.818 65.8068 154.374 62.2727 154.374 58.0909ZM190.324 23.1818H213.915L230.143 62.7273H230.961L247.188 23.1818H270.779V93H252.233V52.6364H251.688L236.143 92.4545H224.961L209.415 52.3636H208.87V93H190.324V23.1818ZM284.578 23.1818H305.715L319.351 51.5455H319.896L333.533 23.1818H354.669L329.033 71.0455V93H310.215V71.0455L284.578 23.1818Z"/>
</mask>
<path d="M28.1519 93H26.1519V95H28.1519V93ZM28.1519 23.1818V21.1818H26.1519V23.1818H28.1519ZM73.3564 27.375L72.4132 29.1387L72.4224 29.1435L73.3564 27.375ZM85.4928 39.375L83.7355 40.33L83.7405 40.3391L85.4928 39.375ZM85.5269 76.8409L87.2824 77.7992L87.2841 77.7959L85.5269 76.8409ZM73.4587 88.8409L74.3991 90.6061L74.4051 90.6028L73.4587 88.8409ZM47.1064 76.9091H45.1064V78.9091H47.1064V76.9091ZM63.1632 75.2386L62.3369 73.4173L62.3305 73.4202L63.1632 75.2386ZM68.7541 69.4773L66.9475 68.6191L66.9418 68.6315L68.7541 69.4773ZM68.7201 46.7045L66.9135 47.5627L66.9194 47.5749L68.7201 46.7045ZM62.9928 40.9432L62.179 42.7701L62.1851 42.7728L62.9928 40.9432ZM47.1064 39.2727V37.2727H45.1064V39.2727H47.1064ZM55.0155 91H28.1519V95H55.0155V91ZM30.1519 93V23.1818H26.1519V93H30.1519ZM28.1519 25.1818H54.7428V21.1818H28.1519V25.1818ZM54.7428 25.1818C61.6646 25.1818 67.5315 26.5279 72.4133 29.1386L74.2996 25.6114C68.7268 22.6311 62.1846 21.1818 54.7428 21.1818V25.1818ZM72.4224 29.1435C77.3231 31.7317 81.0825 35.4484 83.7355 40.33L87.25 38.42C84.2213 32.8471 79.8898 28.5637 74.2904 25.6065L72.4224 29.1435ZM83.7405 40.3391C86.409 45.189 87.7882 51.0804 87.7882 58.0909H91.7882C91.7882 50.556 90.3038 43.9701 87.2451 38.4109L83.7405 40.3391ZM87.7882 58.0909C87.7882 65.1035 86.4195 71.0101 83.7696 75.8859L87.2841 77.7959C90.3161 72.2171 91.7882 65.6238 91.7882 58.0909H87.7882ZM83.7714 75.8827C81.1157 80.7478 77.3735 84.4679 72.5123 87.079L74.4051 90.6028C79.9529 87.623 84.2562 83.3431 87.2824 77.7991L83.7714 75.8827ZM72.5183 87.0758C67.6563 89.666 61.8444 91 55.0155 91V95C62.3684 95 68.8519 93.5613 74.3991 90.606L72.5183 87.0758ZM47.1064 78.9091H54.3337V74.9091H47.1064V78.9091ZM54.3337 78.9091C57.9951 78.9091 61.2384 78.3198 63.996 77.057L62.3305 73.4202C60.2244 74.3847 57.5814 74.9091 54.3337 74.9091V78.9091ZM63.9896 77.0599C66.9299 75.7259 69.1172 73.4288 70.5665 70.323L66.9418 68.6315C65.8457 70.9803 64.3057 72.5241 62.3369 73.4173L63.9896 77.0599ZM70.5607 70.3354C72.0381 67.2251 72.6973 63.0906 72.6973 58.0909H68.6973C68.6973 62.8185 68.0611 66.2749 66.9476 68.6192L70.5607 70.3354ZM72.6973 58.0909C72.6973 53.0881 72.026 48.9486 70.5208 45.8342L66.9194 47.5749C68.0504 49.9151 68.6973 53.3664 68.6973 58.0909H72.6973ZM70.5266 45.8464C69.0464 42.7303 66.8047 40.4397 63.8005 39.1135L62.1851 42.7728C64.2263 43.6739 65.8028 45.2243 66.9135 47.5627L70.5266 45.8464ZM63.8066 39.1162C60.981 37.8576 57.6174 37.2727 53.7882 37.2727V41.2727C57.2318 41.2727 60.0045 41.8015 62.179 42.7701L63.8066 39.1162ZM53.7882 37.2727H47.1064V41.2727H53.7882V37.2727ZM45.1064 39.2727V76.9091H49.1064V39.2727H45.1064ZM169.34 77.7614L171.079 78.7496L171.081 78.7465L169.34 77.7614ZM157.102 89.8636L158.04 91.6301L158.046 91.6268L157.102 89.8636ZM122.67 89.8295L121.717 91.5877L121.726 91.5927L122.67 89.8295ZM110.465 77.6932L108.722 78.6727L108.727 78.6815L110.465 77.6932ZM110.465 38.4545L108.725 37.4695L108.723 37.4719L110.465 38.4545ZM122.67 26.3523L123.611 28.117L123.614 28.1155L122.67 26.3523ZM157.102 26.3523L156.158 28.1155L156.164 28.1187L157.102 26.3523ZM169.34 38.4545L167.6 39.4396L167.602 39.4428L169.34 38.4545ZM152.704 47.5227L150.833 48.2298L150.837 48.2387L150.84 48.2476L152.704 47.5227ZM147.829 40.9773L146.68 42.6141L146.69 42.6211L146.7 42.6279L147.829 40.9773ZM131.977 40.9773L133.114 42.6223L133.118 42.6198L131.977 40.9773ZM127.102 47.5227L125.236 46.8028L125.233 46.8107L127.102 47.5227ZM127.102 68.6932L125.231 69.4003L125.234 69.4092L125.238 69.4181L127.102 68.6932ZM131.977 75.2386L130.827 76.8755L130.837 76.8824L130.847 76.8893L131.977 75.2386ZM147.829 75.2386L148.967 76.8837L148.97 76.8812L147.829 75.2386ZM152.704 68.6932L150.838 67.9732L150.835 67.9812L152.704 68.6932ZM171.874 58.0909C171.874 65.6088 170.413 71.8058 167.6 76.7763L171.081 78.7465C174.313 73.0352 175.874 66.1185 175.874 58.0909H171.874ZM167.602 76.7731C164.756 81.7803 160.944 85.5377 156.158 88.1004L158.046 91.6268C163.532 88.6896 167.88 84.3788 171.079 78.7496L167.602 76.7731ZM156.164 88.0972C151.341 90.6581 145.94 91.9545 139.92 91.9545V95.9545C146.536 95.9545 152.59 94.5237 158.04 91.6301L156.164 88.0972ZM139.92 91.9545C133.855 91.9545 128.434 90.6469 123.614 88.0664L121.726 91.5927C127.179 94.5122 133.258 95.9545 139.92 95.9545V91.9545ZM123.623 88.0714C118.856 85.4862 115.052 81.7157 112.204 76.7049L108.727 78.6815C111.924 84.3071 116.257 88.6274 121.717 91.5877L123.623 88.0714ZM112.209 76.7137C109.416 71.7404 107.965 65.5633 107.965 58.0909H103.965C103.965 66.0731 105.515 72.9642 108.722 78.6726L112.209 76.7137ZM107.965 58.0909C107.965 50.5704 109.417 44.3843 112.207 39.4372L108.723 37.4719C105.514 43.1611 103.965 50.066 103.965 58.0909H107.965ZM112.206 39.4396C115.053 34.4088 118.853 30.6548 123.611 28.117L121.729 24.5876C116.26 27.5043 111.923 31.8184 108.725 37.4695L112.206 39.4396ZM123.614 28.1155C128.434 25.535 133.855 24.2273 139.92 24.2273V20.2273C133.258 20.2273 127.179 21.6696 121.726 24.5891L123.614 28.1155ZM139.92 24.2273C145.937 24.2273 151.336 25.5338 156.158 28.1155L158.046 24.5891C152.595 21.6707 146.539 20.2273 139.92 20.2273V24.2273ZM156.164 28.1187C160.945 30.6572 164.754 34.4111 167.6 39.4396L171.081 37.4695C167.881 31.8162 163.532 27.5019 158.04 24.5858L156.164 28.1187ZM167.602 39.4428C170.413 44.3888 171.874 50.5726 171.874 58.0909H175.874C175.874 50.0637 174.313 43.1567 171.079 37.4663L167.602 39.4428ZM156.374 58.0909C156.374 53.7449 155.798 49.9595 154.568 46.7978L150.84 48.2476C151.838 50.8132 152.374 54.0733 152.374 58.0909H156.374ZM154.575 46.8156C153.366 43.6168 151.513 41.0743 148.958 39.3267L146.7 42.6279C148.464 43.8348 149.86 45.656 150.833 48.2298L154.575 46.8156ZM148.978 39.3404C146.442 37.5598 143.383 36.7273 139.92 36.7273V40.7273C142.73 40.7273 144.943 41.3948 146.68 42.6141L148.978 39.3404ZM139.92 36.7273C136.456 36.7273 133.39 37.56 130.836 39.3348L133.118 42.6198C134.881 41.3945 137.111 40.7273 139.92 40.7273V36.7273ZM130.839 39.3323C128.314 41.0786 126.466 43.6149 125.236 46.8028L128.968 48.2427C129.965 45.6578 131.367 43.8305 133.114 42.6223L130.839 39.3323ZM125.233 46.8107C124.03 49.9681 123.465 53.7486 123.465 58.0909H127.465C127.465 54.0696 127.992 50.8046 128.971 48.2347L125.233 46.8107ZM123.465 58.0909C123.465 62.434 124.03 66.2234 125.231 69.4003L128.973 67.9861C127.991 65.3903 127.465 62.1115 127.465 58.0909H123.465ZM125.238 69.4181C126.469 72.5831 128.314 75.1109 130.827 76.8755L133.126 73.6018C131.366 72.3664 129.962 70.5306 128.966 67.9683L125.238 69.4181ZM130.847 76.8893C133.401 78.6362 136.462 79.4545 139.92 79.4545V75.4545C137.105 75.4545 134.871 74.7956 133.106 73.588L130.847 76.8893ZM139.92 79.4545C143.377 79.4545 146.432 78.6365 148.967 76.8837L146.692 73.5936C144.954 74.7953 142.736 75.4545 139.92 75.4545V79.4545ZM148.97 76.8812C151.512 75.1151 153.363 72.5812 154.573 69.4052L150.835 67.9812C149.863 70.5324 148.464 72.3621 146.688 73.5961L148.97 76.8812ZM154.57 69.4131C155.797 66.2319 156.374 62.4377 156.374 58.0909H152.374C152.374 62.1077 151.838 65.3818 150.838 67.9733L154.57 69.4131ZM190.324 23.1818V21.1818H188.324V23.1818H190.324ZM213.915 23.1818L215.766 22.4226L215.256 21.1818H213.915V23.1818ZM230.143 62.7273L228.292 63.4865L228.801 64.7273H230.143V62.7273ZM230.961 62.7273V64.7273H232.302L232.811 63.4865L230.961 62.7273ZM247.188 23.1818V21.1818H245.847L245.338 22.4226L247.188 23.1818ZM270.779 23.1818H272.779V21.1818H270.779V23.1818ZM270.779 93V95H272.779V93H270.779ZM252.233 93H250.233V95H252.233V93ZM252.233 52.6364H254.233V50.6364H252.233V52.6364ZM251.688 52.6364V50.6364H250.322L249.825 51.909L251.688 52.6364ZM236.143 92.4545V94.4545H237.509L238.006 93.1819L236.143 92.4545ZM224.961 92.4545L223.096 93.1776L223.591 94.4545H224.961V92.4545ZM209.415 52.3636L211.28 51.6406L210.785 50.3636H209.415V52.3636ZM208.87 52.3636V50.3636H206.87V52.3636H208.87ZM208.87 93V95H210.87V93H208.87ZM190.324 93H188.324V95H190.324V93ZM190.324 25.1818H213.915V21.1818H190.324V25.1818ZM212.065 23.9411L228.292 63.4865L231.993 61.968L215.766 22.4226L212.065 23.9411ZM230.143 64.7273H230.961V60.7273H230.143V64.7273ZM232.811 63.4865L249.038 23.9411L245.338 22.4226L229.11 61.968L232.811 63.4865ZM247.188 25.1818H270.779V21.1818H247.188V25.1818ZM268.779 23.1818V93H272.779V23.1818H268.779ZM270.779 91H252.233V95H270.779V91ZM254.233 93V52.6364H250.233V93H254.233ZM252.233 50.6364H251.688V54.6364H252.233V50.6364ZM249.825 51.909L234.28 91.7272L238.006 93.1819L253.551 53.3637L249.825 51.909ZM236.143 90.4545H224.961V94.4545H236.143V90.4545ZM226.825 91.7315L211.28 51.6406L207.551 53.0867L223.096 93.1776L226.825 91.7315ZM209.415 50.3636H208.87V54.3636H209.415V50.3636ZM206.87 52.3636V93H210.87V52.3636H206.87ZM208.87 91H190.324V95H208.87V91ZM192.324 93V23.1818H188.324V93H192.324ZM284.578 23.1818V21.1818H281.238L282.815 24.1261L284.578 23.1818ZM305.715 23.1818L307.517 22.3152L306.972 21.1818H305.715V23.1818ZM319.351 51.5455L317.548 52.412L318.093 53.5455H319.351V51.5455ZM319.896 51.5455V53.5455H321.154L321.699 52.412L319.896 51.5455ZM333.533 23.1818V21.1818H332.275L331.73 22.3152L333.533 23.1818ZM354.669 23.1818L356.432 24.1261L358.009 21.1818H354.669V23.1818ZM329.033 71.0455L327.27 70.1012L327.033 70.5436V71.0455H329.033ZM329.033 93V95H331.033V93H329.033ZM310.215 93H308.215V95H310.215V93ZM310.215 71.0455H312.215V70.5436L311.978 70.1012L310.215 71.0455ZM284.578 25.1818H305.715V21.1818H284.578V25.1818ZM303.912 24.0484L317.548 52.412L321.153 50.6789L307.517 22.3152L303.912 24.0484ZM319.351 53.5455H319.896V49.5455H319.351V53.5455ZM321.699 52.412L335.335 24.0484L331.73 22.3152L318.094 50.6789L321.699 52.412ZM333.533 25.1818H354.669V21.1818H333.533V25.1818ZM352.906 22.2375L327.27 70.1012L330.796 71.9898L356.432 24.1261L352.906 22.2375ZM327.033 71.0455V93H331.033V71.0455H327.033ZM329.033 91H310.215V95H329.033V91ZM312.215 93V71.0455H308.215V93H312.215ZM311.978 70.1012L286.341 22.2375L282.815 24.1261L308.452 71.9898L311.978 70.1012Z" fill="white" mask="url(#path-1-outside-1_94_248)"/>
</svg>
