<svg width="1081" height="116" viewBox="0 0 1081 116" fill="none" xmlns="http://www.w3.org/2000/svg">
<mask id="path-1-outside-1_94_248" maskUnits="userSpaceOnUse" x="2" y="20" width="1076" height="76" fill="black">
<rect fill="white" x="2" y="20" width="1076" height="76"/>
<path d="M64.9091 23.1818V93H49.0909L23.8636 56.3182H23.4545V93H4.5V23.1818H20.5909L45.4091 59.7273H45.9545V23.1818H64.9091ZM99.6914 93H79.2368L102.282 23.1818H128.191L151.237 93H130.782L115.51 42.4091H114.964L99.6914 93ZM95.8732 65.4545H134.328V79.6364H95.8732V65.4545ZM200.559 45C200.377 42.7273 199.525 40.9545 198.002 39.6818C196.502 38.4091 194.218 37.7727 191.15 37.7727C189.195 37.7727 187.593 38.0114 186.343 38.4886C185.116 38.9432 184.207 39.5682 183.616 40.3636C183.025 41.1591 182.718 42.0682 182.695 43.0909C182.65 43.9318 182.798 44.6932 183.138 45.375C183.502 46.0341 184.07 46.6364 184.843 47.1818C185.616 47.7045 186.604 48.1818 187.809 48.6136C189.013 49.0455 190.445 49.4318 192.104 49.7727L197.832 51C201.695 51.8182 205.002 52.8977 207.752 54.2386C210.502 55.5795 212.752 57.1591 214.502 58.9773C216.252 60.7727 217.536 62.7955 218.354 65.0455C219.195 67.2955 219.627 69.75 219.65 72.4091C219.627 77 218.479 80.8864 216.207 84.0682C213.934 87.25 210.684 89.6705 206.457 91.3295C202.252 92.9886 197.195 93.8182 191.286 93.8182C185.218 93.8182 179.923 92.9205 175.4 91.125C170.9 89.3295 167.4 86.5682 164.9 82.8409C162.423 79.0909 161.173 74.2955 161.15 68.4545H179.15C179.263 70.5909 179.798 72.3864 180.752 73.8409C181.707 75.2955 183.048 76.3977 184.775 77.1477C186.525 77.8977 188.604 78.2727 191.013 78.2727C193.036 78.2727 194.729 78.0227 196.093 77.5227C197.457 77.0227 198.491 76.3295 199.195 75.4432C199.9 74.5568 200.263 73.5455 200.286 72.4091C200.263 71.3409 199.911 70.4091 199.229 69.6136C198.57 68.7955 197.479 68.0682 195.957 67.4318C194.434 66.7727 192.377 66.1591 189.786 65.5909L182.832 64.0909C176.65 62.75 171.775 60.5114 168.207 57.375C164.661 54.2159 162.9 49.9091 162.923 44.4545C162.9 40.0227 164.082 36.1477 166.468 32.8295C168.877 29.4886 172.207 26.8864 176.457 25.0227C180.729 23.1591 185.627 22.2273 191.15 22.2273C196.786 22.2273 201.661 23.1705 205.775 25.0568C209.888 26.9432 213.059 29.6023 215.286 33.0341C217.536 36.4432 218.673 40.4318 218.695 45H200.559ZM234.813 93V82.5L267.813 38.4545H234.949V23.1818H291.949V33.6818L258.949 77.7273H291.813V93H234.813ZM308.876 93V23.1818H359.194V38.4545H327.831V50.4545H356.604V65.7273H327.831V77.7273H359.058V93H308.876ZM403.08 93V23.1818H433.216C438.398 23.1818 442.932 24.125 446.819 26.0114C450.705 27.8977 453.728 30.6136 455.887 34.1591C458.046 37.7045 459.125 41.9545 459.125 46.9091C459.125 51.9091 458.012 56.125 455.785 59.5568C453.58 62.9886 450.478 65.5795 446.478 67.3295C442.5 69.0795 437.853 69.9545 432.535 69.9545H414.535V55.2273H428.716C430.944 55.2273 432.841 54.9545 434.41 54.4091C436 53.8409 437.216 52.9432 438.057 51.7159C438.921 50.4886 439.353 48.8864 439.353 46.9091C439.353 44.9091 438.921 43.2841 438.057 42.0341C437.216 40.7614 436 39.8295 434.41 39.2386C432.841 38.625 430.944 38.3182 428.716 38.3182H422.035V93H403.08ZM443.989 60.9545L461.444 93H440.853L423.807 60.9545H443.989ZM474.885 93V23.1818H525.203V38.4545H493.84V50.4545H522.612V65.7273H493.84V77.7273H525.067V93H474.885ZM560.42 93H539.966L563.011 23.1818H588.92L611.966 93H591.511L576.238 42.4091H575.693L560.42 93ZM556.602 65.4545H595.056V79.6364H556.602V65.4545ZM626.37 93V23.1818H645.325V77.7273H673.552V93H626.37ZM707.848 23.1818V93H688.894V23.1818H707.848ZM724.784 93V82.5L757.784 38.4545H724.92V23.1818H781.92V33.6818L748.92 77.7273H781.784V93H724.784ZM816.984 93H796.529L819.575 23.1818H845.484L868.529 93H848.075L832.802 42.4091H832.257L816.984 93ZM813.166 65.4545H851.62V79.6364H813.166V65.4545ZM944.834 49.3636H925.607C925.471 47.7727 925.107 46.3295 924.516 45.0341C923.948 43.7386 923.153 42.625 922.13 41.6932C921.13 40.7386 919.914 40.0114 918.482 39.5114C917.05 38.9886 915.425 38.7273 913.607 38.7273C910.425 38.7273 907.732 39.5 905.528 41.0455C903.346 42.5909 901.687 44.8068 900.55 47.6932C899.437 50.5795 898.88 54.0455 898.88 58.0909C898.88 62.3636 899.448 65.9432 900.584 68.8295C901.743 71.6932 903.414 73.8523 905.596 75.3068C907.778 76.7386 910.403 77.4545 913.471 77.4545C915.221 77.4545 916.789 77.2386 918.175 76.8068C919.562 76.3523 920.766 75.7045 921.789 74.8636C922.812 74.0227 923.641 73.0114 924.278 71.8295C924.937 70.625 925.38 69.2727 925.607 67.7727L944.834 67.9091C944.607 70.8636 943.778 73.875 942.346 76.9432C940.914 79.9886 938.88 82.8068 936.243 85.3977C933.63 87.9659 930.391 90.0341 926.528 91.6023C922.664 93.1705 918.175 93.9545 913.062 93.9545C906.653 93.9545 900.903 92.5795 895.812 89.8295C890.743 87.0795 886.732 83.0341 883.778 77.6932C880.846 72.3523 879.38 65.8182 879.38 58.0909C879.38 50.3182 880.88 43.7727 883.88 38.4545C886.88 33.1136 890.925 29.0795 896.016 26.3523C901.107 23.6023 906.789 22.2273 913.062 22.2273C917.471 22.2273 921.528 22.8295 925.232 24.0341C928.937 25.2386 932.187 27 934.982 29.3182C937.778 31.6136 940.028 34.4432 941.732 37.8068C943.437 41.1705 944.471 45.0227 944.834 49.3636ZM989.886 23.1818H1008.57V71.0455C1008.55 75.5909 1007.4 79.5909 1005.13 83.0455C1002.88 86.4773 999.761 89.1591 995.784 91.0909C991.83 93 987.273 93.9545 982.114 93.9545C977.636 93.9545 973.546 93.1818 969.841 91.6364C966.136 90.0682 963.182 87.6136 960.977 84.2727C958.773 80.9091 957.682 76.5455 957.705 71.1818H976.659C976.727 72.9318 977.023 74.4091 977.546 75.6136C978.091 76.8182 978.841 77.7273 979.796 78.3409C980.773 78.9318 981.955 79.2273 983.341 79.2273C984.75 79.2273 985.932 78.9205 986.886 78.3068C987.864 77.6932 988.602 76.7841 989.102 75.5795C989.602 74.3523 989.864 72.8409 989.886 71.0455V23.1818ZM1025.23 93V23.1818H1075.55V38.4545H1044.19V50.4545H1072.96V65.7273H1044.19V77.7273H1075.41V93H1025.23Z"/>
</mask>
<path d="M64.9091 23.1818H66.9091V21.1818H64.9091V23.1818ZM64.9091 93V95H66.9091V93H64.9091ZM49.0909 93L47.443 94.1333L48.039 95H49.0909V93ZM23.8636 56.3182L25.5115 55.1849L24.9155 54.3182H23.8636V56.3182ZM23.4545 56.3182V54.3182H21.4545V56.3182H23.4545ZM23.4545 93V95H25.4545V93H23.4545ZM4.5 93H2.5V95H4.5V93ZM4.5 23.1818V21.1818H2.5V23.1818H4.5ZM20.5909 23.1818L22.2455 22.0582L21.6503 21.1818H20.5909V23.1818ZM45.4091 59.7273L43.7546 60.8509L44.3497 61.7273H45.4091V59.7273ZM45.9545 59.7273V61.7273H47.9545V59.7273H45.9545ZM45.9545 23.1818V21.1818H43.9545V23.1818H45.9545ZM62.9091 23.1818V93H66.9091V23.1818H62.9091ZM64.9091 91H49.0909V95H64.9091V91ZM50.7388 91.8667L25.5115 55.1849L22.2157 57.4515L47.443 94.1333L50.7388 91.8667ZM23.8636 54.3182H23.4545V58.3182H23.8636V54.3182ZM21.4545 56.3182V93H25.4545V56.3182H21.4545ZM23.4545 91H4.5V95H23.4545V91ZM6.5 93V23.1818H2.5V93H6.5ZM4.5 25.1818H20.5909V21.1818H4.5V25.1818ZM18.9364 24.3054L43.7546 60.8509L47.0636 58.6037L22.2455 22.0582L18.9364 24.3054ZM45.4091 61.7273H45.9545V57.7273H45.4091V61.7273ZM47.9545 59.7273V23.1818H43.9545V59.7273H47.9545ZM45.9545 25.1818H64.9091V21.1818H45.9545V25.1818ZM99.6914 93V95H101.177L101.606 93.578L99.6914 93ZM79.2368 93L77.3376 92.3731L76.4705 95H79.2368V93ZM102.282 23.1818V21.1818H100.836L100.383 22.5549L102.282 23.1818ZM128.191 23.1818L130.091 22.5549L129.637 21.1818H128.191V23.1818ZM151.237 93V95H154.003L153.136 92.3731L151.237 93ZM130.782 93L128.868 93.578L129.297 95H130.782V93ZM115.51 42.4091L117.424 41.8311L116.995 40.4091H115.51V42.4091ZM114.964 42.4091V40.4091H113.479L113.049 41.8311L114.964 42.4091ZM95.8732 65.4545V63.4545H93.8732V65.4545H95.8732ZM134.328 65.4545H136.328V63.4545H134.328V65.4545ZM134.328 79.6364V81.6364H136.328V79.6364H134.328ZM95.8732 79.6364H93.8732V81.6364H95.8732V79.6364ZM99.6914 91H79.2368V95H99.6914V91ZM81.136 93.6269L104.181 23.8087L100.383 22.5549L77.3376 92.3731L81.136 93.6269ZM102.282 25.1818H128.191V21.1818H102.282V25.1818ZM126.292 23.8087L149.338 93.6269L153.136 92.3731L130.091 22.5549L126.292 23.8087ZM151.237 91H130.782V95H151.237V91ZM132.697 92.422L117.424 41.8311L113.595 42.9871L128.868 93.578L132.697 92.422ZM115.51 40.4091H114.964V44.4091H115.51V40.4091ZM113.049 41.8311L97.7767 92.422L101.606 93.578L116.879 42.9871L113.049 41.8311ZM95.8732 67.4545H134.328V63.4545H95.8732V67.4545ZM132.328 65.4545V79.6364H136.328V65.4545H132.328ZM134.328 77.6364H95.8732V81.6364H134.328V77.6364ZM97.8732 79.6364V65.4545H93.8732V79.6364H97.8732ZM200.559 45L198.565 45.1595L198.712 47H200.559V45ZM198.002 39.6818L196.708 41.2068L196.714 41.2116L196.719 41.2164L198.002 39.6818ZM186.343 38.4886L187.038 40.3641L187.047 40.3606L187.056 40.3571L186.343 38.4886ZM183.616 40.3636L182.01 39.171L182.01 39.171L183.616 40.3636ZM182.695 43.0909L184.692 43.1989L184.694 43.1671L184.695 43.1353L182.695 43.0909ZM183.138 45.375L181.35 46.2694L181.368 46.3057L181.387 46.3412L183.138 45.375ZM184.843 47.1818L183.69 48.8158L183.706 48.8272L183.722 48.8384L184.843 47.1818ZM192.104 49.7727L192.523 47.8171L192.515 47.8154L192.507 47.8137L192.104 49.7727ZM197.832 51L197.413 52.9556L197.417 52.9566L197.832 51ZM214.502 58.9773L213.061 60.3642L213.07 60.3732L214.502 58.9773ZM218.354 65.0455L216.475 65.7289L216.478 65.7373L216.481 65.7456L218.354 65.0455ZM219.65 72.4091L221.65 72.419L221.65 72.4055L221.65 72.392L219.65 72.4091ZM216.207 84.0682L217.834 85.2307L217.834 85.2307L216.207 84.0682ZM206.457 91.3295L205.726 89.4678L205.722 89.4691L206.457 91.3295ZM175.4 91.125L174.659 92.9826L174.662 92.9839L175.4 91.125ZM164.9 82.8409L163.231 83.9433L163.239 83.955L164.9 82.8409ZM161.15 68.4545V66.4545H159.142L159.15 68.4623L161.15 68.4545ZM179.15 68.4545L181.147 68.3483L181.046 66.4545H179.15V68.4545ZM180.752 73.8409L179.08 74.9382L179.08 74.9382L180.752 73.8409ZM184.775 77.1477L183.978 78.9823L183.987 78.986L184.775 77.1477ZM196.093 77.5227L196.781 79.4005L196.781 79.4005L196.093 77.5227ZM199.195 75.4432L200.761 76.6877L200.761 76.6877L199.195 75.4432ZM200.286 72.4091L202.286 72.4491L202.287 72.4078L202.286 72.3665L200.286 72.4091ZM199.229 69.6136L197.672 70.8683L197.691 70.8921L197.711 70.9152L199.229 69.6136ZM195.957 67.4318L195.162 69.2673L195.174 69.2723L195.185 69.2772L195.957 67.4318ZM189.786 65.5909L190.215 63.6373L190.208 63.6359L189.786 65.5909ZM182.832 64.0909L182.408 66.0455L182.41 66.046L182.832 64.0909ZM168.207 57.375L166.876 58.8683L166.886 58.8772L168.207 57.375ZM162.923 44.4545L164.922 44.4629L164.923 44.4536L164.922 44.4443L162.923 44.4545ZM166.468 32.8295L164.846 31.6598L164.844 31.6618L166.468 32.8295ZM176.457 25.0227L175.657 23.1895L175.653 23.1911L176.457 25.0227ZM205.775 25.0568L204.941 26.8748L204.941 26.8748L205.775 25.0568ZM215.286 33.0341L213.608 34.1229L213.613 34.1294L213.617 34.1358L215.286 33.0341ZM218.695 45V47H220.705L220.695 44.99L218.695 45ZM202.552 44.8405C202.335 42.1192 201.282 39.8164 199.285 38.1473L196.719 41.2164C197.768 42.0927 198.419 43.3353 198.565 45.1595L202.552 44.8405ZM199.296 38.1568C197.28 36.4464 194.44 35.7727 191.15 35.7727V39.7727C193.996 39.7727 195.724 40.3717 196.708 41.2068L199.296 38.1568ZM191.15 35.7727C189.054 35.7727 187.187 36.0257 185.63 36.6202L187.056 40.3571C187.999 39.997 189.337 39.7727 191.15 39.7727V35.7727ZM185.648 36.6131C184.172 37.1599 182.895 37.9793 182.01 39.171L185.221 41.5563C185.518 41.1571 186.059 40.7264 187.038 40.3641L185.648 36.6131ZM182.01 39.171C181.164 40.3104 180.727 41.6237 180.696 43.0465L184.695 43.1353C184.709 42.5126 184.886 42.0078 185.221 41.5563L182.01 39.171ZM180.698 42.983C180.636 44.1332 180.838 45.2455 181.35 46.2694L184.927 44.4806C184.757 44.1408 184.664 43.7304 184.692 43.1989L180.698 42.983ZM181.387 46.3412C181.93 47.3242 182.731 48.1394 183.69 48.8158L185.996 45.5479C185.409 45.1334 185.074 44.7439 184.89 44.4088L181.387 46.3412ZM183.722 48.8384C184.674 49.4822 185.826 50.0274 187.134 50.4963L188.484 46.731C187.383 46.3363 186.557 45.9269 185.964 45.5252L183.722 48.8384ZM187.134 50.4963C188.45 50.9683 189.978 51.3776 191.702 51.7318L192.507 47.8137C190.913 47.4861 189.576 47.1226 188.484 46.731L187.134 50.4963ZM191.685 51.7283L197.413 52.9556L198.251 49.0444L192.523 47.8171L191.685 51.7283ZM197.417 52.9566C201.165 53.7502 204.308 54.7843 206.875 56.0363L208.629 52.441C205.696 51.0111 202.226 49.8862 198.246 49.0434L197.417 52.9566ZM206.875 56.0363C209.458 57.2956 211.504 58.7466 213.061 60.3642L215.943 57.5903C214 55.5716 211.546 53.8635 208.629 52.441L206.875 56.0363ZM213.07 60.3732C214.631 61.9754 215.758 63.758 216.475 65.7289L220.234 64.362C219.314 61.8329 217.873 59.57 215.934 57.5813L213.07 60.3732ZM216.481 65.7456C217.232 67.7549 217.629 69.9755 217.65 72.4262L221.65 72.392C221.625 69.5245 221.159 66.836 220.228 64.3453L216.481 65.7456ZM217.65 72.3992C217.629 76.6507 216.572 80.1159 214.579 82.9057L217.834 85.2307C220.387 81.6568 221.625 77.3493 221.65 72.419L217.65 72.3992ZM214.579 82.9057C212.566 85.7243 209.652 87.9268 205.726 89.4678L207.187 93.1913C211.715 91.4141 215.302 88.7757 217.834 85.2307L214.579 82.9057ZM205.722 89.4691C201.811 91.0124 197.017 91.8182 191.286 91.8182V95.8182C197.373 95.8182 202.693 94.9648 207.191 93.1899L205.722 89.4691ZM191.286 91.8182C185.41 91.8182 180.375 90.9484 176.138 89.2661L174.662 92.9839C179.47 94.8925 185.025 95.8182 191.286 95.8182V91.8182ZM176.141 89.2674C171.984 87.6089 168.818 85.0923 166.561 81.7268L163.239 83.955C165.981 88.0441 169.815 91.0502 174.659 92.9826L176.141 89.2674ZM166.569 81.7385C164.362 78.3977 163.171 74.0135 163.15 68.4468L159.15 68.4623C159.174 74.5774 160.483 79.7841 163.231 83.9433L166.569 81.7385ZM161.15 70.4545H179.15V66.4545H161.15V70.4545ZM177.153 68.5608C177.281 70.9698 177.891 73.127 179.08 74.9382L182.424 72.7436C181.704 71.6458 181.246 70.212 181.147 68.3483L177.153 68.5608ZM179.08 74.9382C180.266 76.7455 181.924 78.0904 183.978 78.9823L185.571 75.3132C184.171 74.7051 183.147 73.8454 182.424 72.7436L179.08 74.9382ZM183.987 78.986C186.043 79.867 188.403 80.2727 191.013 80.2727V76.2727C188.806 76.2727 187.007 75.9285 185.563 75.3094L183.987 78.986ZM191.013 80.2727C193.186 80.2727 195.129 80.0063 196.781 79.4005L195.404 75.645C194.329 76.0392 192.887 76.2727 191.013 76.2727V80.2727ZM196.781 79.4005C198.394 78.8092 199.771 77.9324 200.761 76.6877L197.63 74.1987C197.21 74.7267 196.519 75.2363 195.404 75.645L196.781 79.4005ZM200.761 76.6877C201.739 75.4568 202.254 74.0218 202.286 72.4491L198.287 72.3691C198.273 73.0691 198.06 73.6569 197.63 74.1987L200.761 76.6877ZM202.286 72.3665C202.253 70.8457 201.737 69.4664 200.748 68.3121L197.711 70.9152C198.085 71.3518 198.273 71.8362 198.287 72.4516L202.286 72.3665ZM200.787 68.359C199.833 67.1744 198.399 66.285 196.728 65.5865L195.185 69.2772C196.56 69.8514 197.308 70.4165 197.672 70.8683L200.787 68.359ZM196.751 65.5964C195.062 64.8653 192.866 64.2188 190.215 63.6373L189.358 67.5445C191.888 68.0994 193.806 68.6802 195.162 69.2673L196.751 65.5964ZM190.208 63.6359L183.253 62.1359L182.41 66.046L189.364 67.546L190.208 63.6359ZM183.256 62.1364C177.3 60.8445 172.769 58.7224 169.527 55.8728L166.886 58.8772C170.781 62.3004 176 64.6555 182.408 66.0455L183.256 62.1364ZM169.537 55.8818C166.485 53.1627 164.902 49.4384 164.922 44.4629L160.923 44.4462C160.898 50.3798 162.837 55.2691 166.876 58.8682L169.537 55.8818ZM164.922 44.4443C164.902 40.3974 165.973 36.9431 168.092 33.9973L164.844 31.6618C162.19 35.3524 160.898 39.6481 160.923 44.4648L164.922 44.4443ZM168.09 33.9993C170.265 30.9836 173.295 28.5931 177.26 26.8544L175.653 23.1911C171.119 25.1796 167.489 27.9937 164.846 31.6598L168.09 33.9993ZM177.256 26.8559C181.235 25.1207 185.852 24.2273 191.15 24.2273V20.2273C185.402 20.2273 180.224 21.1975 175.657 23.1895L177.256 26.8559ZM191.15 24.2273C196.567 24.2273 201.145 25.134 204.941 26.8748L206.608 23.2388C202.177 21.2069 197.005 20.2273 191.15 20.2273V24.2273ZM204.941 26.8748C208.748 28.6204 211.609 31.0425 213.608 34.1229L216.964 31.9453C214.508 28.1621 211.029 25.266 206.608 23.2388L204.941 26.8748ZM213.617 34.1358C215.628 37.1833 216.674 40.7825 216.695 45.01L220.695 44.99C220.671 40.0811 219.444 35.7031 216.955 31.9324L213.617 34.1358ZM218.695 43H200.559V47H218.695V43ZM234.813 93H232.813V95H234.813V93ZM234.813 82.5L233.212 81.3008L232.813 81.8339V82.5H234.813ZM267.813 38.4545L269.413 39.6538L271.81 36.4545H267.813V38.4545ZM234.949 38.4545H232.949V40.4545H234.949V38.4545ZM234.949 23.1818V21.1818H232.949V23.1818H234.949ZM291.949 23.1818H293.949V21.1818H291.949V23.1818ZM291.949 33.6818L293.55 34.881L293.949 34.3479V33.6818H291.949ZM258.949 77.7273L257.348 76.5281L254.952 79.7273H258.949V77.7273ZM291.813 77.7273H293.813V75.7273H291.813V77.7273ZM291.813 93V95H293.813V93H291.813ZM236.813 93V82.5H232.813V93H236.813ZM236.413 83.6992L269.413 39.6538L266.212 37.2553L233.212 81.3008L236.413 83.6992ZM267.813 36.4545H234.949V40.4545H267.813V36.4545ZM236.949 38.4545V23.1818H232.949V38.4545H236.949ZM234.949 25.1818H291.949V21.1818H234.949V25.1818ZM289.949 23.1818V33.6818H293.949V23.1818H289.949ZM290.348 32.4826L257.348 76.5281L260.55 78.9265L293.55 34.881L290.348 32.4826ZM258.949 79.7273H291.813V75.7273H258.949V79.7273ZM289.813 77.7273V93H293.813V77.7273H289.813ZM291.813 91H234.813V95H291.813V91ZM308.876 93H306.876V95H308.876V93ZM308.876 23.1818V21.1818H306.876V23.1818H308.876ZM359.194 23.1818H361.194V21.1818H359.194V23.1818ZM359.194 38.4545V40.4545H361.194V38.4545H359.194ZM327.831 38.4545V36.4545H325.831V38.4545H327.831ZM327.831 50.4545H325.831V52.4545H327.831V50.4545ZM356.604 50.4545H358.604V48.4545H356.604V50.4545ZM356.604 65.7273V67.7273H358.604V65.7273H356.604ZM327.831 65.7273V63.7273H325.831V65.7273H327.831ZM327.831 77.7273H325.831V79.7273H327.831V77.7273ZM359.058 77.7273H361.058V75.7273H359.058V77.7273ZM359.058 93V95H361.058V93H359.058ZM310.876 93V23.1818H306.876V93H310.876ZM308.876 25.1818H359.194V21.1818H308.876V25.1818ZM357.194 23.1818V38.4545H361.194V23.1818H357.194ZM359.194 36.4545H327.831V40.4545H359.194V36.4545ZM325.831 38.4545V50.4545H329.831V38.4545H325.831ZM327.831 52.4545H356.604V48.4545H327.831V52.4545ZM354.604 50.4545V65.7273H358.604V50.4545H354.604ZM356.604 63.7273H327.831V67.7273H356.604V63.7273ZM325.831 65.7273V77.7273H329.831V65.7273H325.831ZM327.831 79.7273H359.058V75.7273H327.831V79.7273ZM357.058 77.7273V93H361.058V77.7273H357.058ZM359.058 91H308.876V95H359.058V91ZM403.08 93H401.08V95H403.08V93ZM403.08 23.1818V21.1818H401.08V23.1818H403.08ZM455.887 34.1591L457.595 33.1189L457.595 33.1189L455.887 34.1591ZM455.785 59.5568L454.107 58.468L454.102 58.4759L455.785 59.5568ZM446.478 67.3295L445.676 65.4972L445.672 65.4989L446.478 67.3295ZM414.535 69.9545H412.535V71.9545H414.535V69.9545ZM414.535 55.2273V53.2273H412.535V55.2273H414.535ZM434.41 54.4091L435.067 56.2981L435.074 56.2954L435.082 56.2926L434.41 54.4091ZM438.057 51.7159L436.422 50.5649L436.414 50.5751L436.407 50.5854L438.057 51.7159ZM438.057 42.0341L436.389 43.1366L436.4 43.1539L436.412 43.171L438.057 42.0341ZM434.41 39.2386L433.681 41.1011L433.697 41.1074L433.713 41.1135L434.41 39.2386ZM422.035 38.3182V36.3182H420.035V38.3182H422.035ZM422.035 93V95H424.035V93H422.035ZM443.989 60.9545L445.745 59.9979L445.177 58.9545H443.989V60.9545ZM461.444 93V95H464.81L463.2 92.0433L461.444 93ZM440.853 93L439.087 93.9392L439.651 95H440.853V93ZM423.807 60.9545V58.9545H420.478L422.042 61.8938L423.807 60.9545ZM405.08 93V23.1818H401.08V93H405.08ZM403.08 25.1818H433.216V21.1818H403.08V25.1818ZM433.216 25.1818C438.155 25.1818 442.38 26.0801 445.945 27.8106L447.692 24.2121C443.484 22.1699 438.641 21.1818 433.216 21.1818V25.1818ZM445.945 27.8106C449.501 29.5365 452.228 31.9955 454.179 35.1993L457.595 33.1189C455.228 29.2317 451.909 26.2589 447.692 24.2121L445.945 27.8106ZM454.179 35.1993C456.113 38.3754 457.125 42.2499 457.125 46.9091H461.125C461.125 41.6591 459.979 37.0337 457.595 33.1189L454.179 35.1993ZM457.125 46.9091C457.125 51.609 456.081 55.4259 454.107 58.468L457.462 60.6456C459.942 56.8241 461.125 52.2092 461.125 46.9091H457.125ZM454.102 58.4759C452.126 61.5521 449.341 63.8936 445.676 65.4972L447.279 69.1619C451.614 67.2654 455.034 64.4251 457.467 60.6378L454.102 58.4759ZM445.672 65.4989C441.999 67.1152 437.636 67.9545 432.535 67.9545V71.9545C438.069 71.9545 443.002 71.0439 447.283 69.1602L445.672 65.4989ZM432.535 67.9545H414.535V71.9545H432.535V67.9545ZM416.535 69.9545V55.2273H412.535V69.9545H416.535ZM414.535 57.2273H428.716V53.2273H414.535V57.2273ZM428.716 57.2273C431.096 57.2273 433.229 56.9373 435.067 56.2981L433.752 52.5201C432.454 52.9718 430.791 53.2273 428.716 53.2273V57.2273ZM435.082 56.2926C437.014 55.6026 438.596 54.4674 439.707 52.8464L436.407 50.5854C435.836 51.419 434.987 52.0792 433.737 52.5256L435.082 56.2926ZM439.693 52.8669C440.859 51.2103 441.353 49.1689 441.353 46.9091H437.353C437.353 48.6039 436.983 49.767 436.422 50.5649L439.693 52.8669ZM441.353 46.9091C441.353 44.6299 440.86 42.5725 439.703 40.8972L436.412 43.171C436.982 43.9957 437.353 45.1883 437.353 46.9091H441.353ZM439.726 40.9316C438.625 39.2651 437.048 38.085 435.106 37.3638L433.713 41.1135C434.953 41.5741 435.808 42.2576 436.389 43.1366L439.726 40.9316ZM435.138 37.3761C433.276 36.6475 431.117 36.3182 428.716 36.3182V40.3182C430.77 40.3182 432.406 40.6025 433.681 41.1011L435.138 37.3761ZM428.716 36.3182H422.035V40.3182H428.716V36.3182ZM420.035 38.3182V93H424.035V38.3182H420.035ZM422.035 91H403.08V95H422.035V91ZM442.233 61.9112L459.687 93.9567L463.2 92.0433L445.745 59.9979L442.233 61.9112ZM461.444 91H440.853V95H461.444V91ZM442.618 92.0608L425.573 60.0153L422.042 61.8938L439.087 93.9392L442.618 92.0608ZM423.807 62.9545H443.989V58.9545H423.807V62.9545ZM474.885 93H472.885V95H474.885V93ZM474.885 23.1818V21.1818H472.885V23.1818H474.885ZM525.203 23.1818H527.203V21.1818H525.203V23.1818ZM525.203 38.4545V40.4545H527.203V38.4545H525.203ZM493.84 38.4545V36.4545H491.84V38.4545H493.84ZM493.84 50.4545H491.84V52.4545H493.84V50.4545ZM522.612 50.4545H524.612V48.4545H522.612V50.4545ZM522.612 65.7273V67.7273H524.612V65.7273H522.612ZM493.84 65.7273V63.7273H491.84V65.7273H493.84ZM493.84 77.7273H491.84V79.7273H493.84V77.7273ZM525.067 77.7273H527.067V75.7273H525.067V77.7273ZM525.067 93V95H527.067V93H525.067ZM476.885 93V23.1818H472.885V93H476.885ZM474.885 25.1818H525.203V21.1818H474.885V25.1818ZM523.203 23.1818V38.4545H527.203V23.1818H523.203ZM525.203 36.4545H493.84V40.4545H525.203V36.4545ZM491.84 38.4545V50.4545H495.84V38.4545H491.84ZM493.84 52.4545H522.612V48.4545H493.84V52.4545ZM520.612 50.4545V65.7273H524.612V50.4545H520.612ZM522.612 63.7273H493.84V67.7273H522.612V63.7273ZM491.84 65.7273V77.7273H495.84V65.7273H491.84ZM493.84 79.7273H525.067V75.7273H493.84V79.7273ZM523.067 77.7273V93H527.067V77.7273H523.067ZM525.067 91H474.885V95H525.067V91ZM560.42 93V95H561.905L562.335 93.578L560.42 93ZM539.966 93L538.066 92.3731L537.199 95H539.966V93ZM563.011 23.1818V21.1818H561.565L561.112 22.5549L563.011 23.1818ZM588.92 23.1818L590.819 22.5549L590.366 21.1818H588.92V23.1818ZM611.966 93V95H614.732L613.865 92.3731L611.966 93ZM591.511 93L589.596 93.578L590.026 95H591.511V93ZM576.238 42.4091L578.153 41.8311L577.724 40.4091H576.238V42.4091ZM575.693 42.4091V40.4091H574.207L573.778 41.8311L575.693 42.4091ZM556.602 65.4545V63.4545H554.602V65.4545H556.602ZM595.056 65.4545H597.056V63.4545H595.056V65.4545ZM595.056 79.6364V81.6364H597.056V79.6364H595.056ZM556.602 79.6364H554.602V81.6364H556.602V79.6364ZM560.42 91H539.966V95H560.42V91ZM541.865 93.6269L564.91 23.8087L561.112 22.5549L538.066 92.3731L541.865 93.6269ZM563.011 25.1818H588.92V21.1818H563.011V25.1818ZM587.021 23.8087L610.066 93.6269L613.865 92.3731L590.819 22.5549L587.021 23.8087ZM611.966 91H591.511V95H611.966V91ZM593.426 92.422L578.153 41.8311L574.324 42.9871L589.596 93.578L593.426 92.422ZM576.238 40.4091H575.693V44.4091H576.238V40.4091ZM573.778 41.8311L558.505 92.422L562.335 93.578L577.607 42.9871L573.778 41.8311ZM556.602 67.4545H595.056V63.4545H556.602V67.4545ZM593.056 65.4545V79.6364H597.056V65.4545H593.056ZM595.056 77.6364H556.602V81.6364H595.056V77.6364ZM558.602 79.6364V65.4545H554.602V79.6364H558.602ZM626.37 93H624.37V95H626.37V93ZM626.37 23.1818V21.1818H624.37V23.1818H626.37ZM645.325 23.1818H647.325V21.1818H645.325V23.1818ZM645.325 77.7273H643.325V79.7273H645.325V77.7273ZM673.552 77.7273H675.552V75.7273H673.552V77.7273ZM673.552 93V95H675.552V93H673.552ZM628.37 93V23.1818H624.37V93H628.37ZM626.37 25.1818H645.325V21.1818H626.37V25.1818ZM643.325 23.1818V77.7273H647.325V23.1818H643.325ZM645.325 79.7273H673.552V75.7273H645.325V79.7273ZM671.552 77.7273V93H675.552V77.7273H671.552ZM673.552 91H626.37V95H673.552V91ZM707.848 23.1818H709.848V21.1818H707.848V23.1818ZM707.848 93V95H709.848V93H707.848ZM688.894 93H686.894V95H688.894V93ZM688.894 23.1818V21.1818H686.894V23.1818H688.894ZM705.848 23.1818V93H709.848V23.1818H705.848ZM707.848 91H688.894V95H707.848V91ZM690.894 93V23.1818H686.894V93H690.894ZM688.894 25.1818H707.848V21.1818H688.894V25.1818ZM724.784 93H722.784V95H724.784V93ZM724.784 82.5L723.183 81.3008L722.784 81.8339V82.5H724.784ZM757.784 38.4545L759.385 39.6538L761.781 36.4545H757.784V38.4545ZM724.92 38.4545H722.92V40.4545H724.92V38.4545ZM724.92 23.1818V21.1818H722.92V23.1818H724.92ZM781.92 23.1818H783.92V21.1818H781.92V23.1818ZM781.92 33.6818L783.521 34.881L783.92 34.3479V33.6818H781.92ZM748.92 77.7273L747.32 76.5281L744.923 79.7273H748.92V77.7273ZM781.784 77.7273H783.784V75.7273H781.784V77.7273ZM781.784 93V95H783.784V93H781.784ZM726.784 93V82.5H722.784V93H726.784ZM726.385 83.6992L759.385 39.6538L756.183 37.2553L723.183 81.3008L726.385 83.6992ZM757.784 36.4545H724.92V40.4545H757.784V36.4545ZM726.92 38.4545V23.1818H722.92V38.4545H726.92ZM724.92 25.1818H781.92V21.1818H724.92V25.1818ZM779.92 23.1818V33.6818H783.92V23.1818H779.92ZM780.32 32.4826L747.32 76.5281L750.521 78.9265L783.521 34.881L780.32 32.4826ZM748.92 79.7273H781.784V75.7273H748.92V79.7273ZM779.784 77.7273V93H783.784V77.7273H779.784ZM781.784 91H724.784V95H781.784V91ZM816.984 93V95H818.469L818.898 93.578L816.984 93ZM796.529 93L794.63 92.3731L793.763 95H796.529V93ZM819.575 23.1818V21.1818H818.129L817.676 22.5549L819.575 23.1818ZM845.484 23.1818L847.383 22.5549L846.93 21.1818H845.484V23.1818ZM868.529 93V95H871.296L870.429 92.3731L868.529 93ZM848.075 93L846.16 93.578L846.589 95H848.075V93ZM832.802 42.4091L834.717 41.8311L834.287 40.4091H832.802V42.4091ZM832.257 42.4091V40.4091H830.771L830.342 41.8311L832.257 42.4091ZM813.166 65.4545V63.4545H811.166V65.4545H813.166ZM851.62 65.4545H853.62V63.4545H851.62V65.4545ZM851.62 79.6364V81.6364H853.62V79.6364H851.62ZM813.166 79.6364H811.166V81.6364H813.166V79.6364ZM816.984 91H796.529V95H816.984V91ZM798.429 93.6269L821.474 23.8087L817.676 22.5549L794.63 92.3731L798.429 93.6269ZM819.575 25.1818H845.484V21.1818H819.575V25.1818ZM843.585 23.8087L866.63 93.6269L870.429 92.3731L847.383 22.5549L843.585 23.8087ZM868.529 91H848.075V95H868.529V91ZM849.989 92.422L834.717 41.8311L830.887 42.9871L846.16 93.578L849.989 92.422ZM832.802 40.4091H832.257V44.4091H832.802V40.4091ZM830.342 41.8311L815.069 92.422L818.898 93.578L834.171 42.9871L830.342 41.8311ZM813.166 67.4545H851.62V63.4545H813.166V67.4545ZM849.62 65.4545V79.6364H853.62V65.4545H849.62ZM851.62 77.6364H813.166V81.6364H851.62V77.6364ZM815.166 79.6364V65.4545H811.166V79.6364H815.166ZM944.834 49.3636V51.3636H947.009L946.827 49.1967L944.834 49.3636ZM925.607 49.3636L923.614 49.5344L923.771 51.3636H925.607V49.3636ZM924.516 45.0341L922.685 45.8374L922.69 45.8508L922.697 45.8641L924.516 45.0341ZM922.13 41.6932L920.749 43.1399L920.766 43.1559L920.783 43.1716L922.13 41.6932ZM918.482 39.5114L917.796 41.3901L917.809 41.3949L917.823 41.3995L918.482 39.5114ZM905.528 41.0455L904.379 39.4078L904.371 39.4134L905.528 41.0455ZM900.55 47.6932L898.689 46.9605L898.684 46.9733L900.55 47.6932ZM900.584 68.8295L898.723 69.5622L898.727 69.5711L898.73 69.5799L900.584 68.8295ZM905.596 75.3068L904.486 76.9709L904.492 76.9749L904.498 76.9789L905.596 75.3068ZM918.175 76.8068L918.77 78.7163L918.784 78.7119L918.798 78.7073L918.175 76.8068ZM921.789 74.8636L923.059 76.4085L923.059 76.4085L921.789 74.8636ZM924.278 71.8295L922.523 70.8695L922.517 70.8813L924.278 71.8295ZM925.607 67.7727L925.621 65.7728L923.889 65.7605L923.63 67.4731L925.607 67.7727ZM944.834 67.9091L946.828 68.0625L946.993 65.9243L944.849 65.9091L944.834 67.9091ZM942.346 76.9432L944.156 77.7941L944.158 77.789L942.346 76.9432ZM936.243 85.3977L937.645 86.8243L937.645 86.8242L936.243 85.3977ZM895.812 89.8295L894.858 91.5874L894.861 91.5892L895.812 89.8295ZM883.778 77.6932L882.024 78.6556L882.027 78.6613L883.778 77.6932ZM883.88 38.4545L885.622 39.4372L885.624 39.434L883.88 38.4545ZM896.016 26.3523L896.961 28.1152L896.967 28.1119L896.016 26.3523ZM925.232 24.0341L925.851 22.1321L925.851 22.1321L925.232 24.0341ZM934.982 29.3182L933.705 30.8577L933.713 30.8639L934.982 29.3182ZM941.732 37.8068L939.948 38.7109L939.948 38.7109L941.732 37.8068ZM944.834 47.3636H925.607V51.3636H944.834V47.3636ZM927.6 49.1928C927.446 47.4014 927.032 45.7314 926.336 44.2041L922.697 45.8641C923.182 46.9277 923.495 48.1441 923.614 49.5344L927.6 49.1928ZM926.348 44.2308C925.67 42.6848 924.711 41.3395 923.477 40.2148L920.783 43.1716C921.594 43.9105 922.226 44.7925 922.685 45.8374L926.348 44.2308ZM923.511 40.2465C922.285 39.0766 920.816 38.208 919.141 37.6232L917.823 41.3995C919.012 41.8147 919.974 42.4007 920.749 43.1399L923.511 40.2465ZM919.168 37.6326C917.479 37.0159 915.615 36.7273 913.607 36.7273V40.7273C915.235 40.7273 916.622 40.9614 917.796 41.3901L919.168 37.6326ZM913.607 36.7273C910.091 36.7273 906.978 37.5861 904.379 39.4078L906.676 42.6831C908.486 41.4139 910.759 40.7273 913.607 40.7273V36.7273ZM904.371 39.4134C901.824 41.2179 899.945 43.7715 898.689 46.9605L902.411 48.4258C903.428 45.8421 904.868 43.9639 906.684 42.6775L904.371 39.4134ZM898.684 46.9733C897.459 50.1479 896.88 53.8711 896.88 58.0909H900.88C900.88 54.2198 901.414 51.0112 902.416 48.4131L898.684 46.9733ZM896.88 58.0909C896.88 62.5262 897.468 66.3725 898.723 69.5622L902.445 68.0969C901.428 65.5139 900.88 62.2011 900.88 58.0909H896.88ZM898.73 69.5799C900.013 72.7481 901.914 75.2561 904.486 76.9709L906.705 73.6427C904.914 72.4485 903.474 70.6382 902.438 68.0792L898.73 69.5799ZM904.498 76.9789C907.06 78.66 910.082 79.4545 913.471 79.4545V75.4545C910.723 75.4545 908.495 74.8173 906.693 73.6347L904.498 76.9789ZM913.471 79.4545C915.382 79.4545 917.156 79.219 918.77 78.7163L917.58 74.8973C916.421 75.2583 915.059 75.4545 913.471 75.4545V79.4545ZM918.798 78.7073C920.397 78.1833 921.826 77.4224 923.059 76.4085L920.519 73.3188C919.706 73.9867 918.727 74.5213 917.552 74.9064L918.798 78.7073ZM923.059 76.4085C924.285 75.4002 925.281 74.1852 926.038 72.7777L922.517 70.8813C922.002 71.8375 921.338 72.6453 920.519 73.3188L923.059 76.4085ZM926.032 72.7896C926.815 71.3592 927.326 69.7796 927.585 68.0723L923.63 67.4731C923.434 68.7658 923.059 69.8908 922.523 70.8695L926.032 72.7896ZM925.593 69.7727L944.82 69.909L944.849 65.9091L925.621 65.7728L925.593 69.7727ZM942.84 67.7557C942.634 70.4388 941.878 73.2165 940.533 76.0974L944.158 77.789C945.677 74.5335 946.58 71.2885 946.828 68.0625L942.84 67.7557ZM940.536 76.0922C939.214 78.9031 937.325 81.5302 934.842 83.9713L937.645 86.8242C940.434 84.0835 942.614 81.0742 944.156 77.7941L940.536 76.0922ZM934.842 83.9712C932.439 86.3325 929.43 88.2658 925.775 89.7491L927.28 93.4554C931.352 91.8024 934.821 89.5993 937.645 86.8243L934.842 83.9712ZM925.775 89.7491C922.198 91.2011 917.974 91.9545 913.062 91.9545V95.9545C918.376 95.9545 923.13 95.1398 927.28 93.4554L925.775 89.7491ZM913.062 91.9545C906.948 91.9545 901.531 90.6457 896.762 88.0699L894.861 91.5892C900.274 94.5134 906.357 95.9545 913.062 95.9545V91.9545ZM896.765 88.0716C892.053 85.5144 888.309 81.7526 885.528 76.7251L882.027 78.6613C885.155 84.3155 889.434 88.6447 894.858 91.5874L896.765 88.0716ZM885.531 76.7308C882.799 71.7536 881.38 65.5701 881.38 58.0909H877.38C877.38 66.0662 878.893 72.9509 882.024 78.6556L885.531 76.7308ZM881.38 58.0909C881.38 50.5704 882.831 44.3843 885.622 39.4372L882.138 37.4719C878.929 43.1611 877.38 50.066 877.38 58.0909H881.38ZM885.624 39.434C888.449 34.4039 892.226 30.6516 896.961 28.1152L895.072 24.5893C889.625 27.5074 885.311 31.8233 882.136 37.4751L885.624 39.434ZM896.967 28.1119C901.741 25.5327 907.092 24.2273 913.062 24.2273V20.2273C906.486 20.2273 900.473 21.6718 895.066 24.5926L896.967 28.1119ZM913.062 24.2273C917.288 24.2273 921.133 24.8044 924.614 25.9361L925.851 22.1321C921.922 20.8547 917.653 20.2273 913.062 20.2273V24.2273ZM924.614 25.9361C928.095 27.0682 931.118 28.7123 933.705 30.8577L936.259 27.7787C933.255 25.2877 929.778 23.4091 925.851 22.1321L924.614 25.9361ZM933.713 30.8639C936.285 32.9759 938.363 35.5837 939.948 38.7109L943.516 36.9028C941.692 33.3026 939.27 30.2513 936.251 27.7725L933.713 30.8639ZM939.948 38.7109C941.519 41.8117 942.496 45.4071 942.841 49.5306L946.827 49.1967C946.446 44.6383 945.354 40.5292 943.516 36.9028L939.948 38.7109ZM989.886 23.1818V21.1818H987.886V23.1818H989.886ZM1008.57 23.1818H1010.57V21.1818H1008.57V23.1818ZM1008.57 71.0455L1010.57 71.0555V71.0455H1008.57ZM1005.13 83.0455L1003.45 81.9462L1003.45 81.9489L1005.13 83.0455ZM995.784 91.0909L996.654 92.892L996.658 92.8899L995.784 91.0909ZM969.841 91.6364L969.061 93.4782L969.071 93.4822L969.841 91.6364ZM960.977 84.2727L959.305 85.3691L959.308 85.3743L960.977 84.2727ZM957.705 71.1818V69.1818H955.713L955.705 71.1733L957.705 71.1818ZM976.659 71.1818L978.658 71.104L978.583 69.1818H976.659V71.1818ZM977.546 75.6136L975.711 76.4098L975.717 76.4243L975.724 76.4387L977.546 75.6136ZM979.796 78.3409L978.714 80.0233L978.737 80.0381L978.761 80.0524L979.796 78.3409ZM986.886 78.3068L985.823 76.613L985.814 76.6187L985.805 76.6245L986.886 78.3068ZM989.102 75.5795L990.95 76.3463L990.955 76.3341L989.102 75.5795ZM989.886 71.0455L991.886 71.0708L991.886 71.0581V71.0455H989.886ZM989.886 25.1818H1008.57V21.1818H989.886V25.1818ZM1006.57 23.1818V71.0455H1010.57V23.1818H1006.57ZM1006.57 71.0355C1006.55 75.2336 1005.49 78.8471 1003.45 81.9462L1006.8 84.1447C1009.3 80.3348 1010.54 75.9483 1010.57 71.0555L1006.57 71.0355ZM1003.45 81.9489C1001.42 85.0554 998.589 87.5052 994.91 89.2919L996.658 92.8899C1000.93 90.813 1004.33 87.8992 1006.8 84.142L1003.45 81.9489ZM994.915 89.2898C991.275 91.047 987.024 91.9545 982.114 91.9545V95.9545C987.522 95.9545 992.385 94.953 996.654 92.892L994.915 89.2898ZM982.114 91.9545C977.87 91.9545 974.045 91.2231 970.611 89.7905L969.071 93.4822C973.046 95.1405 977.403 95.9545 982.114 95.9545V91.9545ZM970.621 89.7946C967.277 88.3793 964.633 86.1813 962.647 83.1712L959.308 85.3743C961.731 89.046 964.996 91.7571 969.061 93.4781L970.621 89.7946ZM962.65 83.1764C960.722 80.2339 959.683 76.2898 959.705 71.1903L955.705 71.1733C955.681 76.8012 956.824 81.5843 959.305 85.3691L962.65 83.1764ZM957.705 73.1818H976.659V69.1818H957.705V73.1818ZM974.661 71.2597C974.736 73.1794 975.063 74.9161 975.711 76.4098L979.38 74.8175C978.983 73.902 978.719 72.6843 978.658 71.104L974.661 71.2597ZM975.724 76.4387C976.401 77.9351 977.385 79.1686 978.714 80.0233L980.877 76.6586C980.298 76.286 979.781 75.7012 979.367 74.7886L975.724 76.4387ZM978.761 80.0524C980.111 80.8688 981.668 81.2273 983.341 81.2273V77.2273C982.241 77.2273 981.435 76.9949 980.83 76.6294L978.761 80.0524ZM983.341 81.2273C985.041 81.2273 986.621 80.8552 987.968 79.9892L985.805 76.6245C985.243 76.9857 984.459 77.2273 983.341 77.2273V81.2273ZM987.95 80.0006C989.323 79.1385 990.312 77.8817 990.95 76.3463L987.255 74.8128C986.893 75.6864 986.405 76.2478 985.823 76.613L987.95 80.0006ZM990.955 76.3341C991.576 74.8089 991.861 73.0332 991.886 71.0708L987.887 71.0201C987.866 72.6486 987.629 73.8957 987.25 74.825L990.955 76.3341ZM991.886 71.0455V23.1818H987.886V71.0455H991.886ZM1025.23 93H1023.23V95H1025.23V93ZM1025.23 23.1818V21.1818H1023.23V23.1818H1025.23ZM1075.55 23.1818H1077.55V21.1818H1075.55V23.1818ZM1075.55 38.4545V40.4545H1077.55V38.4545H1075.55ZM1044.19 38.4545V36.4545H1042.19V38.4545H1044.19ZM1044.19 50.4545H1042.19V52.4545H1044.19V50.4545ZM1072.96 50.4545H1074.96V48.4545H1072.96V50.4545ZM1072.96 65.7273V67.7273H1074.96V65.7273H1072.96ZM1044.19 65.7273V63.7273H1042.19V65.7273H1044.19ZM1044.19 77.7273H1042.19V79.7273H1044.19V77.7273ZM1075.41 77.7273H1077.41V75.7273H1075.41V77.7273ZM1075.41 93V95H1077.41V93H1075.41ZM1027.23 93V23.1818H1023.23V93H1027.23ZM1025.23 25.1818H1075.55V21.1818H1025.23V25.1818ZM1073.55 23.1818V38.4545H1077.55V23.1818H1073.55ZM1075.55 36.4545H1044.19V40.4545H1075.55V36.4545ZM1042.19 38.4545V50.4545H1046.19V38.4545H1042.19ZM1044.19 52.4545H1072.96V48.4545H1044.19V52.4545ZM1070.96 50.4545V65.7273H1074.96V50.4545H1070.96ZM1072.96 63.7273H1044.19V67.7273H1072.96V63.7273ZM1042.19 65.7273V77.7273H1046.19V65.7273H1042.19ZM1044.19 79.7273H1075.41V75.7273H1044.19V79.7273ZM1073.41 77.7273V93H1077.41V77.7273H1073.41ZM1075.41 91H1025.23V95H1075.41V91Z" fill="white" mask="url(#path-1-outside-1_94_248)"/>
</svg>
