<svg width="1081" height="116" viewBox="0 0 1081 116" fill="none" xmlns="http://www.w3.org/2000/svg">
<mask id="path-1-outside-1_94_248" maskUnits="userSpaceOnUse" x="0" y="18" width="1080" height="80" fill="black">
<rect fill="white" y="18" width="1080" height="80"/>
<path d="M64.9091 23.1818V93H49.0909L23.8636 56.3182H23.4545V93H4.5V23.1818H20.5909L45.4091 59.7273H45.9545V23.1818H64.9091ZM99.6914 93H79.2368L102.282 23.1818H128.191L151.237 93H130.782L115.51 42.4091H114.964L99.6914 93ZM95.8732 65.4545H134.328V79.6364H95.8732V65.4545ZM200.559 45C200.377 42.7273 199.525 40.9545 198.002 39.6818C196.502 38.4091 194.218 37.7727 191.15 37.7727C189.195 37.7727 187.593 38.0114 186.343 38.4886C185.116 38.9432 184.207 39.5682 183.616 40.3636C183.025 41.1591 182.718 42.0682 182.695 43.0909C182.65 43.9318 182.798 44.6932 183.138 45.375C183.502 46.0341 184.07 46.6364 184.843 47.1818C185.616 47.7045 186.604 48.1818 187.809 48.6136C189.013 49.0455 190.445 49.4318 192.104 49.7727L197.832 51C201.695 51.8182 205.002 52.8977 207.752 54.2386C210.502 55.5795 212.752 57.1591 214.502 58.9773C216.252 60.7727 217.536 62.7955 218.354 65.0455C219.195 67.2955 219.627 69.75 219.65 72.4091C219.627 77 218.479 80.8864 216.207 84.0682C213.934 87.25 210.684 89.6705 206.457 91.3295C202.252 92.9886 197.195 93.8182 191.286 93.8182C185.218 93.8182 179.923 92.9205 175.4 91.125C170.9 89.3295 167.4 86.5682 164.9 82.8409C162.423 79.0909 161.173 74.2955 161.15 68.4545H179.15C179.263 70.5909 179.798 72.3864 180.752 73.8409C181.707 75.2955 183.048 76.3977 184.775 77.1477C186.525 77.8977 188.604 78.2727 191.013 78.2727C193.036 78.2727 194.729 78.0227 196.093 77.5227C197.457 77.0227 198.491 76.3295 199.195 75.4432C199.9 74.5568 200.263 73.5455 200.286 72.4091C200.263 71.3409 199.911 70.4091 199.229 69.6136C198.57 68.7955 197.479 68.0682 195.957 67.4318C194.434 66.7727 192.377 66.1591 189.786 65.5909L182.832 64.0909C176.65 62.75 171.775 60.5114 168.207 57.375C164.661 54.2159 162.9 49.9091 162.923 44.4545C162.9 40.0227 164.082 36.1477 166.468 32.8295C168.877 29.4886 172.207 26.8864 176.457 25.0227C180.729 23.1591 185.627 22.2273 191.15 22.2273C196.786 22.2273 201.661 23.1705 205.775 25.0568C209.888 26.9432 213.059 29.6023 215.286 33.0341C217.536 36.4432 218.673 40.4318 218.695 45H200.559ZM234.813 93V82.5L267.813 38.4545H234.949V23.1818H291.949V33.6818L258.949 77.7273H291.813V93H234.813ZM308.876 93V23.1818H359.194V38.4545H327.831V50.4545H356.604V65.7273H327.831V77.7273H359.058V93H308.876ZM403.08 93V23.1818H433.216C438.398 23.1818 442.932 24.125 446.819 26.0114C450.705 27.8977 453.728 30.6136 455.887 34.1591C458.046 37.7045 459.125 41.9545 459.125 46.9091C459.125 51.9091 458.012 56.125 455.785 59.5568C453.58 62.9886 450.478 65.5795 446.478 67.3295C442.5 69.0795 437.853 69.9545 432.535 69.9545H414.535V55.2273H428.716C430.944 55.2273 432.841 54.9545 434.41 54.4091C436 53.8409 437.216 52.9432 438.057 51.7159C438.921 50.4886 439.353 48.8864 439.353 46.9091C439.353 44.9091 438.921 43.2841 438.057 42.0341C437.216 40.7614 436 39.8295 434.41 39.2386C432.841 38.625 430.944 38.3182 428.716 38.3182H422.035V93H403.08ZM443.989 60.9545L461.444 93H440.853L423.807 60.9545H443.989ZM474.885 93V23.1818H525.203V38.4545H493.84V50.4545H522.612V65.7273H493.84V77.7273H525.067V93H474.885ZM560.42 93H539.966L563.011 23.1818H588.92L611.966 93H591.511L576.238 42.4091H575.693L560.42 93ZM556.602 65.4545H595.056V79.6364H556.602V65.4545ZM626.37 93V23.1818H645.325V77.7273H673.552V93H626.37ZM707.848 23.1818V93H688.894V23.1818H707.848ZM724.784 93V82.5L757.784 38.4545H724.92V23.1818H781.92V33.6818L748.92 77.7273H781.784V93H724.784ZM816.984 93H796.529L819.575 23.1818H845.484L868.529 93H848.075L832.802 42.4091H832.257L816.984 93ZM813.166 65.4545H851.62V79.6364H813.166V65.4545ZM944.834 49.3636H925.607C925.471 47.7727 925.107 46.3295 924.516 45.0341C923.948 43.7386 923.153 42.625 922.13 41.6932C921.13 40.7386 919.914 40.0114 918.482 39.5114C917.05 38.9886 915.425 38.7273 913.607 38.7273C910.425 38.7273 907.732 39.5 905.528 41.0455C903.346 42.5909 901.687 44.8068 900.55 47.6932C899.437 50.5795 898.88 54.0455 898.88 58.0909C898.88 62.3636 899.448 65.9432 900.584 68.8295C901.743 71.6932 903.414 73.8523 905.596 75.3068C907.778 76.7386 910.403 77.4545 913.471 77.4545C915.221 77.4545 916.789 77.2386 918.175 76.8068C919.562 76.3523 920.766 75.7045 921.789 74.8636C922.812 74.0227 923.641 73.0114 924.278 71.8295C924.937 70.625 925.38 69.2727 925.607 67.7727L944.834 67.9091C944.607 70.8636 943.778 73.875 942.346 76.9432C940.914 79.9886 938.88 82.8068 936.243 85.3977C933.63 87.9659 930.391 90.0341 926.528 91.6023C922.664 93.1705 918.175 93.9545 913.062 93.9545C906.653 93.9545 900.903 92.5795 895.812 89.8295C890.743 87.0795 886.732 83.0341 883.778 77.6932C880.846 72.3523 879.38 65.8182 879.38 58.0909C879.38 50.3182 880.88 43.7727 883.88 38.4545C886.88 33.1136 890.925 29.0795 896.016 26.3523C901.107 23.6023 906.789 22.2273 913.062 22.2273C917.471 22.2273 921.528 22.8295 925.232 24.0341C928.937 25.2386 932.187 27 934.982 29.3182C937.778 31.6136 940.028 34.4432 941.732 37.8068C943.437 41.1705 944.471 45.0227 944.834 49.3636ZM989.886 23.1818H1008.57V71.0455C1008.55 75.5909 1007.4 79.5909 1005.13 83.0455C1002.88 86.4773 999.761 89.1591 995.784 91.0909C991.83 93 987.273 93.9545 982.114 93.9545C977.636 93.9545 973.546 93.1818 969.841 91.6364C966.136 90.0682 963.182 87.6136 960.977 84.2727C958.773 80.9091 957.682 76.5455 957.705 71.1818H976.659C976.727 72.9318 977.023 74.4091 977.546 75.6136C978.091 76.8182 978.841 77.7273 979.796 78.3409C980.773 78.9318 981.955 79.2273 983.341 79.2273C984.75 79.2273 985.932 78.9205 986.886 78.3068C987.864 77.6932 988.602 76.7841 989.102 75.5795C989.602 74.3523 989.864 72.8409 989.886 71.0455V23.1818ZM1025.23 93V23.1818H1075.55V38.4545H1044.19V50.4545H1072.96V65.7273H1044.19V77.7273H1075.41V93H1025.23Z"/>
</mask>
<path d="M64.9091 23.1818H68.9091V19.1818H64.9091V23.1818ZM64.9091 93V97H68.9091V93H64.9091ZM49.0909 93L45.7951 95.2666L46.9872 97H49.0909V93ZM23.8636 56.3182L27.1594 54.0515L25.9674 52.3182H23.8636V56.3182ZM23.4545 56.3182V52.3182H19.4545V56.3182H23.4545ZM23.4545 93V97H27.4545V93H23.4545ZM4.5 93H0.5V97H4.5V93ZM4.5 23.1818V19.1818H0.5V23.1818H4.5ZM20.5909 23.1818L23.9 20.9346L22.7097 19.1818H20.5909V23.1818ZM45.4091 59.7273L42.1 61.9745L43.2903 63.7273H45.4091V59.7273ZM45.9545 59.7273V63.7273H49.9545V59.7273H45.9545ZM45.9545 23.1818V19.1818H41.9545V23.1818H45.9545ZM60.9091 23.1818V93H68.9091V23.1818H60.9091ZM64.9091 89H49.0909V97H64.9091V89ZM52.3867 90.7334L27.1594 54.0515L20.5678 58.5848L45.7951 95.2666L52.3867 90.7334ZM23.8636 52.3182H23.4545V60.3182H23.8636V52.3182ZM19.4545 56.3182V93H27.4545V56.3182H19.4545ZM23.4545 89H4.5V97H23.4545V89ZM8.5 93V23.1818H0.5V93H8.5ZM4.5 27.1818H20.5909V19.1818H4.5V27.1818ZM17.2818 25.429L42.1 61.9745L48.7182 57.4801L23.9 20.9346L17.2818 25.429ZM45.4091 63.7273H45.9545V55.7273H45.4091V63.7273ZM49.9545 59.7273V23.1818H41.9545V59.7273H49.9545ZM45.9545 27.1818H64.9091V19.1818H45.9545V27.1818ZM99.6914 93V97H102.662L103.521 94.156L99.6914 93ZM79.2368 93L75.4384 91.7462L73.7042 97H79.2368V93ZM102.282 23.1818V19.1818H99.3903L98.4838 21.928L102.282 23.1818ZM128.191 23.1818L131.99 21.928L131.083 19.1818H128.191V23.1818ZM151.237 93V97H156.769L155.035 91.7462L151.237 93ZM130.782 93L126.953 94.156L127.812 97H130.782V93ZM115.51 42.4091L119.339 41.2531L118.48 38.4091H115.51V42.4091ZM114.964 42.4091V38.4091H111.993L111.135 41.2531L114.964 42.4091ZM95.8732 65.4545V61.4545H91.8732V65.4545H95.8732ZM134.328 65.4545H138.328V61.4545H134.328V65.4545ZM134.328 79.6364V83.6364H138.328V79.6364H134.328ZM95.8732 79.6364H91.8732V83.6364H95.8732V79.6364ZM99.6914 89H79.2368V97H99.6914V89ZM83.0352 94.2538L106.081 24.4356L98.4838 21.928L75.4384 91.7462L83.0352 94.2538ZM102.282 27.1818H128.191V19.1818H102.282V27.1818ZM124.393 24.4356L147.438 94.2538L155.035 91.7462L131.99 21.928L124.393 24.4356ZM151.237 89H130.782V97H151.237V89ZM134.612 91.844L119.339 41.2531L111.68 43.5651L126.953 94.156L134.612 91.844ZM115.51 38.4091H114.964V46.4091H115.51V38.4091ZM111.135 41.2531L95.8621 91.844L103.521 94.156L118.793 43.5651L111.135 41.2531ZM95.8732 69.4545H134.328V61.4545H95.8732V69.4545ZM130.328 65.4545V79.6364H138.328V65.4545H130.328ZM134.328 75.6364H95.8732V83.6364H134.328V75.6364ZM99.8732 79.6364V65.4545H91.8732V79.6364H99.8732ZM200.559 45L196.572 45.319L196.866 49H200.559V45ZM198.002 39.6818L195.414 42.7319L195.425 42.7414L195.437 42.7509L198.002 39.6818ZM186.343 38.4886L187.732 42.2396L187.751 42.2327L187.77 42.2255L186.343 38.4886ZM183.616 40.3636L180.405 37.9783L180.405 37.9783L183.616 40.3636ZM182.695 43.0909L186.689 43.3068L186.693 43.2433L186.694 43.1798L182.695 43.0909ZM183.138 45.375L179.561 47.1639L179.597 47.2363L179.636 47.3073L183.138 45.375ZM184.843 47.1818L182.536 50.4497L182.569 50.4726L182.602 50.4949L184.843 47.1818ZM192.104 49.7727L192.942 45.8615L192.926 45.858L192.909 45.8546L192.104 49.7727ZM197.832 51L196.993 54.9112L197.003 54.9132L197.832 51ZM214.502 58.9773L211.62 61.7511L211.629 61.7602L211.638 61.7692L214.502 58.9773ZM218.354 65.0455L214.595 66.4124L214.601 66.4291L214.607 66.4458L218.354 65.0455ZM219.65 72.4091L223.65 72.4289L223.65 72.4019L223.65 72.3749L219.65 72.4091ZM216.207 84.0682L219.462 86.3931L219.462 86.3931L216.207 84.0682ZM206.457 91.3295L204.995 87.606L204.988 87.6087L206.457 91.3295ZM175.4 91.125L173.917 94.8402L173.924 94.8428L175.4 91.125ZM164.9 82.8409L161.562 85.0457L161.57 85.0574L161.578 85.069L164.9 82.8409ZM161.15 68.4545V64.4545H157.134L157.15 68.4701L161.15 68.4545ZM179.15 68.4545L183.144 68.2421L182.943 64.4545H179.15V68.4545ZM180.752 73.8409L177.408 76.0355L177.408 76.0355L180.752 73.8409ZM184.775 77.1477L183.182 80.8168L183.19 80.8206L183.199 80.8243L184.775 77.1477ZM196.093 77.5227L197.47 81.2782L197.47 81.2782L196.093 77.5227ZM199.195 75.4432L202.327 77.9322L202.327 77.9322L199.195 75.4432ZM200.286 72.4091L204.285 72.4891L204.287 72.4065L204.285 72.324L200.286 72.4091ZM199.229 69.6136L196.114 72.123L196.153 72.1705L196.192 72.2168L199.229 69.6136ZM195.957 67.4318L194.368 71.1027L194.391 71.1127L194.414 71.1225L195.957 67.4318ZM189.786 65.5909L190.643 61.6837L190.629 61.6808L189.786 65.5909ZM182.832 64.0909L181.984 68L181.988 68.001L182.832 64.0909ZM168.207 57.375L165.546 60.3615L165.556 60.3705L165.566 60.3794L168.207 57.375ZM162.923 44.4545L166.922 44.4712L166.923 44.4526L166.922 44.434L162.923 44.4545ZM166.468 32.8295L163.223 30.49L163.221 30.4941L166.468 32.8295ZM176.457 25.0227L174.857 21.3563L174.85 21.3594L176.457 25.0227ZM205.775 25.0568L204.107 28.6928L204.107 28.6928L205.775 25.0568ZM215.286 33.0341L211.931 35.2117L211.939 35.2246L211.948 35.2375L215.286 33.0341ZM218.695 45V49H222.715L222.695 44.9801L218.695 45ZM204.546 44.681C204.293 41.5112 203.038 38.6782 200.567 36.6127L195.437 42.7509C196.011 43.2309 196.462 43.9433 196.572 45.319L204.546 44.681ZM200.59 36.6318C198.058 34.4838 194.662 33.7727 191.15 33.7727V41.7727C193.774 41.7727 194.946 42.3344 195.414 42.7319L200.59 36.6318ZM191.15 33.7727C188.912 33.7727 186.78 34.04 184.916 34.7518L187.77 42.2255C188.406 41.9827 189.478 41.7727 191.15 41.7727V33.7727ZM184.954 34.7376C183.228 35.3767 181.584 36.3904 180.405 37.9783L186.827 42.7489C186.829 42.746 187.003 42.5097 187.732 42.2396L184.954 34.7376ZM180.405 37.9783C179.303 39.4617 178.737 41.1793 178.696 43.002L186.694 43.1798C186.699 42.9571 186.747 42.8564 186.827 42.7489L180.405 37.9783ZM178.701 42.875C178.622 44.3346 178.878 45.7978 179.561 47.1639L186.716 43.5861C186.711 43.5758 186.705 43.5611 186.699 43.5307C186.692 43.4982 186.683 43.4276 186.689 43.3068L178.701 42.875ZM179.636 47.3073C180.357 48.6144 181.393 49.6424 182.536 50.4497L187.15 43.9139C186.748 43.6304 186.647 43.4538 186.641 43.4427L179.636 47.3073ZM182.602 50.4949C183.732 51.2599 185.047 51.8729 186.459 52.379L189.159 44.8483C188.161 44.4907 187.499 44.1492 187.084 43.8687L182.602 50.4949ZM186.459 52.379C187.888 52.8911 189.51 53.3233 191.299 53.6909L192.909 45.8546C191.38 45.5403 190.139 45.1998 189.159 44.8483L186.459 52.379ZM191.266 53.6839L196.993 54.9112L198.67 47.0888L192.942 45.8615L191.266 53.6839ZM197.003 54.9132C200.634 55.6821 203.614 56.6709 205.999 57.834L209.505 50.6433C206.39 49.1245 202.757 47.9542 198.66 47.0868L197.003 54.9132ZM205.999 57.834C208.414 59.0117 210.256 60.334 211.62 61.7511L217.384 56.2034C215.248 53.9841 212.59 52.1474 209.505 50.6433L205.999 57.834ZM211.638 61.7692C213.011 63.1781 213.98 64.7206 214.595 66.4124L222.113 63.6785C221.092 60.8703 219.493 58.3674 217.366 56.1853L211.638 61.7692ZM214.607 66.4458C215.268 68.2144 215.631 70.2011 215.65 72.4433L223.65 72.3749C223.623 69.2989 223.122 66.3766 222.101 63.6451L214.607 66.4458ZM215.65 72.3893C215.63 76.3013 214.664 79.3455 212.952 81.7432L219.462 86.3931C222.294 82.4272 223.624 77.6987 223.65 72.4289L215.65 72.3893ZM212.952 81.7432C211.198 84.1987 208.621 86.1831 204.995 87.6061L207.918 95.053C212.747 93.1578 216.67 90.3013 219.462 86.3931L212.952 81.7432ZM204.988 87.6087C201.371 89.0363 196.839 89.8182 191.286 89.8182V97.8182C197.551 97.8182 203.133 96.941 207.925 95.0503L204.988 87.6087ZM191.286 89.8182C185.603 89.8182 180.828 88.9764 176.876 87.4072L173.924 94.8428C179.017 96.8645 184.833 97.8182 191.286 97.8182V89.8182ZM176.882 87.4098C173.069 85.8883 170.236 83.6164 168.222 80.6128L161.578 85.069C164.563 89.52 168.731 92.7708 173.917 94.8402L176.882 87.4098ZM168.237 80.6361C166.301 77.7045 165.17 73.7315 165.15 68.439L157.15 68.4701C157.175 74.8594 158.544 80.4773 161.562 85.0457L168.237 80.6361ZM161.15 72.4545H179.15V64.4545H161.15V72.4545ZM175.155 68.667C175.298 71.3486 175.985 73.8676 177.408 76.0355L184.096 71.6463C183.61 70.9052 183.229 69.8332 183.144 68.2421L175.155 68.667ZM177.408 76.0355C178.825 78.1955 180.801 79.7831 183.182 80.8168L186.368 73.4787C185.294 73.0124 184.588 72.3954 184.096 71.6463L177.408 76.0355ZM183.199 80.8243C185.56 81.8362 188.201 82.2727 191.013 82.2727V74.2727C189.008 74.2727 187.489 73.9592 186.35 73.4711L183.199 80.8243ZM191.013 82.2727C193.335 82.2727 195.529 81.9898 197.47 81.2782L194.716 73.7672C193.929 74.0556 192.737 74.2727 191.013 74.2727V82.2727ZM197.47 81.2782C199.332 80.5957 201.052 79.5353 202.327 77.9322L196.064 72.9542C195.929 73.1238 195.582 73.4498 194.716 73.7672L197.47 81.2782ZM202.327 77.9322C203.579 76.3567 204.245 74.4982 204.285 72.4891L196.287 72.3291C196.282 72.5927 196.221 72.7569 196.064 72.9542L202.327 77.9322ZM204.285 72.324C204.243 70.3504 203.563 68.5237 202.266 67.0105L196.192 72.2168C196.247 72.2806 196.26 72.3139 196.263 72.3236C196.267 72.3343 196.285 72.3816 196.287 72.4942L204.285 72.324ZM202.344 67.1043C201.095 65.5534 199.319 64.5017 197.499 63.7411L194.414 71.1225C195.64 71.6346 196.045 72.0375 196.114 72.123L202.344 67.1043ZM197.545 63.7609C195.69 62.9578 193.355 62.2785 190.643 61.6838L188.929 69.4981C191.399 70.0397 193.178 70.5876 194.368 71.1027L197.545 63.7609ZM190.629 61.6808L183.675 60.1808L181.988 68.001L188.943 69.501L190.629 61.6808ZM183.68 60.1818C177.95 58.939 173.763 56.9334 170.847 54.3706L165.566 60.3794C169.787 64.0894 175.35 66.561 181.984 68L183.68 60.1818ZM170.868 54.3885C168.31 52.1094 166.904 48.9678 166.922 44.4712L158.923 44.4379C158.896 50.8504 161.013 56.3224 165.546 60.3615L170.868 54.3885ZM166.922 44.434C166.904 40.7721 167.865 37.7384 169.715 35.165L163.221 30.4941C160.299 34.557 158.896 39.2734 158.923 44.4751L166.922 44.434ZM169.712 35.1691C171.653 32.4785 174.383 30.2998 178.063 28.686L174.85 21.3594C170.03 23.4729 166.102 26.4987 163.223 30.49L169.712 35.1691ZM178.056 28.6891C181.74 27.0823 186.077 26.2273 191.15 26.2273V18.2273C185.177 18.2273 179.719 19.2359 174.857 21.3563L178.056 28.6891ZM191.15 26.2273C196.348 26.2273 200.629 27.0976 204.107 28.6928L207.442 21.4209C202.693 19.2433 197.224 18.2273 191.15 18.2273V26.2273ZM204.107 28.6928C207.607 30.2976 210.16 32.4827 211.931 35.2117L218.641 30.8565C215.958 26.7219 212.17 23.5887 207.442 21.4209L204.107 28.6928ZM211.948 35.2375C213.72 37.9233 214.676 41.1332 214.695 45.0199L222.695 44.9801C222.669 39.7304 221.352 34.963 218.625 30.8307L211.948 35.2375ZM218.695 41H200.559V49H218.695V41ZM234.813 93H230.813V97H234.813V93ZM234.813 82.5L231.612 80.1016L230.813 81.1678V82.5H234.813ZM267.813 38.4545L271.014 40.853L275.808 34.4545H267.813V38.4545ZM234.949 38.4545H230.949V42.4545H234.949V38.4545ZM234.949 23.1818V19.1818H230.949V23.1818H234.949ZM291.949 23.1818H295.949V19.1818H291.949V23.1818ZM291.949 33.6818L295.15 36.0802L295.949 35.014V33.6818H291.949ZM258.949 77.7273L255.748 75.3289L250.954 81.7273H258.949V77.7273ZM291.813 77.7273H295.813V73.7273H291.813V77.7273ZM291.813 93V97H295.813V93H291.813ZM238.813 93V82.5H230.813V93H238.813ZM238.014 84.8984L271.014 40.853L264.612 36.0561L231.612 80.1016L238.014 84.8984ZM267.813 34.4545H234.949V42.4545H267.813V34.4545ZM238.949 38.4545V23.1818H230.949V38.4545H238.949ZM234.949 27.1818H291.949V19.1818H234.949V27.1818ZM287.949 23.1818V33.6818H295.949V23.1818H287.949ZM288.748 31.2834L255.748 75.3289L262.15 80.1257L295.15 36.0802L288.748 31.2834ZM258.949 81.7273H291.813V73.7273H258.949V81.7273ZM287.813 77.7273V93H295.813V77.7273H287.813ZM291.813 89H234.813V97H291.813V89ZM308.876 93H304.876V97H308.876V93ZM308.876 23.1818V19.1818H304.876V23.1818H308.876ZM359.194 23.1818H363.194V19.1818H359.194V23.1818ZM359.194 38.4545V42.4545H363.194V38.4545H359.194ZM327.831 38.4545V34.4545H323.831V38.4545H327.831ZM327.831 50.4545H323.831V54.4545H327.831V50.4545ZM356.604 50.4545H360.604V46.4545H356.604V50.4545ZM356.604 65.7273V69.7273H360.604V65.7273H356.604ZM327.831 65.7273V61.7273H323.831V65.7273H327.831ZM327.831 77.7273H323.831V81.7273H327.831V77.7273ZM359.058 77.7273H363.058V73.7273H359.058V77.7273ZM359.058 93V97H363.058V93H359.058ZM312.876 93V23.1818H304.876V93H312.876ZM308.876 27.1818H359.194V19.1818H308.876V27.1818ZM355.194 23.1818V38.4545H363.194V23.1818H355.194ZM359.194 34.4545H327.831V42.4545H359.194V34.4545ZM323.831 38.4545V50.4545H331.831V38.4545H323.831ZM327.831 54.4545H356.604V46.4545H327.831V54.4545ZM352.604 50.4545V65.7273H360.604V50.4545H352.604ZM356.604 61.7273H327.831V69.7273H356.604V61.7273ZM323.831 65.7273V77.7273H331.831V65.7273H323.831ZM327.831 81.7273H359.058V73.7273H327.831V81.7273ZM355.058 77.7273V93H363.058V77.7273H355.058ZM359.058 89H308.876V97H359.058V89ZM403.08 93H399.08V97H403.08V93ZM403.08 23.1818V19.1818H399.08V23.1818H403.08ZM455.887 34.1591L459.303 32.0786L459.303 32.0786L455.887 34.1591ZM455.785 59.5568L452.429 57.3792L452.424 57.387L452.419 57.3949L455.785 59.5568ZM446.478 67.3295L444.874 63.6649L444.867 63.6683L446.478 67.3295ZM414.535 69.9545H410.535V73.9545H414.535V69.9545ZM414.535 55.2273V51.2273H410.535V55.2273H414.535ZM434.41 54.4091L435.724 58.1871L435.739 58.1816L435.755 58.1761L434.41 54.4091ZM438.057 51.7159L434.786 49.4139L434.772 49.4344L434.758 49.455L438.057 51.7159ZM438.057 42.0341L434.72 44.2391L434.743 44.2737L434.766 44.3078L438.057 42.0341ZM434.41 39.2386L432.952 42.9636L432.984 42.9762L433.017 42.9883L434.41 39.2386ZM422.035 38.3182V34.3182H418.035V38.3182H422.035ZM422.035 93V97H426.035V93H422.035ZM443.989 60.9545L447.502 59.0412L446.365 56.9545H443.989V60.9545ZM461.444 93V97H468.177L464.956 91.0867L461.444 93ZM440.853 93L437.321 94.8785L438.45 97H440.853V93ZM423.807 60.9545V56.9545H417.149L420.276 62.833L423.807 60.9545ZM407.08 93V23.1818H399.08V93H407.08ZM403.08 27.1818H433.216V19.1818H403.08V27.1818ZM433.216 27.1818C437.912 27.1818 441.828 28.0353 445.072 29.6099L448.565 22.4129C444.037 20.2147 438.884 19.1818 433.216 19.1818V27.1818ZM445.072 29.6099C448.297 31.1753 450.727 33.3774 452.47 36.2396L459.303 32.0786C456.728 27.8498 453.113 24.6201 448.565 22.4129L445.072 29.6099ZM452.47 36.2396C454.18 39.0463 455.125 42.5453 455.125 46.9091H463.125C463.125 41.3637 461.912 36.3628 459.303 32.0786L452.47 36.2396ZM455.125 46.9091C455.125 51.3089 454.151 54.7268 452.429 57.3792L459.14 61.7344C461.873 57.5231 463.125 52.5092 463.125 46.9091H455.125ZM452.419 57.3949C450.671 60.1156 448.205 62.2077 444.874 63.6649L448.081 70.9942C452.75 68.9513 456.489 65.8616 459.15 61.7187L452.419 57.3949ZM444.867 63.6683C441.497 65.1508 437.419 65.9545 432.535 65.9545V73.9545C438.286 73.9545 443.503 73.0083 448.089 70.9908L444.867 63.6683ZM432.535 65.9545H414.535V73.9545H432.535V65.9545ZM418.535 69.9545V55.2273H410.535V69.9545H418.535ZM414.535 59.2273H428.716V51.2273H414.535V59.2273ZM428.716 59.2273C431.248 59.2273 433.616 58.9201 435.724 58.1871L433.095 50.6311C432.066 50.989 430.639 51.2273 428.716 51.2273V59.2273ZM435.755 58.1761C438.028 57.3644 439.976 55.9916 441.357 53.9768L434.758 49.455C434.456 49.8947 433.973 50.3175 433.064 50.6421L435.755 58.1761ZM441.328 54.0179C442.796 51.932 443.353 49.4514 443.353 46.9091H435.353C435.353 48.3214 435.045 49.0453 434.786 49.4139L441.328 54.0179ZM443.353 46.9091C443.353 44.3507 442.799 41.8609 441.348 39.7604L434.766 44.3078C435.042 44.7073 435.353 45.4675 435.353 46.9091H443.353ZM441.395 39.8291C440.033 37.7689 438.095 36.3405 435.802 35.4889L433.017 42.9883C433.906 43.3186 434.399 43.7538 434.72 44.2391L441.395 39.8291ZM435.867 35.5137C433.711 34.6701 431.29 34.3182 428.716 34.3182V42.3182C430.597 42.3182 431.971 42.5799 432.952 42.9636L435.867 35.5137ZM428.716 34.3182H422.035V42.3182H428.716V34.3182ZM418.035 38.3182V93H426.035V38.3182H418.035ZM422.035 89H403.08V97H422.035V89ZM440.476 62.8679L457.931 94.9133L464.956 91.0867L447.502 59.0412L440.476 62.8679ZM461.444 89H440.853V97H461.444V89ZM444.384 91.1215L427.339 59.0761L420.276 62.833L437.321 94.8785L444.384 91.1215ZM423.807 64.9545H443.989V56.9545H423.807V64.9545ZM474.885 93H470.885V97H474.885V93ZM474.885 23.1818V19.1818H470.885V23.1818H474.885ZM525.203 23.1818H529.203V19.1818H525.203V23.1818ZM525.203 38.4545V42.4545H529.203V38.4545H525.203ZM493.84 38.4545V34.4545H489.84V38.4545H493.84ZM493.84 50.4545H489.84V54.4545H493.84V50.4545ZM522.612 50.4545H526.612V46.4545H522.612V50.4545ZM522.612 65.7273V69.7273H526.612V65.7273H522.612ZM493.84 65.7273V61.7273H489.84V65.7273H493.84ZM493.84 77.7273H489.84V81.7273H493.84V77.7273ZM525.067 77.7273H529.067V73.7273H525.067V77.7273ZM525.067 93V97H529.067V93H525.067ZM478.885 93V23.1818H470.885V93H478.885ZM474.885 27.1818H525.203V19.1818H474.885V27.1818ZM521.203 23.1818V38.4545H529.203V23.1818H521.203ZM525.203 34.4545H493.84V42.4545H525.203V34.4545ZM489.84 38.4545V50.4545H497.84V38.4545H489.84ZM493.84 54.4545H522.612V46.4545H493.84V54.4545ZM518.612 50.4545V65.7273H526.612V50.4545H518.612ZM522.612 61.7273H493.84V69.7273H522.612V61.7273ZM489.84 65.7273V77.7273H497.84V65.7273H489.84ZM493.84 81.7273H525.067V73.7273H493.84V81.7273ZM521.067 77.7273V93H529.067V77.7273H521.067ZM525.067 89H474.885V97H525.067V89ZM560.42 93V97H563.391L564.249 94.156L560.42 93ZM539.966 93L536.167 91.7462L534.433 97H539.966V93ZM563.011 23.1818V19.1818H560.119L559.213 21.928L563.011 23.1818ZM588.92 23.1818L592.719 21.928L591.812 19.1818H588.92V23.1818ZM611.966 93V97H617.498L615.764 91.7462L611.966 93ZM591.511 93L587.682 94.156L588.54 97H591.511V93ZM576.238 42.4091L580.068 41.2531L579.209 38.4091H576.238V42.4091ZM575.693 42.4091V38.4091H572.722L571.864 41.2531L575.693 42.4091ZM556.602 65.4545V61.4545H552.602V65.4545H556.602ZM595.056 65.4545H599.056V61.4545H595.056V65.4545ZM595.056 79.6364V83.6364H599.056V79.6364H595.056ZM556.602 79.6364H552.602V83.6364H556.602V79.6364ZM560.42 89H539.966V97H560.42V89ZM543.764 94.2538L566.809 24.4356L559.213 21.928L536.167 91.7462L543.764 94.2538ZM563.011 27.1818H588.92V19.1818H563.011V27.1818ZM585.122 24.4356L608.167 94.2538L615.764 91.7462L592.719 21.928L585.122 24.4356ZM611.966 89H591.511V97H611.966V89ZM595.34 91.844L580.068 41.2531L572.409 43.5651L587.682 94.156L595.34 91.844ZM576.238 38.4091H575.693V46.4091H576.238V38.4091ZM571.864 41.2531L556.591 91.844L564.249 94.156L579.522 43.5651L571.864 41.2531ZM556.602 69.4545H595.056V61.4545H556.602V69.4545ZM591.056 65.4545V79.6364H599.056V65.4545H591.056ZM595.056 75.6364H556.602V83.6364H595.056V75.6364ZM560.602 79.6364V65.4545H552.602V79.6364H560.602ZM626.37 93H622.37V97H626.37V93ZM626.37 23.1818V19.1818H622.37V23.1818H626.37ZM645.325 23.1818H649.325V19.1818H645.325V23.1818ZM645.325 77.7273H641.325V81.7273H645.325V77.7273ZM673.552 77.7273H677.552V73.7273H673.552V77.7273ZM673.552 93V97H677.552V93H673.552ZM630.37 93V23.1818H622.37V93H630.37ZM626.37 27.1818H645.325V19.1818H626.37V27.1818ZM641.325 23.1818V77.7273H649.325V23.1818H641.325ZM645.325 81.7273H673.552V73.7273H645.325V81.7273ZM669.552 77.7273V93H677.552V77.7273H669.552ZM673.552 89H626.37V97H673.552V89ZM707.848 23.1818H711.848V19.1818H707.848V23.1818ZM707.848 93V97H711.848V93H707.848ZM688.894 93H684.894V97H688.894V93ZM688.894 23.1818V19.1818H684.894V23.1818H688.894ZM703.848 23.1818V93H711.848V23.1818H703.848ZM707.848 89H688.894V97H707.848V89ZM692.894 93V23.1818H684.894V93H692.894ZM688.894 27.1818H707.848V19.1818H688.894V27.1818ZM724.784 93H720.784V97H724.784V93ZM724.784 82.5L721.583 80.1016L720.784 81.1678V82.5H724.784ZM757.784 38.4545L760.985 40.853L765.779 34.4545H757.784V38.4545ZM724.92 38.4545H720.92V42.4545H724.92V38.4545ZM724.92 23.1818V19.1818H720.92V23.1818H724.92ZM781.92 23.1818H785.92V19.1818H781.92V23.1818ZM781.92 33.6818L785.122 36.0802L785.92 35.014V33.6818H781.92ZM748.92 77.7273L745.719 75.3289L740.925 81.7273H748.92V77.7273ZM781.784 77.7273H785.784V73.7273H781.784V77.7273ZM781.784 93V97H785.784V93H781.784ZM728.784 93V82.5H720.784V93H728.784ZM727.985 84.8984L760.985 40.853L754.583 36.0561L721.583 80.1016L727.985 84.8984ZM757.784 34.4545H724.92V42.4545H757.784V34.4545ZM728.92 38.4545V23.1818H720.92V38.4545H728.92ZM724.92 27.1818H781.92V19.1818H724.92V27.1818ZM777.92 23.1818V33.6818H785.92V23.1818H777.92ZM778.719 31.2834L745.719 75.3289L752.122 80.1257L785.122 36.0802L778.719 31.2834ZM748.92 81.7273H781.784V73.7273H748.92V81.7273ZM777.784 77.7273V93H785.784V77.7273H777.784ZM781.784 89H724.784V97H781.784V89ZM816.984 93V97H819.955L820.813 94.156L816.984 93ZM796.529 93L792.731 91.7462L790.997 97H796.529V93ZM819.575 23.1818V19.1818H816.683L815.776 21.928L819.575 23.1818ZM845.484 23.1818L849.282 21.928L848.376 19.1818H845.484V23.1818ZM868.529 93V97H874.062L872.328 91.7462L868.529 93ZM848.075 93L844.245 94.156L845.104 97H848.075V93ZM832.802 42.4091L836.631 41.2531L835.773 38.4091H832.802V42.4091ZM832.257 42.4091V38.4091H829.286L828.427 41.2531L832.257 42.4091ZM813.166 65.4545V61.4545H809.166V65.4545H813.166ZM851.62 65.4545H855.62V61.4545H851.62V65.4545ZM851.62 79.6364V83.6364H855.62V79.6364H851.62ZM813.166 79.6364H809.166V83.6364H813.166V79.6364ZM816.984 89H796.529V97H816.984V89ZM800.328 94.2538L823.373 24.4356L815.776 21.928L792.731 91.7462L800.328 94.2538ZM819.575 27.1818H845.484V19.1818H819.575V27.1818ZM841.685 24.4356L864.731 94.2538L872.328 91.7462L849.282 21.928L841.685 24.4356ZM868.529 89H848.075V97H868.529V89ZM851.904 91.844L836.631 41.2531L828.973 43.5651L844.245 94.156L851.904 91.844ZM832.802 38.4091H832.257V46.4091H832.802V38.4091ZM828.427 41.2531L813.155 91.844L820.813 94.156L836.086 43.5651L828.427 41.2531ZM813.166 69.4545H851.62V61.4545H813.166V69.4545ZM847.62 65.4545V79.6364H855.62V65.4545H847.62ZM851.62 75.6364H813.166V83.6364H851.62V75.6364ZM817.166 79.6364V65.4545H809.166V79.6364H817.166ZM944.834 49.3636V53.3636H949.183L948.82 49.0297L944.834 49.3636ZM925.607 49.3636L921.622 49.7052L921.935 53.3636H925.607V49.3636ZM924.516 45.0341L920.853 46.6407L920.865 46.6675L920.877 46.6941L924.516 45.0341ZM922.13 41.6932L919.368 44.5866L919.402 44.6187L919.436 44.65L922.13 41.6932ZM918.482 39.5114L917.11 43.2688L917.137 43.2784L917.163 43.2877L918.482 39.5114ZM905.528 41.0455L903.231 37.7701L903.223 37.7757L903.215 37.7814L905.528 41.0455ZM900.55 47.6932L896.828 46.2279L896.823 46.2406L896.818 46.2533L900.55 47.6932ZM900.584 68.8295L896.862 70.2949L896.869 70.3126L896.877 70.3303L900.584 68.8295ZM905.596 75.3068L903.377 78.635L903.389 78.6431L903.401 78.651L905.596 75.3068ZM918.175 76.8068L919.365 80.6259L919.393 80.617L919.421 80.6077L918.175 76.8068ZM921.789 74.8636L924.329 77.9533L924.329 77.9533L921.789 74.8636ZM924.278 71.8295L920.768 69.9095L920.762 69.9213L920.756 69.9331L924.278 71.8295ZM925.607 67.7727L925.635 63.7728L922.171 63.7483L921.652 67.1735L925.607 67.7727ZM944.834 67.9091L948.823 68.2159L949.152 63.9396L944.863 63.9092L944.834 67.9091ZM942.346 76.9432L945.966 78.6451L945.97 78.6347L942.346 76.9432ZM936.243 85.3977L939.047 88.2509L939.047 88.2506L936.243 85.3977ZM895.812 89.8295L893.904 93.3453L893.911 93.3489L895.812 89.8295ZM883.778 77.6932L880.271 79.618L880.277 79.6294L883.778 77.6932ZM883.88 38.4545L887.364 40.4198L887.367 40.4135L883.88 38.4545ZM896.016 26.3523L897.905 29.8782L897.917 29.8716L896.016 26.3523ZM925.232 24.0341L926.469 20.2301L926.469 20.2301L925.232 24.0341ZM934.982 29.3182L932.429 32.3972L932.436 32.4034L932.444 32.4095L934.982 29.3182ZM941.732 37.8068L938.164 39.6149L938.164 39.6149L941.732 37.8068ZM944.834 45.3636H925.607V53.3636H944.834V45.3636ZM929.592 49.022C929.422 47.03 928.958 45.1333 928.155 43.3741L920.877 46.6941C921.256 47.5258 921.52 48.5155 921.622 49.7052L929.592 49.022ZM928.179 43.4274C927.391 41.6309 926.27 40.054 924.824 38.7364L919.436 44.65C920.035 45.196 920.505 45.8464 920.853 46.6407L928.179 43.4274ZM924.892 38.7998C923.44 37.4145 921.718 36.4046 919.801 35.735L917.163 43.2877C918.109 43.6181 918.819 44.0628 919.368 44.5866L924.892 38.7998ZM919.854 35.7539C917.907 35.0431 915.805 34.7273 913.607 34.7273V42.7273C915.045 42.7273 916.194 42.9341 917.11 43.2688L919.854 35.7539ZM913.607 34.7273C909.757 34.7273 906.224 35.6721 903.231 37.7701L907.824 44.3208C909.24 43.3279 911.094 42.7273 913.607 42.7273V34.7273ZM903.215 37.7814C900.302 39.845 898.203 42.7362 896.828 46.2279L904.272 49.1585C905.17 46.8774 906.389 45.3368 907.84 44.3096L903.215 37.7814ZM896.818 46.2533C895.482 49.7163 894.88 53.6967 894.88 58.0909H902.88C902.88 54.3942 903.391 51.4428 904.282 49.133L896.818 46.2533ZM894.88 58.0909C894.88 62.6888 895.487 66.8018 896.862 70.2949L904.306 67.3642C903.409 65.0846 902.88 62.0385 902.88 58.0909H894.88ZM896.877 70.3303C898.282 73.8031 900.414 76.6599 903.377 78.635L907.815 71.9786C906.414 71.0447 905.205 69.5833 904.292 67.3288L896.877 70.3303ZM903.401 78.651C906.343 80.5814 909.762 81.4545 913.471 81.4545V73.4545C911.043 73.4545 909.212 72.8959 907.79 71.9626L903.401 78.651ZM913.471 81.4545C915.544 81.4545 917.524 81.1993 919.365 80.6259L916.986 72.9878C916.054 73.278 914.897 73.4545 913.471 73.4545V81.4545ZM919.421 80.6077C921.232 80.0143 922.886 79.1402 924.329 77.9533L919.248 71.7739C918.647 72.2689 917.892 72.6903 916.929 73.0059L919.421 80.6077ZM924.329 77.9533C925.759 76.7776 926.92 75.3591 927.799 73.7259L920.756 69.9331C920.362 70.6636 919.864 71.2679 919.248 71.7739L924.329 77.9533ZM927.787 73.7496C928.693 72.0934 929.272 70.2865 929.562 68.3719L921.652 67.1735C921.488 68.2589 921.18 69.1566 920.768 69.9095L927.787 73.7496ZM925.579 71.7726L944.806 71.909L944.863 63.9092L925.635 63.7728L925.579 71.7726ZM940.846 67.6023C940.661 70.0139 939.978 72.558 938.721 75.2516L945.97 78.6347C947.577 75.192 948.554 71.7134 948.823 68.2159L940.846 67.6023ZM938.726 75.2413C937.515 77.8175 935.771 80.2535 933.44 82.5448L939.047 88.2506C941.988 85.3601 944.313 82.1598 945.966 78.6451L938.726 75.2413ZM933.44 82.5446C931.247 84.699 928.469 86.4975 925.023 87.8959L928.032 95.3086C932.314 93.5707 936.012 91.2328 939.047 88.2509L933.44 82.5446ZM925.023 87.8959C921.732 89.2317 917.773 89.9545 913.062 89.9545V97.9545C918.578 97.9545 923.596 97.1092 928.032 95.3086L925.023 87.8959ZM913.062 89.9545C907.243 89.9545 902.159 88.7118 897.713 86.3102L893.911 93.3489C899.646 96.4473 906.062 97.9545 913.062 97.9545V89.9545ZM897.719 86.3138C893.362 83.9493 889.886 80.4712 887.278 75.7569L880.277 79.6294C883.579 85.597 888.125 90.2098 893.904 93.3453L897.719 86.3138ZM887.284 75.7684C884.752 71.155 883.38 65.3221 883.38 58.0909H875.38C875.38 66.3143 876.94 73.5495 880.271 79.618L887.284 75.7684ZM883.38 58.0909C883.38 50.8225 884.782 44.996 887.364 40.4198L880.396 36.4893C876.977 42.5495 875.38 49.8138 875.38 58.0909H883.38ZM887.367 40.4135C890.018 35.6942 893.527 32.2237 897.905 29.8782L894.127 22.8264C888.324 25.9353 883.741 30.533 880.392 36.4956L887.367 40.4135ZM897.917 29.8716C902.376 27.4632 907.395 26.2273 913.062 26.2273V18.2273C906.182 18.2273 899.838 19.7413 894.115 22.8329L897.917 29.8716ZM913.062 26.2273C917.105 26.2273 920.739 26.7792 923.995 27.8381L926.469 20.2301C922.316 18.8798 917.836 18.2273 913.062 18.2273V26.2273ZM923.995 27.8381C927.254 28.8978 930.05 30.4245 932.429 32.3972L937.535 26.2391C934.323 23.5755 930.619 21.5795 926.469 20.2301L923.995 27.8381ZM932.444 32.4095C934.792 34.3382 936.699 36.7243 938.164 39.6149L945.3 35.9987C943.356 32.1621 940.763 28.889 937.52 26.2268L932.444 32.4095ZM938.164 39.6149C939.602 42.453 940.521 45.7916 940.848 49.6975L948.82 49.0297C948.42 44.2539 947.271 39.8879 945.3 35.9987L938.164 39.6149ZM989.886 23.1818V19.1818H985.886V23.1818H989.886ZM1008.57 23.1818H1012.57V19.1818H1008.57V23.1818ZM1008.57 71.0455L1012.57 71.0655L1012.57 71.0555V71.0455H1008.57ZM1005.13 83.0455L1001.78 80.847L1001.78 80.8523L1005.13 83.0455ZM995.784 91.0909L997.523 94.6931L997.532 94.6889L995.784 91.0909ZM969.841 91.6364L968.282 95.3199L968.291 95.324L968.301 95.328L969.841 91.6364ZM960.977 84.2727L957.632 86.4654L957.639 86.4758L960.977 84.2727ZM957.705 71.1818V67.1818H953.722L953.705 71.1649L957.705 71.1818ZM976.659 71.1818L980.656 71.0261L980.506 67.1818H976.659V71.1818ZM977.546 75.6136L973.876 77.206L973.889 77.2349L973.902 77.2637L977.546 75.6136ZM979.796 78.3409L977.633 81.7056L977.679 81.7354L977.726 81.7638L979.796 78.3409ZM986.886 78.3068L984.759 74.9193L984.741 74.9306L984.723 74.9421L986.886 78.3068ZM989.102 75.5795L992.797 77.1131L992.802 77.1009L992.807 77.0887L989.102 75.5795ZM989.886 71.0455L993.886 71.0961L993.886 71.0708V71.0455H989.886ZM989.886 27.1818H1008.57V19.1818H989.886V27.1818ZM1004.57 23.1818V71.0455H1012.57V23.1818H1004.57ZM1004.57 71.0255C1004.55 74.8762 1003.59 78.1032 1001.78 80.847L1008.47 85.2439C1011.21 81.0786 1012.54 76.3056 1012.57 71.0655L1004.57 71.0255ZM1001.78 80.8523C999.957 83.6335 997.416 85.8512 994.037 87.4929L997.532 94.6889C1002.11 92.467 1005.79 89.3211 1008.47 85.2386L1001.78 80.8523ZM994.045 87.4887C990.72 89.094 986.775 89.9545 982.114 89.9545V97.9545C987.77 97.9545 992.939 96.906 997.523 94.6931L994.045 87.4887ZM982.114 89.9545C978.104 89.9545 974.544 89.2644 971.381 87.9447L968.301 95.328C972.547 97.0993 977.169 97.9545 982.114 97.9545V89.9545ZM971.4 87.9528C968.418 86.6903 966.084 84.749 964.316 82.0697L957.639 86.4758C960.28 90.4783 963.855 93.446 968.282 95.3199L971.4 87.9528ZM964.323 82.0801C962.67 79.5587 961.684 76.034 961.705 71.1988L953.705 71.1649C953.68 77.0569 954.875 82.2595 957.632 86.4654L964.323 82.0801ZM957.705 75.1818H976.659V67.1818H957.705V75.1818ZM972.662 71.3375C972.744 73.4269 973.103 75.4232 973.876 77.206L981.215 74.0213C980.943 73.395 980.711 72.4367 980.656 71.0261L972.662 71.3375ZM973.902 77.2637C974.712 79.052 975.928 80.6099 977.633 81.7056L981.959 74.9762C981.754 74.8446 981.47 74.5843 981.189 73.9636L973.902 77.2637ZM977.726 81.7638C979.449 82.8057 981.381 83.2273 983.341 83.2273V75.2273C982.528 75.2273 982.097 75.0579 981.865 74.918L977.726 81.7638ZM983.341 83.2273C985.332 83.2273 987.31 82.79 989.05 81.6715L984.723 74.9421C984.554 75.051 984.169 75.2273 983.341 75.2273V83.2273ZM989.014 81.6944C990.782 80.5839 992.022 78.9794 992.797 77.1131L985.408 74.046C985.183 74.5888 984.945 74.8025 984.759 74.9193L989.014 81.6944ZM992.807 77.0887C993.55 75.2654 993.859 73.2254 993.886 71.0961L985.887 70.9948C985.868 72.4564 985.655 73.4391 985.398 74.0704L992.807 77.0887ZM993.886 71.0455V23.1818H985.886V71.0455H993.886ZM1025.23 93H1021.23V97H1025.23V93ZM1025.23 23.1818V19.1818H1021.23V23.1818H1025.23ZM1075.55 23.1818H1079.55V19.1818H1075.55V23.1818ZM1075.55 38.4545V42.4545H1079.55V38.4545H1075.55ZM1044.19 38.4545V34.4545H1040.19V38.4545H1044.19ZM1044.19 50.4545H1040.19V54.4545H1044.19V50.4545ZM1072.96 50.4545H1076.96V46.4545H1072.96V50.4545ZM1072.96 65.7273V69.7273H1076.96V65.7273H1072.96ZM1044.19 65.7273V61.7273H1040.19V65.7273H1044.19ZM1044.19 77.7273H1040.19V81.7273H1044.19V77.7273ZM1075.41 77.7273H1079.41V73.7273H1075.41V77.7273ZM1075.41 93V97H1079.41V93H1075.41ZM1029.23 93V23.1818H1021.23V93H1029.23ZM1025.23 27.1818H1075.55V19.1818H1025.23V27.1818ZM1071.55 23.1818V38.4545H1079.55V23.1818H1071.55ZM1075.55 34.4545H1044.19V42.4545H1075.55V34.4545ZM1040.19 38.4545V50.4545H1048.19V38.4545H1040.19ZM1044.19 54.4545H1072.96V46.4545H1044.19V54.4545ZM1068.96 50.4545V65.7273H1076.96V50.4545H1068.96ZM1072.96 61.7273H1044.19V69.7273H1072.96V61.7273ZM1040.19 65.7273V77.7273H1048.19V65.7273H1040.19ZM1044.19 81.7273H1075.41V73.7273H1044.19V81.7273ZM1071.41 77.7273V93H1079.41V77.7273H1071.41ZM1075.41 89H1025.23V97H1075.41V89Z" fill="white" mask="url(#path-1-outside-1_94_248)"/>
</svg>
